<?xml version='1.0' encoding='utf-8'?>
<svg xmlns="http://www.w3.org/2000/svg" width="210mm" height="297mm" viewBox="0 0 744.09448819 1052.3622047" id="svg6108" version="1.1"> <defs id="defs6110"> <filter style="color-interpolation-filters:sRGB" id="filter4983" x="-0.40200001" width="1.804" y="-0.40200001" height="1.804"> <feGaussianBlur stdDeviation="5.1953788" id="feGaussianBlur4985"/> </filter> </defs> <metadata id="metadata6113"> </metadata> <g id="layer1"> <g style="display:inline" id="g5460" transform="matrix(0.96938537,0,0,0.96938537,-91.56735,353.01118)"> <path id="path5433" d="M 216.77435,-6.0066954 C 182.05911,-2.9784797 164.21897,11.961576 152.50713,31.227488 l 25.24784,37.999269 41.05961,-15.046691 c 7.13084,-18.791537 15.13087,-37.196769 28.30818,-53.30098785 z" style="fill:#ccaa85;fill-opacity:1;fill-rule:evenodd;stroke:none;stroke-width:1px;stroke-linecap:butt;stroke-linejoin:miter;stroke-opacity:1"/> <path id="path5223" d="m 377.69743,-132.50091 c -0.47024,-0.94048 7.32686,-6.76868 11.22126,-1.53017 3.73626,-5.55879 14.28161,-1.02011 14.28161,-1.02011 20.15816,-10.35634 22.60094,11.83798 16.0668,16.32183 -4.9165,3.48642 -8.91233,7.46859 -7.65086,14.28161 3.48428,4.976718 2.74979,9.186388 -4.33548,12.241371 -4.08046,6.275886 -8.16092,5.741358 -12.24138,0 -2.25676,6.066174 -6.31997,6.71298 -10.96623,5.61063 -16.12922,-10.142361 -6.89653,-29.628581 -6.37572,-45.905161 z" style="fill:#000000;fill-rule:evenodd;stroke:#000000;stroke-width:1px;stroke-linecap:butt;stroke-linejoin:miter;stroke-opacity:1"/> <path id="path5175" d="m 284.92533,-65.338557 -2.88532,4.327979 20.91857,67.4443511 62.03438,-50.8537621 c -26.68921,-3.114028 -53.37842,-0.667447 -80.06763,-20.918568 z" style="fill:#d38f5f;fill-opacity:1;fill-rule:evenodd;stroke:none;stroke-width:1px;stroke-linecap:butt;stroke-linejoin:miter;stroke-opacity:1"/> <path id="path5107" d="M 254.26881,-18.45211 210.26768,56.92687 319.54917,71.714134 357.41899,4.2697832 323.51648,-8.7141559 272.66272,-9.7961509 Z" style="fill:#e9daca;fill-opacity:1;fill-rule:evenodd;stroke:none;stroke-width:1px;stroke-linecap:butt;stroke-linejoin:miter;stroke-opacity:1"/> <path id="path5141" d="m 289.71255,399.23383 c -14.90407,8.47803 -31.92031,16.38001 -39.78447,26.77801 -22.83279,4.60684 -21.38711,15.73744 -21.67744,20.91235 9.71327,15.37347 48.08825,11.03369 65.28734,6.88577 32.32062,-3.85519 57.04247,-18.15871 84.41448,-28.81824 l -17.34195,-25.75789 z" style="fill:#705535;fill-opacity:1;fill-rule:evenodd;stroke:none;stroke-width:1px;stroke-linecap:butt;stroke-linejoin:miter;stroke-opacity:1"/> <path id="path5151" d="m 283.29297,402.80664 c -8.33158,4.56852 -16.81607,9.09345 -23.62891,14.07617 l 41.60938,35.7793 c 11.32886,-1.98613 21.76448,-5.19997 31.79687,-8.96875 -0.6053,-13.9097 -16.75414,-30.62891 -49.77734,-40.88672 z" style="fill:#903222;fill-opacity:1;fill-rule:evenodd;stroke:none;stroke-width:1px;stroke-linecap:butt;stroke-linejoin:miter;stroke-opacity:1"/> <path id="path5149" d="m 267.13672,411.92969 c -5.24668,3.20576 -10.00633,6.54377 -13.71875,10.16797 l 30.2832,33.64843 c 3.68011,-0.59683 7.05335,-1.26446 9.83594,-1.93554 8.1385,-0.97076 15.79429,-2.60701 23.13281,-4.67774 1.34981,-16.3744 -12.05351,-30.82805 -49.5332,-37.20312 z" style="fill:#2a2511;fill-opacity:1;fill-rule:evenodd;stroke:none;stroke-width:1px;stroke-linecap:butt;stroke-linejoin:miter;stroke-opacity:1"/> <path id="path5147" d="m 259.47852,417.02344 c -3.83075,2.81944 -7.12798,5.78485 -9.55079,8.98828 -22.83279,4.60684 -21.3874,15.7372 -21.67773,20.91211 9.71327,15.37347 48.08802,11.03464 65.28711,6.88672 3.75244,-0.44759 7.39926,-1.0428 10.96289,-1.75 2.11883,-14.57045 -6.52401,-27.32396 -45.02148,-35.03711 z" style="fill:#cd8f63;fill-opacity:1;fill-rule:evenodd;stroke:none;stroke-width:1px;stroke-linecap:butt;stroke-linejoin:miter;stroke-opacity:1"/> <path id="path5145" d="m 250.80273,424.94922 c -0.29333,0.35368 -0.60308,0.70298 -0.875,1.0625 -22.83279,4.60684 -21.3874,15.7372 -21.67773,20.91211 8.3045,13.14377 37.526,11.87069 56.58594,8.63476 -0.4004,-12.93948 -6.97657,-24.33394 -34.03321,-30.60937 z" style="fill:#5c3a1a;fill-opacity:1;fill-rule:evenodd;stroke:none;stroke-width:1px;stroke-linecap:butt;stroke-linejoin:miter;stroke-opacity:1"/> <path id="path5157" d="m 216.00927,-16.207841 c 7.68465,-9.394469 19.68853,-13.47297 36.21407,-11.986347 l 11.22126,19.6372061 -24.22773,6.3757162 z" style="fill:#e9daca;fill-opacity:1;fill-rule:evenodd;stroke:none;stroke-width:1px;stroke-linecap:butt;stroke-linejoin:miter;stroke-opacity:1"/> <path id="path5099" d="M 274.82671,-6.5501661 C 274.39294,17.132669 253.15946,29.283933 249.2195,47.188915 l -23.44322,0.72133 c 12.01468,-15.781601 23.85638,-33.68143 35.34516,-55.903071 z" style="fill:#dc4d29;fill-opacity:1;fill-rule:evenodd;stroke:none;stroke-width:1px;stroke-linecap:butt;stroke-linejoin:miter;stroke-opacity:1"/> <path id="path5101" d="m 293.58129,-17.00945 c -6.36495,27.948393 -26.48568,49.758298 -33.18118,65.28036 l 22.7219,3.245985 c 12.57445,-14.740272 9.97691,-40.697254 27.7712,-59.149056 z" style="fill:#dc4d29;fill-opacity:1;fill-rule:evenodd;stroke:none;stroke-width:1px;stroke-linecap:butt;stroke-linejoin:miter;stroke-opacity:1"/> <path id="path5103" d="M 330.00845,-7.2714961 C 316.57084,14.608846 304.58447,36.489188 299.7126,58.36953 l 22.36122,4.327979 c 2.07132,-21.925234 13.64058,-40.19741 28.13187,-57.3457309 z" style="fill:#dc4d29;fill-opacity:1;fill-rule:evenodd;stroke:none;stroke-width:1px;stroke-linecap:butt;stroke-linejoin:miter;stroke-opacity:1"/> <path id="path5025" d="m 269.31025,-24.878815 c -13.9619,21.9222967 -30.41444,42.59927 -36.72412,68.347678 36.90208,-6.173116 63.52396,0.504018 89.77008,7.65086 4.7414,-23.925403 23.20612,-49.8789801 38.76436,-76.508595 l 34.6839,3.060344 c -23.8226,23.9296064 -39.2288,52.593438 -41.31465,88.74997 L 359.5904,346.4429 c -29.69449,18.72899 -59.35226,37.48653 -100.99135,46.92527 -22.23332,7.61183 -31.11446,4.63713 -43.35487,-7.1408 -20.06394,-4.41712 -42.16305,-4.76391 -66.30745,-1.02011 -21.93173,4.27251 -39.75353,-2.02171 -21.93246,-35.70402 10.7112,-23.80267 26.5841,-39.08402 24.48275,-63.75716 1.51605,-58.2386 -3.56639,-119.77645 18.36206,-167.80885 12.90147,-30.809424 29.26331,-55.390174 48.9655,-73.958309 15.61888,-24.56992 27.4285,-54.218868 50.49567,-68.857736 z" style="fill:#eeddce;fill-opacity:1;fill-rule:evenodd;stroke:none;stroke-width:1px;stroke-linecap:butt;stroke-linejoin:miter;stroke-opacity:1"/> <path id="path5119" d="m 325.41656,168.4329 11.22126,173.92954 c 11.11415,41.69185 165.01275,36.73614 170.35914,-10.20114 l -2.27183,-173.24446 c -29.60973,7.37813 -101.26396,35.99496 -179.30857,9.51606 z" style="fill:#1e1e1b;fill-opacity:1;fill-rule:evenodd;stroke:none;stroke-width:1px;stroke-linecap:butt;stroke-linejoin:miter;stroke-opacity:1"/> <path id="path5027" d="m 232.58613,146.50044 c -12.01277,75.60278 -1.86992,162.28337 0,244.8275" style="fill:none;fill-rule:evenodd;stroke:#6c5844;stroke-width:1px;stroke-linecap:butt;stroke-linejoin:miter;stroke-opacity:1"/> <path id="path5029" d="m 172.39844,254.21094 c -9.66608,24.33874 -17.69125,42.92905 -25.82227,58.43164 -5.1626,11.77094 -13.26178,22.83802 -19.57226,36.86133 -16.57529,31.32775 -2.31263,38.95691 17.4082,36.43359 -9.4637,-4.01952 -16.39745,-10.85252 -8.80273,-32.18359 11.64889,-32.56746 24.19728,-66.03262 36.78906,-99.54297 z" style="fill:#bba692;fill-opacity:1;fill-rule:evenodd;stroke:none;stroke-width:1px;stroke-linecap:butt;stroke-linejoin:miter;stroke-opacity:1"/> <path id="path5031" d="m 285.88712,88.608934 c 6.34376,2.582454 1.79977,7.380763 -2.29526,5.865659 -10.52948,-4.370611 -22.03546,-5.811691 -33.91881,-6.120688 -5.11432,0.541246 -5.78881,-4.661006 -1.02012,-5.355601 15.3381,-1.474593 26.59477,1.715303 37.23419,5.61063 z" style="fill:#bba692;fill-opacity:1;fill-rule:evenodd;stroke:none;stroke-width:1px;stroke-linecap:butt;stroke-linejoin:miter;stroke-opacity:1"/> <path id="path5033" d="m 209.23929,83.949031 c 8.97558,-2.549356 17.65689,-3.038757 26.15215,-2.225871 3.73719,-0.135587 -2.34538,8.939569 -5.10057,7.395831 -8.75598,-3.027719 -17.51197,0.127942 -26.26795,0.510058 z" style="fill:#bba692;fill-opacity:1;fill-rule:evenodd;stroke:none;stroke-width:1px;stroke-linecap:butt;stroke-linejoin:miter;stroke-opacity:1"/> <path id="path5035" d="m 243.0423,78.917845 c 0.0836,-4.675525 0.49484,-9.351051 4.59052,-14.026576 7.24107,-8.079999 11.74883,2.392126 8.67097,6.375717 -3.97378,4.749084 -8.55277,5.821141 -13.26149,7.650859 z" style="fill:none;fill-rule:evenodd;stroke:#4e4031;stroke-width:1px;stroke-linecap:butt;stroke-linejoin:miter;stroke-opacity:1"/> <path id="path5037" d="m 242.53225,87.078762 c 7.69989,4.185111 14.47642,9.601354 19.12715,17.852008 2.72635,5.00115 -5.85637,10.91306 -7.14081,3.06034 -1.92778,-6.97078 -7.10264,-13.941565 -11.98634,-20.912348 z" style="fill:none;fill-rule:evenodd;stroke:#4e4031;stroke-width:1px;stroke-linecap:butt;stroke-linejoin:miter;stroke-opacity:1"/> <path id="path5039" d="m 235.9015,86.823733 c -6.22855,18.395207 13.07845,28.476507 26.26795,40.549557 6.83868,6.57408 14.17085,13.19171 5.10058,18.36206" style="fill:none;fill-rule:evenodd;stroke:#4e4031;stroke-width:1px;stroke-linecap:butt;stroke-linejoin:miter;stroke-opacity:1"/> <path id="path5041" d="m 230.29087,92.689392 c -10.10189,5.534167 -16.90969,13.044798 -15.04669,25.757898 -0.25892,9.61534 -5.82865,16.39825 -13.26149,22.18749" style="fill:none;fill-rule:evenodd;stroke:#4e4031;stroke-width:1px;stroke-linecap:butt;stroke-linejoin:miter;stroke-opacity:1"/> <path id="path5043" d="m 150.75796,22.303032 c -18.55275,6.713106 -24.44057,19.758679 -23.80389,36.066498 -11.03049,15.142687 -5.59208,23.504064 -0.72133,32.099183 -0.35895,9.940787 5.17939,14.574007 14.4266,15.869257 27.59041,15.76085 49.29787,17.29836 60.23105,-7.213298 l 6.22148,-8.836291 c -27.63054,8.277962 -54.30323,18.359779 -67.53452,-17.131587 -1.97269,-18.217823 4.72996,-34.507793 11.18061,-50.853762 z" style="fill:#cbb095;fill-opacity:1;fill-rule:evenodd;stroke:none;stroke-width:1px;stroke-linecap:butt;stroke-linejoin:miter;stroke-opacity:1"/> <path id="path5045" d="m 148.86328,23.03125 c -10.09401,4.084055 -16.12331,10.198888 -19.24023,17.771484 2.48472,5.147419 5.6985,10.051273 10.61328,14.388672 1.64678,-9.76622 5.11304,-19.128516 8.77344,-28.447265 -0.0794,-1.225862 -0.11994,-2.467204 -0.14649,-3.712891 z" style="fill:#dc4d29;fill-opacity:1;fill-rule:evenodd;stroke:none;stroke-width:1px;stroke-linecap:butt;stroke-linejoin:miter;stroke-opacity:1"/> <path id="path5047" d="m 139.27734,64.666016 c -5.3998,2.704038 -11.20167,2.589498 -17.07422,1.984375 -3.17836,7.845518 -1.39218,13.646883 1.38282,19.041015 6.67048,-2.929191 13.266,-5.325376 19.44726,-4.830078 -1.23245,-2.310964 -2.39176,-4.852868 -3.45508,-7.705078 -0.31157,-2.87741 -0.38686,-5.701194 -0.30078,-8.490234 z" style="fill:#dc4d29;fill-opacity:1;fill-rule:evenodd;stroke:none;stroke-width:1px;stroke-linecap:butt;stroke-linejoin:miter;stroke-opacity:1"/> <path id="path5049" d="m 155.35742,94.796875 c -5.29643,6.345415 -15.05037,6.959805 -25.00781,7.312505 2.47883,2.2715 5.98155,3.62215 10.31055,4.22851 6.227,3.55714 12.14926,6.38135 17.7207,8.35352 9.80258,-5.08854 18.14262,-10.67441 24.53319,-17.224918 -9.92313,1.836807 -19.71664,2.159625 -27.55663,-2.669617 z" style="fill:#dc4d29;fill-opacity:1;fill-rule:evenodd;stroke:none;stroke-width:1px;stroke-linecap:butt;stroke-linejoin:miter;stroke-opacity:1"/> <path id="path5051" d="m 150.4669,22.556513 10.96623,0.765086 c 3.18411,15.767289 2.59659,21.727358 15.55675,30.34841 26.31494,-1.02135 1.99595,6.8298 43.6099,-8.160917 -0.99084,14.122231 1.2238,36.458152 -14.02657,45.3951 -57.88882,23.083748 -84.67308,-5.918149 -56.10631,-68.347679 z" style="fill:#cbb095;fill-opacity:1;fill-rule:evenodd;stroke:none;stroke-width:1px;stroke-linecap:butt;stroke-linejoin:miter;stroke-opacity:1"/> <path id="path5053" d="m 155.21484,52.203125 c -10.2308,3.950899 -13.06361,14.688656 -14.42968,26.773437 2.61434,8.252754 7.98154,14.067106 15.74414,17.177735 1.0508,-9.315952 2.15738,-18.610505 7.41015,-26.392578 -4.41141,-4.44692 -7.52232,-10.109587 -8.72461,-17.558594 z" style="fill:#c7593e;fill-opacity:1;fill-rule:evenodd;stroke:none;stroke-width:1px;stroke-linecap:butt;stroke-linejoin:miter;stroke-opacity:1"/> <path id="path5055" d="m 206.52539,68.345703 c -0.64585,0.62195 -1.27954,1.233907 -1.99219,1.900391 -4.94568,6.816675 -10.89357,8.623807 -17.26953,8.289062 -1.38115,7.137651 -4.01407,13.274687 -6.43555,19.580078 7.68506,-1.073875 16.29687,-3.443742 25.74415,-7.210937 0.25602,-0.150034 0.49576,-0.305458 0.74218,-0.458985 1.83255,-7.665635 3.14646,-15.257983 -0.78906,-22.099609 z" style="fill:#c7593e;fill-opacity:1;fill-rule:evenodd;stroke:none;stroke-width:1px;stroke-linecap:butt;stroke-linejoin:miter;stroke-opacity:1"/> <path id="path5057" d="m 156.41587,44.359018 c -1.76197,3.234805 -3.68124,6.375228 -3.11272,11.008325 15.18304,29.805865 38.86207,29.73742 51.67798,16.833949 3.63661,-4.904283 4.37688,-8.843116 5.20624,-12.811648 -34.85963,8.037771 -44.99366,-0.712577 -53.7715,-15.030626 z" style="fill:#c6773c;fill-opacity:1;fill-rule:evenodd;stroke:none;stroke-width:1px;stroke-linecap:butt;stroke-linejoin:miter;stroke-opacity:1"/> <path id="path5061" d="m 120.11849,0.62404949 c 24.48096,-16.14285549 92.68677,-22.45830249 125.72913,0 C 245.54632,6.0165968 242.46117,13.850854 234.1163,18.986112 204.49774,26.189281 167.92752,27.151587 136.69536,20.261256 126.064,14.736666 124.48164,7.4022788 120.11849,0.62404949 Z" style="fill:#656f59;fill-opacity:1;fill-rule:evenodd;stroke:none;stroke-width:1px;stroke-linecap:butt;stroke-linejoin:miter;stroke-opacity:1"/> <path id="path5059" d="m 165.00422,10.942085 c 2.09728,0.928206 4.86505,2.268915 6.49198,5.590307 2.68328,6.228865 1.83567,12.962142 1.26232,19.656241 0.28381,1.637275 0.38311,3.597426 2.52466,1.983657 1.95428,-10.134142 6.80779,-19.788289 11.18061,-26.14821 4.90253,-4.3202957 9.01402,-5.0377247 6.49197,3.426317 -2.74844,9.024953 -4.28103,18.657828 -6.1313,28.131868 -0.50136,3.856059 1.61417,1.95499 3.42632,0.72133 10.11265,-11.425801 7.69365,-25.614657 12.08227,-30.836855 1.63786,-2.394864 13.93327,-9.3910927 9.55762,2.344322 -5.27934,15.881103 -14.49619,38.652824 -9.01662,35.705833 2.95935,-8.564535 6.89876,-14.923926 8.11496,-27.410539 3.24599,-6.622611 6.49197,-9.546941 9.73796,-8.475627 -2.48645,6.987746 -4.47591,15.34223 -5.04931,27.590871 0.0101,2.171827 -0.17261,4.883424 2.16399,0.540998 2.76331,-10.563878 7.32977,-24.401039 15.86925,-21.459567 -5.75363,8.209085 -7.53073,24.190898 -14.60692,31.918851 -7.65169,10.223934 -45.66922,19.732377 -62.93605,-5.04931 -3.2333,-5.113296 0.28891,-18.383128 5.95098,-25.787546 0.29384,-2.721035 -1.14687,-6.482805 -3.24599,-10.639616 -2.02066,-4.2960386 2.97855,-3.5055036 6.1313,-1.803325 z" style="fill:#d28a50;fill-opacity:1;fill-rule:evenodd;stroke:none;stroke-width:1px;stroke-linecap:butt;stroke-linejoin:miter;stroke-opacity:1"/> <path id="path5063" d="M 134.4001,9.8050809 C 145.0629,0.77572916 228.41,2.9338623 236.92162,10.315138" style="fill:none;fill-rule:evenodd;stroke:#31362b;stroke-width:1px;stroke-linecap:butt;stroke-linejoin:miter;stroke-opacity:1"/> <path id="path5077" d="m 281.67935,-61.010578 c 10.23369,24.419846 19.9249,39.911747 20.91857,51.4849259 l 1.80332,4.3279797 -7.2133,1.5328261 c -1.77705,-3.6103683 -1.53138,-10.5919347 -10.09862,-2.8853198 -7.37565,7.6168264 -17.0398,11.9643665 -27.7712,14.7872641 -4.13896,-10.8796389 -5.66902,-23.183753 -14.06594,-31.738518 3.95083,-6.044057 8.68644,-10.518543 15.5086,-10.819949 1.38644,-12.451398 8.95971,-20.965715 20.91857,-26.689209 z" style="fill:#ddbd9f;fill-opacity:1;fill-rule:evenodd;stroke:none;stroke-width:1px;stroke-linecap:butt;stroke-linejoin:miter;stroke-opacity:1"/> <path id="path5079" d="m 379.2276,-57.522483 c -27.57392,12.660708 -46.71104,29.406228 -64.77727,46.670243 -2.81037,1.5150009 -9.91295,-1.551341 -13.40337,-2.076478 l 2.07382,7.9858931 c 4.08046,-0.9401827 10.0544,-0.9853422 14.13486,1.7414446 9.75704,9.0626523 26.8618,15.8644643 40.54956,23.7176643 9.81965,-14.0066376 22.64982,-27.0869575 26.77801,-42.844813 2.25222,-8.044188 5.67786,-10.319322 5.3556,-16.576862 -4.68499,-21.118456 -7.33485,-17.564409 -10.71121,-18.617092 z" style="fill:#ddbd9f;fill-opacity:1;fill-rule:evenodd;stroke:none;stroke-width:1px;stroke-linecap:butt;stroke-linejoin:miter;stroke-opacity:1"/> <path id="path5081" d="m 284.43359,-54.597656 c -6.63537,0.650705 -13.27087,4.115817 -19.90625,8.429687 -1.98116,3.486992 -3.27195,7.412121 -3.76562,11.845703 -6.82216,0.301406 -11.55894,4.776256 -15.50977,10.820313 4.92927,5.021928 7.47837,11.344904 9.5918,17.9042968 12.63262,-11.7729318 25.83343,-22.6380608 40.86831,-24.5016838 -3.01396,-7.052069 -7.11288,-14.906043 -11.27847,-24.498316 z" style="fill:#dc4d29;fill-opacity:1;fill-rule:evenodd;stroke:none;stroke-width:1px;stroke-linecap:butt;stroke-linejoin:miter;stroke-opacity:1"/> <path id="path5083" d="m 341.49219,-34.535156 c -5.56667,4.295786 -10.81376,8.746733 -15.86719,13.291015 17.36987,5.949216 32.83562,17.425709 42.87644,31.34128 4.43393,-5.7718996 8.78998,-11.951001 12.22266,-18.0309801 C 369.89681,-18.498137 356.07028,-28.659364 341.49219,-34.535156 Z" style="fill:#dc4d29;fill-opacity:1;fill-rule:evenodd;stroke:none;stroke-width:1px;stroke-linecap:butt;stroke-linejoin:miter;stroke-opacity:1"/> <path id="path5085" d="m 379.22852,-57.523438 c -8.30956,3.815374 -15.84351,8.009054 -22.82227,12.46875 8.78789,1.114593 17.83483,1.790262 21.57031,11.455079 3.78464,-1.638176 7.56888,-1.293562 11.35352,-0.433594 0.4559,-1.439319 0.70727,-2.972061 0.60937,-4.873047 -4.68499,-21.118456 -7.33457,-17.564504 -10.71093,-18.617188 z" style="fill:#dc4d29;fill-opacity:1;fill-rule:evenodd;stroke:none;stroke-width:1px;stroke-linecap:butt;stroke-linejoin:miter;stroke-opacity:1"/> <path id="path5087" d="m 395.28881,-22.05876 c 21.66638,2.93742 42.83762,6.697203 56.62441,22.72189345 29.5138,21.38586155 20.98867,41.54466155 22.72189,62.03437555 5.94287,17.578369 3.17271,30.800219 3.96731,45.804451 1.01854,11.81811 -0.94669,22.81311 -27.41053,27.04987 -28.45536,13.11379 -56.53117,17.37528 -84.03494,8.2953 -0.73426,-21.10213 2.94501,-41.10088 28.85319,-55.542407 L 354.17301,56.20554 c 1.22348,-29.786408 13.93235,-56.1697367 41.1158,-78.2643 z" style="fill:#e3c9b0;fill-opacity:1;fill-rule:evenodd;stroke:none;stroke-width:1px;stroke-linecap:butt;stroke-linejoin:miter;stroke-opacity:1"/> <path id="path5089" d="m 395.28906,-22.058594 c -27.18345,22.09456355 -43.29729,48.874178 -41.2054,82.230987 l 15.43978,7.810029 2.32226,0.125 c 0.68986,-36.333018 12.14587,-66.3540705 38.08008,-87.888672 -4.80086,-0.88924 -9.70317,-1.608478 -14.63672,-2.277344 z" style="fill:#dc4d29;fill-opacity:1;fill-rule:evenodd;stroke:none;stroke-width:1px;stroke-linecap:butt;stroke-linejoin:miter;stroke-opacity:1"/> <path id="path5091" d="m 404.36914,-20.734375 c -1.62799,23.1328821 -8.34214,47.537385 -1.86719,68.644531 2.18236,14.603591 5.5746,17.112012 8.65625,22.722656 -2.30201,7.676385 -12.17296,7.782233 -20.91797,9.015626 l 10.81836,11.18164 c 9.56358,-1.113681 20.3645,0.552919 26.33008,-8.65625 1.67741,-4.017679 1.32409,-8.846955 -1.80469,-14.787109 -6.2257,-23.797134 -0.64096,-54.975678 0.25,-83.220703 -6.78712,-2.244056 -14.03632,-3.721634 -21.46484,-4.900391 z" style="fill:#dc4d29;fill-opacity:1;fill-rule:evenodd;stroke:none;stroke-width:1px;stroke-linecap:butt;stroke-linejoin:miter;stroke-opacity:1"/> <path id="path5093" d="m 441.24414,-8.6230469 c 6.30843,21.4894869 10.14122,42.9792629 6.3418,64.4687499 -15.92375,12.00902 -16.31246,29.933215 -20.19727,46.164067 -28.38938,7.1569 -39.72156,19.18779 -55.54297,29.93554 l -4.75586,6.86914 c -0.004,0.8725 0.002,1.74774 0.0176,2.625 25.69745,1.53515 49.69059,-9.70882 73.625,-21.39648 7.55428,-5.57532 10.80035,-13.8495 7.93555,-31.738282 21.95612,-16.851734 19.76949,-43.8626 20.22461,-69.798829 -3.35575,-5.873154 -8.65191,-11.8082913 -16.97852,-17.8417965 -3.18854,-3.7061101 -6.77664,-6.7515034 -10.66992,-9.2871094 z" style="fill:#dc4d29;fill-opacity:1;fill-rule:evenodd;stroke:none;stroke-width:1px;stroke-linecap:butt;stroke-linejoin:miter;stroke-opacity:1"/> <path id="path5095" d="m 390.60017,58.730195 c 4.19569,3.242845 6.86101,2.277196 7.2133,-5.04931 -2.5252,-5.171723 -3.77136,-5.227237 -5.40998,-6.852635 4.78034,-9.856136 4.36332,-26.642087 6.49197,-40.0338119 -5.74954,17.7710649 -14.40199,35.9887299 -8.29529,51.9357569 z" style="fill:#bba692;fill-opacity:1;fill-rule:evenodd;stroke:none;stroke-width:1px;stroke-linecap:butt;stroke-linejoin:miter;stroke-opacity:1"/> <path id="path5097" d="m 432.01853,65.146298 c -0.38848,-3.874062 1.85916,-8.802569 4.84555,-14.026576 2.5395,-4.872985 7.30781,1.708242 4.08046,4.845545 -2.97534,4.309225 -5.95067,6.457467 -8.92601,9.181031 z" style="fill:#bba692;fill-opacity:1;fill-rule:evenodd;stroke:none;stroke-width:1px;stroke-linecap:butt;stroke-linejoin:miter;stroke-opacity:1"/> <circle r="5.1005731" cy="6.2346802" cx="294.55811" id="path5105" style="color:#000000;clip-rule:nonzero;display:inline;overflow:visible;visibility:visible;opacity:1;isolation:auto;mix-blend-mode:normal;color-interpolation:sRGB;color-interpolation-filters:linearRGB;solid-color:#000000;solid-opacity:1;fill:#923018;fill-opacity:1;fill-rule:evenodd;stroke:none;stroke-width:1px;stroke-linecap:butt;stroke-linejoin:miter;stroke-miterlimit:4;stroke-dasharray:none;stroke-dashoffset:0;stroke-opacity:1;color-rendering:auto;image-rendering:auto;shape-rendering:auto;text-rendering:auto;enable-background:accumulate"/> <path id="path5143" d="m 228.7607,447.68927 c -6.251,-1.80193 -8.11566,5.79199 -3.06034,8.92601 47.88565,19.68571 83.14232,-1.85231 123.94392,-7.39583 l -0.51006,-14.53664 c -38.37108,12.05635 -76.23852,26.46077 -120.37352,13.00646 z" style="fill:#442a13;fill-opacity:1;fill-rule:evenodd;stroke:none;stroke-width:1px;stroke-linecap:butt;stroke-linejoin:miter;stroke-opacity:1"/> <path id="path5159" d="m 264.72809,-46.583979 c -1.67343,12.272282 2.87408,24.528634 6.31164,36.7878276 -4.16546,-11.8166386 -8.82256,-19.6938236 -18.61612,-21.5014456 2.7651,-2.311604 5.2114,-3.288791 7.9765,-3.204105 -0.576,-5.709644 2.15172,-8.666182 4.32798,-12.082277 z" style="fill:#cc4421;fill-opacity:1;fill-rule:evenodd;stroke:none;stroke-width:1px;stroke-linecap:butt;stroke-linejoin:miter;stroke-opacity:1"/> <path id="path5161" d="m 378.72656,179.05273 10.00977,190.19141 c 7.62114,0.95202 15.64567,1.45371 23.78711,1.49414 L 399.80078,179.41602 c -6.81608,0.20679 -13.84756,0.11233 -21.07422,-0.36329 z" style="fill:#e0c5aa;fill-opacity:1;fill-rule:evenodd;stroke:none;stroke-width:1px;stroke-linecap:butt;stroke-linejoin:miter;stroke-opacity:1"/> <path id="path5163" d="m 428.81836,176.79297 c -7.01795,1.02854 -14.34688,1.83538 -21.96094,2.29687 l 9.99024,191.62305 c 8.13291,-0.11908 16.31751,-0.69018 24.26953,-1.70117 L 428.81836,176.79297 Z" style="fill:#7e7057;fill-opacity:1;fill-rule:evenodd;stroke:none;stroke-width:1px;stroke-linecap:butt;stroke-linejoin:miter;stroke-opacity:1"/> <path id="path5165" d="m 444.19615,174.36232 14.49476,196.11955" style="fill:none;fill-rule:evenodd;stroke:#616161;stroke-width:1px;stroke-linecap:butt;stroke-linejoin:miter;stroke-opacity:1"/> <path id="path5167" d="M 466.70243,370.87347 453.5047,172.4496" style="fill:none;fill-rule:evenodd;stroke:#616161;stroke-width:1px;stroke-linecap:butt;stroke-linejoin:miter;stroke-opacity:1"/> <path id="path5169" d="m 492.50391,163.05273 c -1.52287,0.30197 -3.09946,0.63917 -4.7168,0.99805 l 9.69727,184.73633 c 2.46161,-2.18887 4.50704,-4.53838 6.07226,-7.04883 L 492.50391,163.05273 Z" style="fill:#a3a592;fill-opacity:1;fill-rule:evenodd;stroke:none;stroke-width:1px;stroke-linecap:butt;stroke-linejoin:miter;stroke-opacity:1"/> <path id="path5171" d="m 354.70703,176.06641 4.42188,186.15234 c 4.42957,1.74529 9.34561,3.22141 14.62304,4.42773 l -8.23242,-188.88476 c -3.56252,-0.46264 -7.16621,-1.02362 -10.8125,-1.69531 z" style="fill:#6b7069;fill-opacity:1;fill-rule:evenodd;stroke:none;stroke-width:1px;stroke-linecap:butt;stroke-linejoin:miter;stroke-opacity:1"/> <path id="path5173" d="m 335.00391,171.42773 11.39062,183.98633 c 1.33393,0.98493 2.7757,1.92153 4.32422,2.81055 l -10.5957,-185.38867 c -1.69786,-0.44151 -3.4056,-0.91591 -5.11914,-1.40821 z" style="fill:#e0c5aa;fill-opacity:1;fill-rule:evenodd;stroke:none;stroke-width:1px;stroke-linecap:butt;stroke-linejoin:miter;stroke-opacity:1"/> <path id="path5139" d="m 296.34329,376.28125 c -4.05036,6.91004 -2.46878,12.55103 -0.51006,18.10704 -13.96302,2.12166 -8.04202,7.55733 -6.63074,12.24137 8.36899,16.02581 44.03495,6.46073 66.05242,9.69109 l -17.59698,-59.6767 z" style="fill:#42271b;fill-opacity:1;fill-rule:evenodd;stroke:none;stroke-width:1px;stroke-linecap:butt;stroke-linejoin:miter;stroke-opacity:1"/> <path id="path5177" d="m 292.85996,-156.94746 c -18.03084,7.27461 -13.13092,26.01461 -19.11524,39.31248 -8.9895,-4.5942 -16.93658,-6.81929 -15.5086,12.26261 1.99428,15.755071 12.22865,16.207125 20.55791,20.197239 -1.64763,8.664968 -0.39322,15.25705 4.68864,19.115244 11.67045,19.941574 21.74856,18.60723 29.57453,18.393914 14.66704,6.01448 29.33409,13.660045 44.00113,5.770639 13.28306,-3.513213 19.56664,-12.026054 26.32854,-20.197238 8.40612,-14.217365 2.85257,-19.844166 -0.72133,-26.689209 -7.62909,-12.005889 -5.19134,-21.495069 -1.44266,-30.656519 0.91413,-9.18145 -2.76805,-13.00053 -7.57396,-15.5086 -22.80623,-23.82722 -52.52766,-19.99364 -80.78896,-22.00056 z" style="fill:#d99d72;fill-opacity:1;fill-rule:evenodd;stroke:none;stroke-width:1px;stroke-linecap:butt;stroke-linejoin:miter;stroke-opacity:1"/> <path id="path5211" d="m 373.36194,-76.139575 c -3.07211,-1.965297 0.82805,-3.232172 2.42278,-1.147629 5.53876,7.189159 1.84841,12.400652 -1.91272,17.596977 2.28425,-5.483116 4.20874,-10.966232 -0.51006,-16.449348 z" style="fill:#b7835e;fill-opacity:1;fill-rule:evenodd;stroke:none;stroke-width:1px;stroke-linecap:butt;stroke-linejoin:miter;stroke-opacity:1"/> <path id="path5203" d="m 358.6978,-83.407891 c -2.05246,1.295177 -3.92806,1.121929 -3.18786,3.825429 14.14817,7.056067 20.05404,-0.311907 26.26795,-7.140802 -7.28576,4.692036 -14.18144,12.816759 -23.08009,3.315373 z" style="fill:#000000;fill-opacity:1;fill-rule:evenodd;stroke:#000000;stroke-width:1px;stroke-linecap:butt;stroke-linejoin:miter;stroke-opacity:1"/> <path id="path5179" d="m 266.50494,-97.561982 c -3.0463,0.54788 -6.08953,-17.309828 -0.25503,-19.254658 4.11528,5.50973 8.00169,13.07932 12.75143,12.87894 -5.95975,2.87948 -4.82126,4.744923 -3.82543,6.630747 -1.89934,2.689745 -5.08232,1.785298 -8.67097,-0.255029 z" style="fill:#a67857;fill-opacity:1;fill-rule:evenodd;stroke:none;stroke-width:1px;stroke-linecap:butt;stroke-linejoin:miter;stroke-opacity:1"/> <path id="path5181" d="m 331.53725,-96.541866 c -2.23076,3.802711 -4.55521,7.622987 3.82543,9.43606 2.70109,-0.181858 5.41017,-0.382376 6.12068,4.080458 1.86761,4.434801 19.18859,5.072915 17.34195,-7.905888 -2.74486,-10.591804 -14.77881,-18.574284 2.46908,-24.154134" style="fill:none;fill-rule:evenodd;stroke:#000000;stroke-width:1px;stroke-linecap:butt;stroke-linejoin:miter;stroke-opacity:1"/> <path id="path5185" d="m 342.75851,-128.16542 c 0.22427,5.15483 1.60105,11.46215 -1.7852,13.00646" style="fill:none;fill-rule:evenodd;stroke:#8f6140;stroke-width:1px;stroke-linecap:butt;stroke-linejoin:miter;stroke-opacity:1"/> <path id="path5187" d="m 351.17445,-126.89028 c -0.76508,3.87401 1.23671,9.32908 -2.55028,11.47629" style="fill:none;fill-rule:evenodd;stroke:#8f6140;stroke-width:1px;stroke-linecap:butt;stroke-linejoin:miter;stroke-opacity:1"/> <path id="path5189" d="m 373.82925,-115.65132 c -1.24331,-8.08338 -8.91412,-6.52551 -15.68893,-6.31164 4.68557,-2.05586 11.31698,-1.88793 12.98394,-7.39363 5.27927,5.1938 3.99805,9.45038 2.70499,13.70527 z" style="fill:#000000;fill-rule:evenodd;stroke:#000000;stroke-width:1px;stroke-linecap:butt;stroke-linejoin:miter;stroke-opacity:1"/> <path id="path5191" d="m 298.63855,-115.5415 c 0.0686,-16.98957 17.03202,-3.36739 23.84518,0.63757 l 3.82543,-1.7852 c -14.25349,-11.12879 -28.36269,-21.84531 -30.98598,0.25503 0.3976,1.18194 0.31736,2.96118 3.31537,0.8926 z" style="fill:#000000;fill-rule:evenodd;stroke:#000000;stroke-width:1px;stroke-linecap:butt;stroke-linejoin:miter;stroke-opacity:1"/> <path id="path5193" d="m 335.36268,-113.62879 c -4.99196,-4.69009 -13.71548,-4.99331 -16.19432,4.97306 -1.02387,5.01137 3.17831,6.82169 7.39583,7.52334 9.61226,0.50872 12.40969,-6.36757 8.79849,-12.4964 z" style="fill:#ffffff;fill-rule:evenodd;stroke:#1a1a1a;stroke-width:1px;stroke-linecap:butt;stroke-linejoin:miter;stroke-opacity:1"/> <ellipse ry="3.3791296" rx="3.0603437" cy="-105.53162" cx="332.30234" id="path5195" style="color:#000000;clip-rule:nonzero;display:inline;overflow:visible;visibility:visible;opacity:1;isolation:auto;mix-blend-mode:normal;color-interpolation:sRGB;color-interpolation-filters:linearRGB;solid-color:#000000;solid-opacity:1;fill:#000000;fill-opacity:1;fill-rule:evenodd;stroke:#000000;stroke-width:1px;stroke-linecap:butt;stroke-linejoin:miter;stroke-miterlimit:4;stroke-dasharray:none;stroke-dashoffset:0;stroke-opacity:1;color-rendering:auto;image-rendering:auto;shape-rendering:auto;text-rendering:auto;enable-background:accumulate"/> <path id="path5197" d="m 362.2682,-115.28647 c -10.54376,1.95456 -10.47855,6.63713 -9.30855,11.6038 1.5233,3.45753 4.34398,5.041079 8.92601,4.080459 7.28763,-2.526039 11.64232,-12.334779 0.38254,-15.684259 z" style="fill:#ffffff;fill-rule:evenodd;stroke:#1a1a1a;stroke-width:1px;stroke-linecap:butt;stroke-linejoin:miter;stroke-opacity:1"/> <ellipse ry="2.7415581" rx="2.8053153" cy="-103.6189" cx="363.03329" id="path5199" style="color:#000000;clip-rule:nonzero;display:inline;overflow:visible;visibility:visible;opacity:1;isolation:auto;mix-blend-mode:normal;color-interpolation:sRGB;color-interpolation-filters:linearRGB;solid-color:#000000;solid-opacity:1;fill:#000000;fill-opacity:1;fill-rule:evenodd;stroke:#000000;stroke-width:1px;stroke-linecap:butt;stroke-linejoin:miter;stroke-miterlimit:4;stroke-dasharray:none;stroke-dashoffset:0;stroke-opacity:1;color-rendering:auto;image-rendering:auto;shape-rendering:auto;text-rendering:auto;enable-background:accumulate"/> <path id="path5201" d="m 333.70499,-86.59575 c -11.08869,1.581497 -22.6189,12.287915 -32.77118,-5.483116 2.53828,20.750725 21.71288,10.245319 34.30135,12.113861 5.89712,-0.71933 3.57537,-6.492002 -1.53017,-6.630745 z" style="fill:#000000;fill-opacity:1;fill-rule:evenodd;stroke:#000000;stroke-width:1px;stroke-linecap:butt;stroke-linejoin:miter;stroke-opacity:1"/> <path id="path5205" d="m 310.24235,-71.549059 c -0.95446,1.567287 -0.65531,2.382411 1.7852,1.912715 14.21531,-10.651245 56.69761,-3.535523 54.70365,4.973058 2.90401,3.7678 2.80805,0.260506 2.80531,-0.510057 -0.1738,-11.701453 -44.87073,-16.451725 -59.29416,-6.375716 z" style="fill:#34251b;fill-opacity:1;fill-rule:evenodd;stroke:none;stroke-width:1px;stroke-linecap:butt;stroke-linejoin:miter;stroke-opacity:1"/> <path id="path5207" d="m 320.06096,-55.992312 c -0.28783,3.660243 3.76518,2.945949 5.61063,0.892601 8.27939,-11.282125 23.53998,-13.131388 27.92563,5.355601 0.97108,3.109428 4.32464,1.668012 3.31538,0 -3.32547,-22.062017 -22.6712,-20.83389 -34.55639,-10.32866 -1.95147,1.953344 -2.37142,3.14093 -2.29525,4.080458 z" style="fill:#b7835e;fill-opacity:1;fill-rule:evenodd;stroke:none;stroke-width:1px;stroke-linecap:butt;stroke-linejoin:miter;stroke-opacity:1"/> <path id="path5209" d="m 306.79947,-77.287204 c 1.13103,-0.0052 5.68212,-3.106815 2.29525,3.442887 -3.38174,5.170297 -2.11707,9.17899 -0.12751,13.006461 0.1354,3.23544 -0.86249,3.297666 -2.42277,1.785201 -4.02838,-5.882307 -2.81936,-12.014015 0.25503,-18.234549 z" style="fill:#b7835e;fill-opacity:1;fill-rule:evenodd;stroke:none;stroke-width:1px;stroke-linecap:butt;stroke-linejoin:miter;stroke-opacity:1"/> <path id="path5213" d="m 334.51677,-73.092855 c 7.09891,5.623546 14.51201,5.748606 22.09073,2.975486 -7.36358,0.691257 -14.72715,-0.06335 -22.09073,-2.975486 z" style="fill:#34251b;fill-opacity:1;fill-rule:evenodd;stroke:none;stroke-width:1px;stroke-linecap:butt;stroke-linejoin:miter;stroke-opacity:1"/> <path id="path5215" d="m 302.46398,-107.5081 c 3.9843,-2.20039 7.83137,-2.61022 11.47629,-0.38254" style="fill:none;fill-rule:evenodd;stroke:#8f6140;stroke-width:1px;stroke-linecap:butt;stroke-linejoin:miter;stroke-opacity:1"/> <path id="path5217" d="m 318.78581,-102.66255 c -9.86877,-1.01084 -17.90089,-0.32632 -18.99963,6.758255" style="fill:none;fill-rule:evenodd;stroke:#8f6140;stroke-width:1px;stroke-linecap:butt;stroke-linejoin:miter;stroke-opacity:1"/> <path id="path5219" d="m 362.90577,-98.072039 c 8.78557,-1.071191 14.50501,1.498655 17.85201,6.885774" style="fill:none;fill-rule:evenodd;stroke:#8f6140;stroke-width:1px;stroke-linecap:butt;stroke-linejoin:miter;stroke-opacity:1"/> <path id="path5221" d="m 284.10192,-152.39314 c -2.03365,-5.46901 -6.14197,-7.94128 -14.28161,-4.59052 0.87044,-21.7855 -24.13747,-11.82899 -24.99281,-3.5704 -5.22051,3.5017 -12.44844,5.49783 -9.94611,14.79166 -11.3305,0.87702 -18.29216,4.56259 -10.71121,17.59698 0.0201,11.5579 -2.56068,25.0231 17.08692,22.18749 -0.29522,5.5069 -3.06223,29.97937 18.87212,10.20115 -3.56584,-18.22972 -3.47605,-31.4172 12.49641,-22.69755 7.09442,16.83545 27.96528,13.91255 12.24137,1.27514 9.05469,-5.88585 5.32337,-11.09876 1.7852,-16.32183 -3.0805,-3.87443 -7.30767,-6.50664 -2.55028,-18.87212 z" style="fill:#000000;fill-rule:evenodd;stroke:#000000;stroke-width:1px;stroke-linecap:butt;stroke-linejoin:miter;stroke-opacity:1"/> <path id="path5227" d="m 299.07126,-185.42046 c -10.97952,-4.20777 -23.73627,-3.63828 -23.97269,-36.72412 0.80447,-18.428 -29.78937,-55.16241 3.5704,-48.9655 25.52221,6.25407 51.32074,22.63498 80.07899,21.4224 15.95994,-1.33829 23.93648,5.30681 29.07327,14.79167 26.67018,23.49436 34.11679,45.06636 48.45544,67.32756 1.82625,9.27703 5.0679,18.20021 -3.5704,30.09338 -6.13463,8.82705 -25.68675,4.23661 -53.55601,-8.67097 z" style="fill:#ddc9aa;fill-opacity:1;fill-rule:evenodd;stroke:none;stroke-width:1px;stroke-linecap:butt;stroke-linejoin:miter;stroke-opacity:1"/> <path id="path5225" d="m 284.45422,-151.17341 c -7.44875,-7.58761 -3.464,-9.52102 -1.31629,-12.3629 15.50411,-12.7005 22.13549,-29.00552 23.57343,-47.42036 42.39536,9.28829 38.26113,62.9132 73.45785,60.89107 1.32386,6.87925 3.21256,15.35356 -2.8447,18.97688 -27.34073,-21.57494 -62.55242,-25.54003 -92.87029,-20.08469 z" style="fill:#cebb9e;fill-opacity:1;fill-rule:evenodd;stroke:none;stroke-width:1px;stroke-linecap:butt;stroke-linejoin:miter;stroke-opacity:1"/> <path id="path5229" d="m 271.01811,-264.98939 c 43.68939,5.99749 97.72656,76.81298 157.6077,127.00426 l -7.1408,1.02012 C 365.39157,-174.04085 299.13682,-265.3708 271.01811,-264.98939 Z" style="fill:#bdac92;fill-opacity:1;fill-rule:evenodd;stroke:none;stroke-width:1px;stroke-linecap:butt;stroke-linejoin:miter;stroke-opacity:1"/> <path id="path5231" d="m 381.05922,-151.58165 c -23.97444,-8.30511 -38.15123,-42.32903 -57.12642,-63.75717 15.86511,21.96978 25.26276,52.89451 48.9655,64.01219 z" style="fill:#bdac92;fill-opacity:1;fill-rule:evenodd;stroke:none;stroke-width:1px;stroke-linecap:butt;stroke-linejoin:miter;stroke-opacity:1"/> <path id="path5233" d="m 304.27314,-262.5394 -0.32227,0.008 c 11.33429,5.81642 23.26033,11.3788 31.37695,18.57422 7.66902,-9.1304 11.41487,-4.13915 16.95118,-5.5918 l -0.0195,-0.16602 c -16.78003,-0.76762 -32.58303,-6.94604 -47.98632,-12.82421 z" style="fill:#cfbda1;fill-opacity:1;fill-rule:evenodd;stroke:none;stroke-width:1px;stroke-linecap:butt;stroke-linejoin:miter;stroke-opacity:1"/> <path id="path5127" d="m 308.07461,497.41986 c -4.00089,-1.65251 -19.30284,0.0171 -10.45618,10.96623 39.82485,31.05832 102.4383,2.51031 135.54773,-30.85846 2.26484,-4.45013 -2.90953,-7.10484 -8.0334,-4.84555 -38.16751,31.40334 -73.45468,34.78367 -117.05815,24.73778 z" style="fill:#442a13;fill-opacity:1;fill-rule:evenodd;stroke:none;stroke-width:1px;stroke-linecap:butt;stroke-linejoin:miter;stroke-opacity:1"/> <path id="path5125" d="m 345.30879,456.10522 c -14.2036,8.26993 -25.67832,13.85071 -39.52944,29.07327 -8.25521,11.72772 -4.75349,12.5089 -4.59051,16.57686 24.67935,27.85914 108.10659,-3.83222 114.50786,-20.65732 6.96095,-0.89618 10.39415,-5.17557 11.98635,-9.43606 4.41665,-13.4569 2.65497,-22.11941 0.76508,-27.28807 z" style="fill:#705535;fill-opacity:1;fill-rule:evenodd;stroke:none;stroke-width:1px;stroke-linecap:butt;stroke-linejoin:miter;stroke-opacity:1"/> <path id="path5137" d="m 340.80273,458.70312 c -7.59044,4.3479 -14.61153,8.35527 -21.74023,13.9961 l 60.39258,31.05469 c 11.79246,-4.25918 22.10843,-9.48373 28.76758,-14.46485 -9.41664,-15.8568 -31.00079,-26.43733 -67.41993,-30.58594 z" style="fill:#903222;fill-opacity:1;fill-rule:evenodd;stroke:none;stroke-width:1px;stroke-linecap:butt;stroke-linejoin:miter;stroke-opacity:1"/> <path id="path5135" d="m 329.91211,465.11328 c -4.98061,3.10469 -9.84788,6.5294 -14.89258,10.95899 l 48.33985,32.59179 c 12.22691,-3.0739 23.98272,-7.54467 33.29492,-12.33203 -8.21374,-15.73507 -27.96875,-27.08863 -66.74219,-31.21875 z" style="fill:#2a2511;fill-opacity:1;fill-rule:evenodd;stroke:none;stroke-width:1px;stroke-linecap:butt;stroke-linejoin:miter;stroke-opacity:1"/> <path id="path5133" d="m 317.83789,473.67773 c -3.8967,3.18178 -7.86826,6.89477 -12.05859,11.5 -0.57341,0.81461 -1.07795,1.56555 -1.54297,2.2793 l 41.26562,24.55859 c 12.64212,-1.49968 25.84966,-5.08286 37.38282,-9.53906 -7.64877,-14.15299 -27.50206,-23.43402 -65.04688,-28.79883 z" style="fill:#cd8f63;fill-opacity:1;fill-rule:evenodd;stroke:none;stroke-width:1px;stroke-linecap:butt;stroke-linejoin:miter;stroke-opacity:1"/> <path id="path5129" d="m 309.60742,481.16992 c -1.25971,1.26664 -2.53092,2.58217 -3.82812,4.00781 -8.25521,11.72772 -7.04809,13.27526 -4.58985,16.57813 11.24111,12.68946 34.66784,13.00546 57.45508,8.01758 -3.14381,-15.35546 -17.50795,-22.16121 -49.03711,-28.60352 z" style="fill:#5c3a1a;fill-opacity:1;fill-rule:evenodd;stroke:none;stroke-width:1px;stroke-linecap:butt;stroke-linejoin:miter;stroke-opacity:1"/> <path id="path5123" d="m 335.41843,357.3608 c -1.31887,28.49011 1.05355,54.47542 26.32854,64.91969 -12.06187,6.14276 -36.99629,24.69691 -15.50859,35.70583 30.26113,3.11181 65.0662,13.29199 78.98563,-9.01662 13.83884,-12.5075 0.91387,-16.09373 -7.2133,-21.27923 13.30113,-15.95472 11.38939,-34.59407 8.65596,-53.37842 z" style="fill:#4d2e1f;fill-opacity:1;fill-rule:evenodd;stroke:none;stroke-width:1px;stroke-linecap:butt;stroke-linejoin:miter;stroke-opacity:1"/> <path id="path5153" d="m 362.14068,421.67635 c 10.8013,-6.02522 17.81177,-20.36562 23.71767,-32.89869 -4.53258,32.6018 -48.74842,66.36239 -24.22772,71.15299 -38.36023,-1.42012 -29.71773,-22.05745 0.51005,-38.2543 z" style="fill:#392217;fill-opacity:1;fill-rule:evenodd;stroke:none;stroke-width:1px;stroke-linecap:butt;stroke-linejoin:miter;stroke-opacity:1"/> <path id="path5155" d="m 426.4079,375.51617 c 9.55257,28.01315 -31.39348,55.96329 -25.75789,58.40156 0.4633,7.73246 12.14189,9.94332 15.04669,6.12068 6.60254,-3.65025 3.06291,-8.22251 2.80532,-12.4964 14.87563,-18.18611 12.46637,-35.18015 7.90588,-52.02584 z" style="fill:#392217;fill-opacity:1;fill-rule:evenodd;stroke:none;stroke-width:1px;stroke-linecap:butt;stroke-linejoin:miter;stroke-opacity:1"/> <path id="path5065" d="m 120.37352,-11.362297 c -7.90074,-0.415127 -19.64278,13.4685163 1.14763,14.6641473 6.48516,-17.9486543 87.621,-15.3174563 114.25284,-7.6508595 6.93628,2.5502865 9.38503,4.71803007 9.56357,7.2683166 5.61157,-1.4572006 16.50013,0.2127046 4.84555,-11.4762893 -7.56585,-6.3713031 -15.1317,-5.2542381 -22.69755,-5.8656591 -24.95308,-13.318422 -51.28567,-20.36634 -83.6494,0 -5.68865,2.619289 -12.38421,4.4833909 -23.46264,3.060344 z" style="fill:#bc6113;fill-opacity:1;fill-rule:evenodd;stroke:none;stroke-width:1px;stroke-linecap:butt;stroke-linejoin:miter;stroke-opacity:1"/> <ellipse ry="8.2884312" rx="12.751432" cy="85.763618" cx="345.29068" id="path5435" style="color:#000000;clip-rule:nonzero;display:inline;overflow:visible;visibility:visible;opacity:1;isolation:auto;mix-blend-mode:normal;color-interpolation:sRGB;color-interpolation-filters:linearRGB;solid-color:#000000;solid-opacity:1;fill:#bba692;fill-opacity:1;fill-rule:evenodd;stroke:none;stroke-width:1px;stroke-linecap:butt;stroke-linejoin:miter;stroke-miterlimit:4;stroke-dasharray:none;stroke-dashoffset:0;stroke-opacity:1;color-rendering:auto;image-rendering:auto;shape-rendering:auto;text-rendering:auto;enable-background:accumulate"/> <path id="path5067" d="m 356.18414,83.783227 c -13.2444,3.600788 -27.49487,1.982313 -39.59334,11.527909 -2.2507,2.913703 -5.10731,5.311184 -10.64132,5.427634 -5.69406,-0.34132 -16.86203,-7.623664 -9.85992,8.13397 2.03688,2.93167 3.70862,3.96907 5.36735,4.93902 -1.58446,14.39672 9.34881,10.00711 12.69885,7.9411 -1.23272,13.57418 5.36495,10.06662 8.45374,14.21358 -1.91678,7.39197 3.19485,9.42105 8.87616,11.01547 1.95853,7.85057 7.83833,4.53243 12.72603,4.04001 12.01376,-2.56995 18.82059,-7.52681 25.64537,-12.47542 4.83061,-3.77897 4.38075,-9.03768 3.45168,-14.43069 -1.12061,-9.71839 0.43728,-10.81102 0.95656,-15.24835 -4.29032,-11.775186 -10.27497,-20.219947 -18.08116,-25.084233 z" style="fill:#d28a50;fill-opacity:1;fill-rule:evenodd;stroke:none;stroke-width:1px;stroke-linecap:butt;stroke-linejoin:miter;stroke-opacity:1"/> <path id="path5071" d="m 359.10156,58.548828 c -1.47894,0.01399 -3.11934,0.397537 -5.11328,1.259766 -7.61483,4.237444 -14.49413,8.761405 -19.61914,13.970703 -5.57734,6.355722 -7.23848,11.151381 -7.38476,15.871094 2.83921,-1.012066 5.73566,-1.722058 8.66406,-2.271485 -2.94358,-14.789535 13.63315,-2.359841 15.42383,-0.634765 18.00772,18.210139 30.1208,38.624499 15.37304,53.054689 l -1.3125,8.04883 c 12.96722,-14.92677 40.20034,-31.87544 42.14844,-45.86719 -5.91201,-16.745506 -21.57259,-27.386675 -38.70898,-39.326173 -3.74229,-2.379247 -6.21703,-4.136237 -9.47071,-4.105469 z m -32.11718,31.101563 c -0.015,0.48252 -0.0103,0.964741 0.004,1.447265 -0.0141,-0.482756 -0.0189,-0.964478 -0.004,-1.447265 z m 0.0215,1.853515 c 0.016,0.359536 0.0356,0.720469 0.0645,1.082032 -0.0287,-0.361563 -0.0486,-0.722492 -0.0645,-1.082032 z m 0.10156,1.515625 c 0.0235,0.255164 0.0535,0.514508 0.082,0.771485 -0.0285,-0.257624 -0.0586,-0.515687 -0.082,-0.771485 z" style="fill:#e3c9b0;fill-opacity:1;fill-rule:evenodd;stroke:none;stroke-width:1px;stroke-linecap:butt;stroke-linejoin:miter;stroke-opacity:1"/> <path id="path5075" d="m 385.86031,75.196002 c -6.85965,9.296812 -14.93852,17.139071 -24.05738,23.741359 5.34125,6.956509 9.26878,13.967289 10.66825,20.620619 11.03634,-8.39049 20.12767,-18.46839 28.83717,-28.877191 -4.08329,-5.692569 -9.41526,-10.695092 -15.44804,-15.484787 z" style="fill:#d05435;fill-opacity:1;fill-rule:evenodd;stroke:none;stroke-width:1px;stroke-linecap:butt;stroke-linejoin:miter;stroke-opacity:1"/> <path id="path5117" d="m 336.50042,154.66708 c -16.68287,10.98882 -11.16668,17.32134 -10.09862,17.67258 39.46903,12.04464 84.51869,8.63877 125.15075,4.32798 53.83804,-8.0916 58.9622,-16.9213 49.77177,-25.96788 -16.31028,-11.52072 -35.40374,-16.08349 -55.54241,-18.03325 -46.53721,-5.30403 -81.96906,3.27363 -109.28149,22.00057 z" style="fill:#5c705c;fill-opacity:1;fill-rule:evenodd;stroke:none;stroke-width:1px;stroke-linecap:butt;stroke-linejoin:miter;stroke-opacity:1"/> <path id="path5109" d="m 485.09439,222.83276 -19.11524,4.32798 c -6.39734,-47.42107 8.4467,-148.038245 -55.54241,-156.167936 l -33.36151,-1.983658 c 0.92567,-6.877788 25.52201,-8.747813 39.13215,-6.311637 22.37866,4.475531 44.32594,9.647906 54.46041,33.902508 20.18811,30.892683 14.07862,80.910883 14.4266,126.232743 z" style="fill:#363c2e;fill-opacity:1;fill-rule:evenodd;stroke:none;stroke-width:1px;stroke-linecap:butt;stroke-linejoin:miter;stroke-opacity:1"/> <circle r="3.8771484" cy="185.23343" cx="474.72528" id="path5111" style="color:#000000;clip-rule:nonzero;display:inline;overflow:visible;visibility:visible;opacity:1;isolation:auto;mix-blend-mode:normal;color-interpolation:sRGB;color-interpolation-filters:linearRGB;solid-color:#000000;solid-opacity:1;fill:#10100e;fill-opacity:1;fill-rule:evenodd;stroke:none;stroke-width:1px;stroke-linecap:butt;stroke-linejoin:miter;stroke-miterlimit:4;stroke-dasharray:none;stroke-dashoffset:0;stroke-opacity:1;color-rendering:auto;image-rendering:auto;shape-rendering:auto;text-rendering:auto;enable-background:accumulate"/> <circle r="4.1476474" cy="201.83948" cx="474.85919" id="path5113" style="color:#000000;clip-rule:nonzero;display:inline;overflow:visible;visibility:visible;opacity:1;isolation:auto;mix-blend-mode:normal;color-interpolation:sRGB;color-interpolation-filters:linearRGB;solid-color:#000000;solid-opacity:1;fill:#10100e;fill-opacity:1;fill-rule:evenodd;stroke:none;stroke-width:1px;stroke-linecap:butt;stroke-linejoin:miter;stroke-miterlimit:4;stroke-dasharray:none;stroke-dashoffset:0;stroke-opacity:1;color-rendering:auto;image-rendering:auto;shape-rendering:auto;text-rendering:auto;enable-background:accumulate"/> <circle r="3.8771484" cy="217.69328" cx="475.26627" id="path5115" style="color:#000000;clip-rule:nonzero;display:inline;overflow:visible;visibility:visible;opacity:1;isolation:auto;mix-blend-mode:normal;color-interpolation:sRGB;color-interpolation-filters:linearRGB;solid-color:#000000;solid-opacity:1;fill:#10100e;fill-opacity:1;fill-rule:evenodd;stroke:none;stroke-width:1px;stroke-linecap:butt;stroke-linejoin:miter;stroke-miterlimit:4;stroke-dasharray:none;stroke-dashoffset:0;stroke-opacity:1;color-rendering:auto;image-rendering:auto;shape-rendering:auto;text-rendering:auto;enable-background:accumulate"/> <path id="path5121" d="m 336.50042,341.49154 c -17.94873,4.975 -7.03296,14.56927 -1.08199,19.4759 54.6567,34.40422 151.88153,25.81079 178.1685,-17.31191 4.68089,-9.11911 -1.95359,-20.55794 -7.2133,-13.70527 -57.10883,46.96082 -113.72615,50.17733 -169.87321,11.54128 z" style="fill:#111e0f;fill-opacity:1;fill-rule:evenodd;stroke:none;stroke-width:1px;stroke-linecap:butt;stroke-linejoin:miter;stroke-opacity:1"/> <path id="path5069" d="m 313.6234,104.84359 c -2.52212,0.74879 -8.3562,2.57879 -11.68978,8.74643 -0.80873,10.02265 2.5573,10.32788 6.20756,9.97153 -9.57292,-9.8776 -0.40935,-13.77568 5.48222,-18.71796 z" style="fill:#ba7d4b;fill-opacity:1;fill-rule:evenodd;stroke:none;stroke-width:1px;stroke-linecap:butt;stroke-linejoin:miter;stroke-opacity:1"/> </g> <g transform="matrix(1.7873854,0,0,1.7873854,1561.6897,816.02906)" style="display:inline" id="g5920"> <path id="path4814" d="m -539.93494,1.829917 5.3882,9.052175 c 1.44919,7.024857 -0.80345,11.581819 -6.25031,14.009316 -7.23386,1.790484 -14.92118,1.724678 -23.27702,-1.077637 l -6.89689,-17.8888253 z" style="fill:#28170b;fill-opacity:1;fill-rule:evenodd;stroke:none;stroke-width:1px;stroke-linecap:butt;stroke-linejoin:miter;stroke-opacity:1"/> <path style="fill:#502d16;fill-opacity:1;fill-rule:evenodd;stroke:none;stroke-width:1px;stroke-linecap:butt;stroke-linejoin:miter;stroke-opacity:1" d="m -540.15046,-0.32536282 5.3882,9.05217532 c 1.44919,7.0248565 -0.80346,11.5818185 -6.25031,14.0093155 -7.23386,1.790484 -14.92119,1.724678 -23.27702,-1.077637 l -6.8969,-17.8888251 z" id="path4816"/> <path id="path4810" d="m -604.80886,12.390785 c -13.17604,5.548362 -12.52712,10.759524 -2.15528,15.733546 11.93633,3.633484 21.68002,3.61258 30.17392,1.508693 7.57236,9.316499 20.14145,-1.471183 19.18199,-7.759008 1.42536,-8.492375 -2.70692,-10.315589 -6.89689,-12.0695666 z" style="fill:#502d16;fill-rule:evenodd;stroke:none;stroke-width:1px;stroke-linecap:butt;stroke-linejoin:miter;stroke-opacity:1"/> <path id="path4812" d="m -596.70301,11.87002 -8.10591,0.52055 c -13.17605,5.548361 -12.52759,10.759272 -2.15575,15.733295 11.93632,3.633484 21.68064,3.613022 30.17455,1.509135 6.46328,7.951974 16.55991,1.258454 18.78424,-4.783016 l -0.0338,-0.389829 c -2.68461,0.33114 -8.75714,12.261272 -19.397,2.802345 -7.09659,2.619113 -24.52942,4.27186 -32.11319,-5.38877 -2.77883,-7.043215 2.20799,-10.124793 13.79347,-9.697914 -0.3158,-0.10003 -0.63097,-0.204237 -0.94656,-0.305796 z" style="fill:#28170b;fill-rule:evenodd;stroke:none;stroke-width:1px;stroke-linecap:butt;stroke-linejoin:miter;stroke-opacity:1"/> <path id="path4798" d="m -553.72873,-234.38873 c -11.32408,0.79593 -17.68095,7.70536 -21.55279,17.67328 -2.55942,4.75055 -5.99782,6.86412 -9.69876,8.19007 -4.31147,1.23276 -5.79669,7.23147 -5.81926,12.2851 l 0,7.97453 c -1.54424,4.91389 -1.19407,9.07001 5.81926,10.56087 10.03286,3.34595 9.57135,5.13829 11.63851,9.91428 l 35.13106,5.17267 8.83665,-10.12981 z" style="fill:#deaa87;fill-rule:evenodd;stroke:none;stroke-width:1px;stroke-linecap:butt;stroke-linejoin:miter;stroke-opacity:1"/> <circle transform="matrix(0.59758497,0,0,0.59758497,-973.57721,-301.16763)" r="15.508594" cy="170.53635" cx="659.65625" id="path4837" style="color:#000000;clip-rule:nonzero;display:inline;overflow:visible;visibility:visible;opacity:0.19500002;isolation:auto;mix-blend-mode:normal;color-interpolation:sRGB;color-interpolation-filters:linearRGB;solid-color:#000000;solid-opacity:1;fill:#800000;fill-opacity:1;fill-rule:evenodd;stroke:none;stroke-width:1px;stroke-linecap:butt;stroke-linejoin:miter;stroke-miterlimit:4;stroke-dasharray:none;stroke-dashoffset:0;stroke-opacity:1;filter:url(#filter4983);color-rendering:auto;image-rendering:auto;shape-rendering:auto;text-rendering:auto;enable-background:accumulate"/> <path id="path4832" d="m -564.72055,-199.25722 c 2.95197,13.52165 9.35829,29.36103 -18.63718,22.11531 8.35708,2.9989 8.06725,4.85026 10.01539,9.35128 l 35.13146,5.17284 2.40785,-2.76033 -28.91752,-33.8791 z" style="fill:#ce9e7d;fill-opacity:1;fill-rule:evenodd;stroke:none;stroke-width:1px;stroke-linecap:butt;stroke-linejoin:miter;stroke-opacity:1"/> <path id="path4742" d="m -567.97262,-109.77547 c 12.17123,-4.66436 25.18746,-5.85614 38.50685,-4.77972 -2.50523,11.91893 -6.01533,23.739967 -3.57227,36.208703 4.18691,11.101247 10.04695,21.903718 -1.29317,35.777645 3.10361,9.339542 6.53038,18.67909 -0.43106,28.018632 -1.94937,2.380994 -3.03728,4.6542968 -0.43105,6.4658398 4.87107,4.6822455 -0.09,8.05353909 -3.44845,11.6385111 -4.38069,4.1369612 -10.5476,2.0221439 -15.94907,2.5863358 -3.90225,4.3281223 -8.62076,7.5678993 -15.94907,7.3279513 -10.7573,-1.883988 -19.80323,-0.915661 -28.88075,0 -8.89582,-0.208808 -6.43207,-5.7633006 -6.03478,-10.3453431 -0.7254,-3.63328075 1.10773,-5.3476684 2.58634,-7.3279514 -12.12924,-2.6439789 -18.23357,-23.8519465 -18.10435,-36.6397515 0.60124,-7.210771 -1.20946,-12.009593 -3.44845,-16.380126 -3.94753,-8.554399 1.75088,-19.378432 7.32795,-30.173918 1.98022,-5.356513 5.36484,-4.627298 9.05218,-2.586336 -9.78567,13.555265 0.85458,20.825639 4.74161,30.173918 4.14517,7.544743 7.0544,5.613904 9.48323,0 2.85309,-7.554114 7.55346,-7.719089 12.06957,-8.62112 -3.06557,-3.688025 0.38293,-5.007301 3.44845,-6.465839 8.11382,-1.118356 6.05855,-6.930133 7.32795,-11.207455 6.75338,-6.106572 5.29639,-14.734836 2.99834,-23.669976 z" style="fill:#61633c;fill-opacity:1;fill-rule:evenodd;stroke:none;stroke-width:1px;stroke-linecap:butt;stroke-linejoin:miter;stroke-opacity:1"/> <path id="path4744" d="m -619.89581,-59.595555 c 0.10158,2.74353 20.45141,23.251505 20.79845,20.475155 -0.49795,1.358126 -2.28165,2.430534 -0.43106,4.31056 l 3.77174,4.418328 0.21553,2.047511 c -6.38914,-2.252686 -6.5479,-6.582171 -9.05218,-10.129812 -8.8796,-7.040579 -13.00131,-14.081163 -15.30248,-21.121742 z" style="fill:#414228;fill-opacity:1;fill-rule:evenodd;stroke:none;stroke-width:1px;stroke-linecap:butt;stroke-linejoin:miter;stroke-opacity:1"/> <path id="path4746" d="m -620.88303,-44.773333 c 0.05,1.229573 0.0265,2.532679 -0.0899,3.928656 -0.12921,12.787804 5.97455,33.9954492 18.10379,36.639428 -0.0164,0.021991 -0.0336,0.043445 -0.0502,0.065364 1.31941,0.3616464 2.73344,0.6316712 4.25312,0.7971664 l 1.83128,-1.9398146 c -17.53156,-4.5634397 -19.59371,-23.1076428 -24.04813,-39.4907998 z" style="fill:#414228;fill-opacity:1;fill-rule:evenodd;stroke:none;stroke-width:1px;stroke-linecap:butt;stroke-linejoin:miter;stroke-opacity:1"/> <path id="path4748" d="m -569.63857,-50.340924 c -1.20949,-3.504699 2.20136,-5.335095 3.19369,-2.573261 1.92095,3.973265 4.22844,7.630264 9.2677,9.052176 4.57636,0.781198 8.02117,5.445511 7.54349,9.483225 -0.97901,8.761187 -2.74668,17.250784 -6.03479,25.2167769 -0.73783,2.1795358 -0.72812,3.1484242 -0.43105,4.3105596 1.19638,4.15925117 2.06429,7.3103825 3.66397,10.7763932 l -2.58634,0.215531 c -3.99219,-5.990132 -7.26309,-11.8861862 -4.74161,-17.0267077 2.87191,-7.185666 6.70302,-13.745022 6.68137,-23.061497 -0.0495,-3.614433 -1.29794,-5.598959 -4.31056,-6.034784 -5.32347,-1.590538 -9.7854,-4.473383 -12.24587,-10.358412 z" style="fill:#414228;fill-opacity:1;fill-rule:evenodd;stroke:none;stroke-width:1px;stroke-linecap:butt;stroke-linejoin:miter;stroke-opacity:1"/> <path id="path4750" d="m -548.01723,-42.568848 0.75434,2.586336 c 10.74785,-1.69392 15.96114,-7.262026 18.10435,-14.97919 l -4.95715,4.849378 c -0.90535,5.776011 -7.57864,7.185015 -13.90154,7.543476 z" style="fill:#414228;fill-opacity:1;fill-rule:evenodd;stroke:none;stroke-width:1px;stroke-linecap:butt;stroke-linejoin:miter;stroke-opacity:1"/> <path id="path4752" d="m -543.88178,-14.585085 c -2.89412,0.89578 -2.60519,5.5732689 0.76201,4.495835 3.33257,-2.10629 4.48772,-5.029114 6.32465,-7.696267 -2.27709,1.134916 -3.90519,2.789019 -7.08666,3.200432 z" style="fill:#414228;fill-opacity:1;fill-rule:evenodd;stroke:none;stroke-width:1px;stroke-linecap:butt;stroke-linejoin:miter;stroke-opacity:1"/> <path id="path4754" d="m -563.64301,-13.903623 c -0.0493,4.8792935 -1.03044,10.0070685 3.01739,13.79379115 1.45779,2.97811255 -2.63636,3.98614275 -3.34068,1.29316795 -3.15291,-4.5398829 -2.24757,-9.6885077 0.32329,-15.0869591 z" style="fill:#414228;fill-opacity:1;fill-rule:evenodd;stroke:none;stroke-width:1px;stroke-linecap:butt;stroke-linejoin:miter;stroke-opacity:1"/> <path id="path4756" d="m -582.2107,-68.535145 c 8.55314,2.792717 11.9302,-4.296176 17.67855,-6.858059 -4.62549,6.383785 -5.24659,14.500812 -28.19424,12.954112 3.02853,-4.211486 6.70551,-5.458287 10.51569,-6.096053 z" style="fill:#414228;fill-opacity:1;fill-rule:evenodd;stroke:none;stroke-width:1px;stroke-linecap:butt;stroke-linejoin:miter;stroke-opacity:1"/> <path id="path4758" d="m -532.68028,-101.45382 c -6.28577,8.963101 -13.24522,17.906246 -10.82049,27.127425 1.99765,3.366638 4.36302,3.32112 4.41963,1.524015 -1.52818,-10.113833 2.87102,-19.315763 6.40086,-28.65144 z" style="fill:#414228;fill-opacity:1;fill-rule:evenodd;stroke:none;stroke-width:1px;stroke-linecap:butt;stroke-linejoin:miter;stroke-opacity:1"/> <path id="path4760" d="m -588.61156,-146.56461 c -13.3121,3.57964 -20.19252,11.98304 -23.7746,22.8602 -3.83938,6.41713 -6.02886,12.45442 0.60961,16.45934 3.58354,6.1138 -0.86619,12.970571 -0.032,15.800871 2.43564,1.451367 3.34682,0.275367 3.3422,2.182745 -8.40246,9.183501 -0.39284,21.346799 5.83384,31.699206 3.49711,4.84918 6.71709,3.259963 7.57622,0.879011 3.82561,-9.126915 8.64097,-10.731664 13.49213,-11.644827 -2.45421,-4.649528 2.30787,-5.499037 5.75428,-6.912738 4.54721,-1.543873 4.32304,-6.26477 5.10544,-10.820489 6.92526,-5.200889 5.61801,-14.574839 2.89562,-23.393589 11.789,-4.42889 24.02435,-6.25837 38.24811,-5.00614 -3.67289,11.17609 -5.29066,23.467466 -3.95741,33.043347 9.10938,-6.233403 27.96158,-16.06116 12.2679,-38.933907 -3.49992,-7.83752 1.21478,-16.77033 -13.10651,-23.165 -2.33682,-0.24682 -4.67364,-5.36929 -7.01046,-10.36328 -4.31707,2.44036 -11.32534,-0.5017 -17.98336,-2.74323 -10.2284,2.40338 -21.30349,3.11339 -29.26104,10.05848 z" style="fill:#e8d09d;fill-opacity:1;fill-rule:evenodd;stroke:none;stroke-width:1px;stroke-linecap:butt;stroke-linejoin:miter;stroke-opacity:1"/> <path id="path4762" d="m -541.01257,-152.70364 c 2.66065,6.41141 5.45758,9.82465 8.40558,9.91429 1.26481,23.2344 -10.81394,29.01954 -16.38012,43.321121 -1.91906,6.565182 -11.43568,4.637779 -8.40559,-3.879501 5.71917,-16.27922 15.24731,-30.01912 16.38013,-49.35591 z" style="fill:#732a17;fill-opacity:1;fill-rule:evenodd;stroke:none;stroke-width:1px;stroke-linecap:butt;stroke-linejoin:miter;stroke-opacity:1"/> <path id="path4764" d="m -588.69814,-146.39945 c 1.94682,-1.71618 3.58033,-2.59221 5.22656,-3.50232 4.99455,-1.62584 8.44405,1.16274 12.06956,3.44845 14.82914,10.66419 25.65149,23.55437 35.34659,37.0708 6.36725,9.96955 -5.02456,12.645254 -8.62112,7.54349 -10.02791,-15.65433 -24.22323,-30.63029 -44.02159,-44.56042 z" style="fill:#98381e;fill-opacity:1;fill-rule:evenodd;stroke:none;stroke-width:1px;stroke-linecap:butt;stroke-linejoin:miter;stroke-opacity:1"/> <path id="path4766" d="m -567.78973,-109.30249 c -0.70401,-5.23244 -4.02179,-10.69349 -7.86771,-15.92593 -0.90751,-2.39017 2.99118,-2.33945 4.26723,0.3048 2.78337,5.22889 5.04337,10.50558 5.25784,14.87817 z" style="fill:#bda27c;fill-opacity:1;fill-rule:evenodd;stroke:none;stroke-width:1px;stroke-linecap:butt;stroke-linejoin:miter;stroke-opacity:1"/> <path id="path4768" d="m -529.55938,-114.4583 c 1.51131,-1.9551 2.39779,-5.03275 3.20271,-7.69425 1.16404,-2.48899 -4.03758,-4.78857 -3.77174,1.02376 0.41212,2.31138 -0.0292,4.69516 -0.61829,6.57743 z" style="fill:#bda27c;fill-opacity:1;fill-rule:evenodd;stroke:none;stroke-width:1px;stroke-linecap:butt;stroke-linejoin:miter;stroke-opacity:1"/> <ellipse ry="4.1910357" rx="3.0861261" cy="-112.42673" cx="-546.89172" id="path4770" style="color:#000000;clip-rule:nonzero;display:inline;overflow:visible;visibility:visible;opacity:1;isolation:auto;mix-blend-mode:normal;color-interpolation:sRGB;color-interpolation-filters:linearRGB;solid-color:#000000;solid-opacity:1;fill:#d45500;fill-opacity:1;fill-rule:evenodd;stroke:none;stroke-width:1px;stroke-linecap:butt;stroke-linejoin:miter;stroke-miterlimit:4;stroke-dasharray:none;stroke-dashoffset:0;stroke-opacity:1;color-rendering:auto;image-rendering:auto;shape-rendering:auto;text-rendering:auto;enable-background:accumulate"/> <ellipse style="color:#000000;clip-rule:nonzero;display:inline;overflow:visible;visibility:visible;opacity:1;isolation:auto;mix-blend-mode:normal;color-interpolation:sRGB;color-interpolation-filters:linearRGB;solid-color:#000000;solid-opacity:1;fill:#782121;fill-opacity:1;fill-rule:evenodd;stroke:none;stroke-width:0.37204191px;stroke-linecap:butt;stroke-linejoin:miter;stroke-miterlimit:4;stroke-dasharray:none;stroke-dashoffset:0;stroke-opacity:1;color-rendering:auto;image-rendering:auto;shape-rendering:auto;text-rendering:auto;enable-background:accumulate" id="ellipse4772" cx="-546.89172" cy="-112.42673" rx="1.1481682" ry="1.5592408"/> <ellipse transform="matrix(0.62112875,0.78370854,-0.78370854,0.62112875,0,0)" style="color:#000000;clip-rule:nonzero;display:inline;overflow:visible;visibility:visible;opacity:1;isolation:auto;mix-blend-mode:normal;color-interpolation:sRGB;color-interpolation-filters:linearRGB;solid-color:#000000;solid-opacity:1;fill:#d45500;fill-opacity:1;fill-rule:evenodd;stroke:none;stroke-width:1px;stroke-linecap:butt;stroke-linejoin:miter;stroke-miterlimit:4;stroke-dasharray:none;stroke-dashoffset:0;stroke-opacity:1;color-rendering:auto;image-rendering:auto;shape-rendering:auto;text-rendering:auto;enable-background:accumulate" id="ellipse4774" cx="-419.26077" cy="357.56705" rx="3.0861259" ry="4.1910353"/> <ellipse transform="matrix(0.62112875,0.78370854,-0.78370854,0.62112875,0,0)" ry="1.5592408" rx="1.1481682" cy="357.56705" cx="-419.26077" id="ellipse4776" style="color:#000000;clip-rule:nonzero;display:inline;overflow:visible;visibility:visible;opacity:1;isolation:auto;mix-blend-mode:normal;color-interpolation:sRGB;color-interpolation-filters:linearRGB;solid-color:#000000;solid-opacity:1;fill:#782121;fill-opacity:1;fill-rule:evenodd;stroke:none;stroke-width:0.37204191px;stroke-linecap:butt;stroke-linejoin:miter;stroke-miterlimit:4;stroke-dasharray:none;stroke-dashoffset:0;stroke-opacity:1;color-rendering:auto;image-rendering:auto;shape-rendering:auto;text-rendering:auto;enable-background:accumulate"/> <path id="path4778" d="m -602.43805,-164.55767 c -3.26468,-0.27327 -4.78733,0.45872 -2.58633,4.63385 3.46662,6.44626 8.7467,10.93957 15.94907,13.36273 8.93746,-6.27115 19.54672,-7.52691 29.85062,-9.69876 5.87811,1.71196 11.84844,4.53074 17.45777,3.01739 -0.31837,-2.5005 8.65331,-8.63363 7.54347,-13.57826 -6.59455,3.37063 -15.6188,1.88186 -25.64782,-1.61646 -5.84791,-3.44865 -13.79,-2.24353 -22.19938,0 -6.78914,3.20689 -13.57826,3.07544 -20.3674,3.87951 z" style="fill:#d3bc84;fill-opacity:1;fill-rule:evenodd;stroke:none;stroke-width:1px;stroke-linecap:butt;stroke-linejoin:miter;stroke-opacity:1"/> <path id="path4780" d="m -534.17835,-166.54178 c -2.87029,3.77137 -5.28112,7.9443 -10.28267,9.85082 -9.54724,1.86161 -20.32309,-7.657 -28.34209,-3.98701 6.45836,0.68106 11.42819,2.73542 15.98889,5.16817 5.09031,1.65172 10.20325,3.57459 15.04701,2.26779 -0.31242,-2.45381 8.31511,-8.40556 7.58886,-13.29977 z" style="fill:#bda27c;fill-opacity:1;fill-rule:evenodd;stroke:none;stroke-width:1px;stroke-linecap:butt;stroke-linejoin:miter;stroke-opacity:1"/> <path id="path4808" d="m -542.7368,-237.1906 c -7.04479,-7.58163 -15.61155,-2.98752 -24.35466,3.01739 2.23509,0.81224 5.29067,0.18865 5.3882,4.74162 -2.06147,0.26958 -4.29692,-1.02671 -5.81925,4.09503 1.47273,0.036 3.38906,-1.25872 3.23291,3.66397 -6.04174,-3.92222 -6.19353,2.25261 -8.62112,4.52609 2.54635,-0.94954 5.43035,-3.58733 6.8969,0.86211 -3.93853,-0.0376 -3.38935,2.98341 -5.60373,7.54348 -5.09295,26.48282 14.51138,40.78969 18.10435,43.32112 4.12125,0.12167 6.83346,4.00079 12.50063,0 -1.12046,1.8391 -1.96895,3.60048 0.86211,4.31056 2.85312,-0.52347 4.54425,-2.20895 4.52608,-5.60372 l -1.72422,7.11242 c 5.88441,-1.42343 4.43905,-5.0478 6.03478,-7.75901 2.27358,2.6779 3.73843,5.221 2.58634,7.32795 6.83772,-2.36171 5.41834,-7.35948 6.25031,-11.63851 z" style="fill:#502d16;fill-opacity:1;fill-rule:evenodd;stroke:none;stroke-width:1px;stroke-linecap:butt;stroke-linejoin:miter;stroke-opacity:1"/> <path id="path4782" d="m -529.37406,-234.60427 c -3.75884,-3.95555 -7.5705,-7.67335 -13.57827,-1.50869 -15.21057,16.47941 -12.58027,32.99401 -9.69876,44.18324 7.79327,24.43242 38.13721,31.97335 37.93292,10.99192 13.55093,-5.55922 22.86397,-15.35633 33.8379,-23.49255 9.39339,1.7055 16.1771,-3.34098 10.77639,-12.2851 -27.56163,-18.50769 -37.42287,-3.56275 -59.27018,-17.88882 z" style="fill:#d07c45;fill-opacity:1;fill-rule:evenodd;stroke:none;stroke-width:1px;stroke-linecap:butt;stroke-linejoin:miter;stroke-opacity:1"/> <path id="path4784" d="m -506.74363,-206.58563 c -2.15672,7.35126 -3.83719,14.91418 -10.99192,20.0441 l 1.72422,1.07764 c 9.12791,-7.04057 10.41747,-14.08116 9.2677,-21.12174 z" style="fill:#b8652f;fill-opacity:1;fill-rule:evenodd;stroke:none;stroke-width:1px;stroke-linecap:butt;stroke-linejoin:miter;stroke-opacity:1"/> <path id="path4786" d="m -515.14922,-180.9378 c -6.80426,3.49951 -13.82175,9.91325 -18.96646,-9.2677 -3.34165,-12.7206 -5.33337,-25.70248 8.83665,-41.81243 l -3.44845,-1.93975 c -10.0972,10.83704 -14.04183,23.43194 -12.06957,37.7174 5.09147,27.23076 14.86611,24.48929 25.64783,15.30248 z" style="fill:#aa5d2b;fill-opacity:1;fill-rule:evenodd;stroke:none;stroke-width:1px;stroke-linecap:butt;stroke-linejoin:miter;stroke-opacity:1"/> <path id="path4788" d="m -550.92686,-213.267 c -0.6422,19.64609 7.15431,30.45162 18.5354,37.50187" style="fill:none;fill-rule:evenodd;stroke:#834821;stroke-width:0.59758496px;stroke-linecap:butt;stroke-linejoin:miter;stroke-opacity:1"/> <path id="path4790" d="m -532.17593,-216.49992 c 9.23844,-9.18179 17.93121,-18.67539 31.03603,-25.64782" style="fill:none;fill-rule:evenodd;stroke:#000000;stroke-width:0.59758496px;stroke-linecap:butt;stroke-linejoin:miter;stroke-opacity:1"/> <path id="path4792" d="m -530.88276,-218.22414 c 6.59132,-16.93114 19.91913,-27.5749 39.44162,-32.43696 -0.45504,8.56257 -2.46634,16.69285 -13.14721,22.41491 -3.00323,2.69384 -9.37186,1.18093 -14.44037,1.29317 3.06865,1.8926 5.4318,4.63182 9.80652,4.95714 -5.29052,6.11166 -9.02471,2.57412 -12.93168,0.10776 0.0617,3.22183 2.56778,3.69384 4.84938,4.41833 -5.49718,3.63293 -9.46876,1.16345 -13.57826,-0.75435 z" style="fill:#e6e6e6;fill-rule:evenodd;stroke:none;stroke-width:1px;stroke-linecap:butt;stroke-linejoin:miter;stroke-opacity:1"/> <path id="path4794" d="m -491.44169,-250.6612 c -7.31781,1.8225 -13.76445,4.457 -19.31296,7.93084 l 0.99325,5.86264 13.79697,1.41926 c 3.32405,-4.56646 4.23524,-9.80279 4.52274,-15.21274 z" style="fill:#d40000;fill-rule:evenodd;stroke:none;stroke-width:1px;stroke-linecap:butt;stroke-linejoin:miter;stroke-opacity:1"/> <path id="path4821" d="m -608.63328,-90.186211 c 3.56914,1.4896 6.1157,3.416585 5.84841,7.934949 -0.52408,5.11348 8.13002,5.637873 12.6493,8.229671 1.42517,-1.056698 3.14688,-1.026077 5.18165,0.152402 1.25715,0.934109 0.12086,5.708419 -4.87685,3.810035 -5.5008,-3.621377 -14.96978,-6.421756 -15.24012,-11.125294 -0.1691,-3.011308 -1.06777,-5.502688 -4.66729,-6.496107 0.46635,-0.856046 1.36089,-1.393221 1.1049,-2.505656 z" style="fill:#bda27c;fill-opacity:1;fill-rule:evenodd;stroke:none;stroke-width:1px;stroke-linecap:butt;stroke-linejoin:miter;stroke-opacity:1"/> </g> </g> </svg>