<?xml version="1.0" encoding="UTF-8" standalone="no"?>
<!-- Created with Inkscape (http://www.inkscape.org/) -->

<svg
   xmlns:osb="http://www.openswatchbook.org/uri/2009/osb"
   xmlns:dc="http://purl.org/dc/elements/1.1/"
   xmlns:cc="http://creativecommons.org/ns#"
   xmlns:rdf="http://www.w3.org/1999/02/22-rdf-syntax-ns#"
   xmlns:svg="http://www.w3.org/2000/svg"
   xmlns="http://www.w3.org/2000/svg"
   xmlns:sodipodi="http://sodipodi.sourceforge.net/DTD/sodipodi-0.dtd"
   xmlns:inkscape="http://www.inkscape.org/namespaces/inkscape"
   version="1.1"
   id="svg2"
   xml:space="preserve"
   width="1066.6667"
   height="1066.6667"
   viewBox="0 0 1066.6667 1066.6667"
   sodipodi:docname="cook.svg"
   inkscape:version="0.92.4 (f8dce91, 2019-08-02)"><metadata
     id="metadata8"><rdf:RDF><cc:Work
         rdf:about=""><dc:format>image/svg+xml</dc:format><dc:type
           rdf:resource="http://purl.org/dc/dcmitype/StillImage" /></cc:Work></rdf:RDF></metadata><defs
     id="defs6"><linearGradient
       id="linearGradient1314"
       osb:paint="solid"><stop
         style="stop-color:#000000;stop-opacity:1;"
         offset="0"
         id="stop1312" /></linearGradient><clipPath
       clipPathUnits="userSpaceOnUse"
       id="clipPath18"><path
         d="M 0,800 H 800 V 0 H 0 Z"
         id="path16"
         inkscape:connector-curvature="0" /></clipPath><clipPath
       clipPathUnits="userSpaceOnUse"
       id="clipPath154"><path
         d="M 0,800 H 800 V 0 H 0 Z"
         id="path152"
         inkscape:connector-curvature="0" /></clipPath></defs><sodipodi:namedview
     pagecolor="#ffffff"
     bordercolor="#666666"
     borderopacity="1"
     objecttolerance="10"
     gridtolerance="10"
     guidetolerance="10"
     inkscape:pageopacity="0"
     inkscape:pageshadow="2"
     inkscape:window-width="1317"
     inkscape:window-height="713"
     id="namedview4"
     showgrid="false"
     inkscape:zoom="0.62578945"
     inkscape:cx="626.0163"
     inkscape:cy="563.69502"
     inkscape:window-x="49"
     inkscape:window-y="27"
     inkscape:window-maximized="1"
     inkscape:current-layer="g10" /><g
     id="g10"
     inkscape:groupmode="layer"
     inkscape:label="19456-NS525C"
     transform="matrix(1.3333333,0,0,-1.3333333,0,1066.6667)"><g
       id="g148"><g
         id="g150"
         clip-path="url(#clipPath154)"><g
           id="g156"
           transform="translate(554.7725,479.826)"><path
             d="m 0,0 2.598,-3.251 c 2.184,-2.733 5.603,-4.175 9.085,-3.832 l 8.572,0.844 c 2.877,0.283 5.372,-1.978 5.372,-4.869 v -11.595 c 0,0 25.575,1.582 29.29,5.75 1.61,1.807 2.324,3.715 2.617,5.297 0.398,2.15 2.213,3.747 4.392,3.915 l 23.141,1.789 c 2.057,0.159 4.042,0.826 5.776,1.942 L 97.076,0 Z"
             style="fill:#fea55d;fill-opacity:1;fill-rule:nonzero;stroke:none"
             id="path158"
             inkscape:connector-curvature="0" /></g><g
           id="g160"
           transform="translate(273.8633,416.3395)"><path
             d="m 0,0 c -0.29,-1.12 -0.8,-2.17 -1.49,-3.1 l -6.38,-8.64 c -1.68,-2.27 -2.32,-5.14 -1.78,-7.91 l 2.4,-12.22 -23.08,-4.14 c 0,0 -3.55,18.68 -7.1,22.5 -3.55,3.83 -25.44,15.45 -36.09,15.85 -7.23,0.28 -15.41,5.38 -19.92,8.63 -1.98,1.43 -2.51,4.16 -1.2,6.22 0.88,1.38 2.38,2.14 3.9,2.14 0.85,0 1.7,-0.23 2.47,-0.72 l 6.6,-4.21 c 0.67,-0.43 1.36,-0.79 2.07,-1.1 0,0 0.03,-0.02 0.09,-0.05 3.73,-1.61 8,-1.68 11.84,-0.12 0.29,0.12 0.44,0.39 0.44,0.65 0,0.1 -0.02,0.21 -0.07,0.3 -0.05,0.12 -0.14,0.22 -0.26,0.3 l -1.86,1.2 -5.9,3.81 c -1.73,1.11 -3.14,2.66 -4.1,4.48 l -8.98,17.04 c -0.68,1.28 -0.62,2.83 0.15,4.06 0.81,1.27 2.12,1.89 3.43,1.89 1.51,0 3.02,-0.83 3.72,-2.43 l 2.84,-6.48 3.77,-6.79 c 0.55,-1 1.19,-1.95 1.92,-2.82 l 0.01,-0.01 c 0.63,-0.76 1.32,-1.46 2.06,-2.11 l 5.92,-5.17 c 0.56,-0.49 1.4,-0.52 1.99,-0.06 0.39,0.3 0.61,0.76 0.61,1.24 0,0.14 -0.02,0.27 -0.05,0.4 -0.01,0.04 -0.02,0.09 -0.04,0.13 l -4.27,12.02 c -1.62,4.54 -2.31,9.35 -2.05,14.16 l 0.32,5.84 c 0.1,1.8 1.31,3.36 3.03,3.92 0.45,0.14 0.9,0.21 1.34,0.21 2.25,0 4.24,-1.76 4.36,-4.16 l 0.67,-13.69 c 0.03,-0.59 0.08,-1.18 0.15,-1.76 l 0.01,-0.01 c 0.3,-2.61 1,-5.16 2.09,-7.56 l 0.68,-1.51 c 0.49,-1.08 1.56,-1.8 2.74,-1.87 0.06,-0.01 0.13,-0.01 0.19,-0.01 0.7,0 1.37,0.23 1.9,0.63 0.54,0.4 0.96,0.96 1.16,1.63 l 3.43,11.08 c 0.89,2.89 3.56,4.85 6.57,4.85 h 0.65 c 1.88,0 3.74,-0.41 5.44,-1.21 l 5.23,-2.47 c 1.47,-0.69 2.23,-2.34 1.81,-3.91 -0.4,-1.47 -1.74,-2.47 -3.23,-2.47 -0.12,0 -0.25,0.01 -0.37,0.02 l -5.4,1.73 c -1.53,0.49 -3.16,-0.4 -3.57,-1.96 l -0.65,-2.51 c -1.11,-2.61 -1.1,-5.55 0.01,-8.15 0.84,-1.97 2.02,-3.74 3.46,-5.25 0.24,-0.26 0.49,-0.5 0.75,-0.74 0.25,-0.24 0.52,-0.48 0.79,-0.7 2.16,-1.78 4.72,-3.04 7.53,-3.64 l 5.7,-1.22 c 1.17,-0.25 2.38,0.21 3.1,1.16 0.41,0.55 0.62,1.21 0.62,1.86 0,0.71 -0.25,1.42 -0.74,1.99 l -3.24,3.78 c -1.66,1.94 -2.65,4.36 -2.83,6.9 l -0.41,5.69 c -0.13,1.84 0.28,3.68 1.19,5.28 0.4,0.7 0.96,1.27 1.63,1.66 0.67,0.4 1.45,0.61 2.25,0.61 0.91,0 1.78,-0.28 2.5,-0.77 0.72,-0.48 1.3,-1.18 1.64,-2.03 l 0.65,-1.63 1.78,-10.21 0.12,-0.41 c 1.48,-4.9 4,-9.41 7.4,-13.24 l 3.35,-3.78 C 0.04,7.93 1.02,3.84 0,0"
             style="fill:#fea55d;fill-opacity:1;fill-rule:nonzero;stroke:none"
             id="path162"
             inkscape:connector-curvature="0" /></g><g
           id="g164"
           transform="translate(261.6733,429.9795)"><path
             d="m 0,0 c 0,0 -48.66,-18.54 -55.48,-0.51 0.29,0.12 0.44,0.39 0.44,0.65 0,0.1 -0.02,0.21 -0.07,0.3 l 2.72,6.97 2.55,1.58 9.22,5.71 12.98,-2.74 c 0.84,-1.97 2.02,-3.74 3.46,-5.25 0.24,-0.26 0.49,-0.5 0.75,-0.74 0.25,-0.24 0.52,-0.48 0.79,-0.7 2.16,-1.78 4.72,-3.04 7.53,-3.64 l 5.7,-1.22 c 1.17,-0.25 2.38,0.21 3.1,1.16 0.41,0.55 0.62,1.21 0.62,1.86 0,0.71 -0.25,1.42 -0.74,1.99 L -9.67,9.2 c -1.66,1.94 -2.65,4.36 -2.83,6.9 l -0.41,5.69 C -12.91,21.79 -7.33,8.22 0,0"
             style="fill:#eb924b;fill-opacity:1;fill-rule:nonzero;stroke:none"
             id="path166"
             inkscape:connector-curvature="0" /></g><g
           id="g168"
           transform="translate(209.0733,425.3795)"><path
             d="m 0,0 c -5.13,-1.14 -13.77,3.67 -14.72,4.21 3.73,-1.61 8,-1.68 11.84,-0.12 0.29,0.12 0.44,0.39 0.44,0.65 0,0.1 -0.02,0.21 -0.07,0.3 -0.05,0.12 -0.14,0.22 -0.26,0.3 L -2.2,5.835 4.1,6.54 C 4.1,6.54 5.43,1.21 0,0"
             style="fill:#eb924b;fill-opacity:1;fill-rule:nonzero;stroke:none"
             id="path170"
             inkscape:connector-curvature="0" /></g><g
           id="g172"
           transform="translate(211.2733,437.3295)"><path
             d="M 0,0 -1.1,-5.41 -9.97,7.34 C -9.34,6.58 -8.65,5.88 -7.91,5.23 L -1.99,0.06 C -1.43,-0.43 -0.59,-0.46 0,0"
             style="fill:#eb924b;fill-opacity:1;fill-rule:nonzero;stroke:none"
             id="path174"
             inkscape:connector-curvature="0" /></g><g
           id="g176"
           transform="translate(221.6733,443.0895)"><path
             d="m 0,0 -5.32,-1.32 -1.01,13.87 0.01,-0.01 c 0.3,-2.61 1,-5.16 2.09,-7.56 l 0.68,-1.51 c 0.49,-1.08 1.56,-1.8 2.74,-1.87 z"
             style="fill:#eb924b;fill-opacity:1;fill-rule:nonzero;stroke:none"
             id="path178"
             inkscape:connector-curvature="0" /></g><g
           id="g180"
           transform="translate(236.1233,438.3095)"><path
             d="M 0,0 V -0.01 L -8.7,3.46 -1.45,14.29 -2.1,11.78 C -3.21,9.17 -3.2,6.23 -2.09,3.63 -1.54,2.33 -0.83,1.11 0,0"
             style="fill:#eb924b;fill-opacity:1;fill-rule:nonzero;stroke:none"
             id="path182"
             inkscape:connector-curvature="0" /></g><g
           id="g184"
           transform="translate(333.0227,72.7767)"><path
             d="m 0,0 v 0 c 0,-2.221 1.811,-4.016 4.032,-3.995 l 23.312,0.214 c 2.37,0.022 4.555,1.285 5.756,3.328 l 0.368,0.626 c 0.713,1.213 2.015,1.958 3.422,1.958 h 0.805 c 2.193,0 3.97,-1.777 3.97,-3.97 v -2.817 h 9.012 V 6.433 c 0,2.783 -0.622,5.531 -1.819,8.043 L 44.542,23.53 31.164,21.755 29.588,18.004 C 26.94,11.702 21.543,6.923 14.929,5.2 11.474,4.3 7.815,3.973 4.032,3.991 1.812,4.002 0,2.22 0,0"
             style="fill:#000000;fill-opacity:1;fill-rule:nonzero;stroke:none"
             id="path186"
             inkscape:connector-curvature="0" /></g><g
           id="g188"
           transform="translate(393.2533,161.0995)"><path
             d="m 0,0 -0.31,-2.24 -3.15,-22.49 -6.09,-43.61 h -38.2 l -7.47,63.68 c -0.01,0.03 -0.01,0.04 -0.01,0.04 l -0.05,0.47 -1.01,8.59 z"
             style="fill:#e9f2f5;fill-opacity:1;fill-rule:nonzero;stroke:#000000;stroke-opacity:1"
             id="path190"
             inkscape:connector-curvature="0" /></g><g
           id="g192"
           transform="translate(462.36,72.7767)"><path
             d="m 0,0 v 0 c 0,-2.221 -1.811,-4.016 -4.032,-3.995 l -23.312,0.214 c -2.37,0.022 -4.555,1.285 -5.756,3.328 l -0.368,0.626 c -0.713,1.213 -2.015,1.958 -3.422,1.958 h -0.805 c -2.193,0 -3.97,-1.777 -3.97,-3.97 v -2.817 h -9.012 V 6.433 c 0,2.783 0.622,5.531 1.819,8.043 l 4.316,9.054 13.378,-1.775 1.576,-3.751 C -26.94,11.702 -21.543,6.923 -14.929,5.2 -11.474,4.3 -7.815,3.973 -4.032,3.991 -1.812,4.002 0,2.22 0,0"
             style="fill:#000000;fill-opacity:1;fill-rule:nonzero;stroke:none"
             id="path194"
             inkscape:connector-curvature="0" /></g><g
           id="g196"
           transform="translate(458.4133,165.5395)"><path
             d="m 0,0 -1.05,-8.99 -0.29,-2.42 c 0,0 0,-0.01 -0.01,-0.04 l -7.19,-61.33 h -38.19 l -5.23,37.44 -3.99,28.56 -0.33,2.34 z"
             style="fill:#e9f2f5;fill-opacity:1;fill-rule:nonzero;stroke:#000000;stroke-opacity:1"
             id="path198"
             inkscape:connector-curvature="0" /></g><g
           id="g200"
           transform="translate(392.9433,158.8595)"><path
             d="m 0,0 -3.15,-22.49 -0.62,-0.78 -51.15,20.89 -1.06,0.43 1.01,0.04 z"
             style="fill:#dfe8eb;fill-opacity:1;fill-rule:nonzero;stroke:none"
             id="path202"
             inkscape:connector-curvature="0" /></g><g
           id="g204"
           transform="translate(457.3633,156.5495)"><path
             d="M 0,0 -0.29,-2.42 -50.91,-26.35 -54.9,2.21 Z"
             style="fill:#dfe8eb;fill-opacity:1;fill-rule:nonzero;stroke:none"
             id="path206"
             inkscape:connector-curvature="0" /></g><g
           id="g208"
           transform="translate(352.6033,92.7596)"><path
             d="m 0,0 h -7.1 l -7.47,63.68 C -14.23,61.82 -3.35,2.3 0,0"
             style="fill:#dfe8eb;fill-opacity:1;fill-rule:nonzero;stroke:none"
             id="path210"
             inkscape:connector-curvature="0" /></g><g
           id="g212"
           transform="translate(457.0633,154.0895)"><path
             d="M 0,0 -7.19,-61.33 H -20.04 C -9.61,-55.5 -0.29,-1.68 0,0"
             style="fill:#dfe8eb;fill-opacity:1;fill-rule:nonzero;stroke:none"
             id="path214"
             inkscape:connector-curvature="0" /></g><g
           id="g216"
           transform="translate(620.3433,467.7596)"><path
             d="m 0,0 c 0,0 -34.65,-103.73 -50.62,-115.77 -11.59,-8.74 -66.18,-5.77 -95.25,-3.47 -2.42,0.2 -4.67,0.39 -6.7,0.56 -0.59,0.04 -1.15,0.09 -1.7,0.14 l 3.97,-10.92 35.15,-96.78 16.35,-45 c 2.15,-5.92 -0.03,-12.52 -5.23,-16.07 -12.97,-8.87 -27,-15.86 -41.71,-21.06 -44.78,-15.84 -95.9,-15.16 -143.06,-0.91 -19.14,5.77 -37.62,13.78 -54.76,23.83 -5.89,3.46 -8.42,10.67 -5.87,17.01 l 42.44,105.6 c -14.35,-9.01 -34.57,-20.15 -46.74,-20.15 -20.41,0 -36.39,97.04 -36.39,97.04 l 43.79,5.18 c -0.25,-2.19 -0.36,-4.43 -0.34,-6.69 v -0.03 c 0.22,-24.03 14.69,-50.4 16.31,-55.27 1.34,-4.01 29.43,18.13 43.22,29.31 0.01,0 0.01,0.01 0.01,0.01 l 5.46,13.58 h 120.61 l 0.43,-1.17 2.17,10.05 c 0,0 75.44,-0.44 80.76,7.54 5.12,7.68 34.75,66.56 30.77,77.46 -0.16,0.43 -0.34,0.78 -0.54,1.05 -0.01,0.03 -0.02,0.04 -0.02,0.04 z"
             style="fill:#ffffff;fill-opacity:1;fill-rule:nonzero;stroke:#000000;stroke-opacity:1;stroke-width:0.99975002;stroke-miterlimit:4;stroke-dasharray:none"
             id="path218"
             inkscape:connector-curvature="0" /></g><path
           d="m 375.719,234.54 h -6.205 v 98.558 h 6.205 z"
           style="fill:#e9f2f5;fill-opacity:1;fill-rule:nonzero;stroke:none"
           id="path220"
           inkscape:connector-curvature="0" /><g
           id="g222"
           transform="translate(331.5433,158.4795)"><path
             d="m 0,0 c -19.14,5.77 -37.62,13.78 -54.76,23.83 -5.89,3.46 -8.42,10.67 -5.87,17.01 l 42.44,105.6 c -14.35,-9.01 -34.57,-20.15 -46.74,-20.15 -20.41,0 -36.39,97.04 -36.39,97.04 l 43.79,5.18 c -0.25,-2.19 -0.36,-4.43 -0.34,-6.69 v -0.03 C -58.36,218.57 -79.88,85.33 1.66,195.82 0.93,193.84 -54.88,43.01 0,0"
             style="fill:#d1f2f5;fill-opacity:1;fill-rule:nonzero;stroke:none"
             id="path224"
             inkscape:connector-curvature="0" /></g><g
           id="g226"
           transform="translate(521.5433,196.5195)"><path
             d="m 0,0 c 2.15,-5.92 -0.03,-12.52 -5.23,-16.07 -12.97,-8.87 -27,-15.86 -41.71,-21.06 22.15,32.75 4.32,135.48 -4.56,178.91 z"
             style="fill:#d5f2f5;fill-opacity:1;fill-rule:nonzero;stroke:none"
             id="path228"
             inkscape:connector-curvature="0" /></g><g
           id="g230"
           transform="translate(620.3433,467.7596)"><path
             d="m 0,0 c 0,0 -34.65,-103.73 -50.62,-115.77 -12.56,-9.47 -75.58,-5.19 -101.95,-2.91 -1.23,5.68 -2,8.92 -2,8.92 0,0 71.98,3 101.98,10.82 28.01,7.3 10.73,82.96 5.66,92.96 -0.3,0.59 -0.49,0.95 -0.54,1.05 -0.01,0.03 -0.02,0.04 -0.02,0.04 z"
             style="fill:#d0f2f5;fill-opacity:1;fill-rule:nonzero;stroke:none"
             id="path232"
             inkscape:connector-curvature="0" /></g><g
           id="g234"
           transform="translate(505.1933,241.5195)"><path
             d="m 0,0 c -3.74,-6.73 -6.89,-11.57 -8.3,-11.76 -4.74,-0.66 -36.68,134.83 -37.17,136.95 L -30.72,107 c -2.42,0.2 -4.67,0.39 -6.7,0.56 -0.59,0.04 -1.15,0.09 -1.7,0.14 l 3.97,-10.92 z"
             style="fill:#e9f2f5;fill-opacity:1;fill-rule:nonzero;stroke:none"
             id="path236"
             inkscape:connector-curvature="0" /></g><g
           id="g238"
           transform="translate(397.3171,294.1614)"><path
             d="m 0,0 c 0,-2.249 -1.823,-4.072 -4.072,-4.072 -2.249,0 -4.072,1.823 -4.072,4.072 0,2.249 1.823,4.072 4.072,4.072 C -1.823,4.072 0,2.249 0,0"
             style="fill:#000000;fill-opacity:1;fill-rule:nonzero;stroke:none"
             id="path240"
             inkscape:connector-curvature="0" /></g><g
           id="g242"
           transform="translate(435.241,294.1614)"><path
             d="m 0,0 c 0,-2.249 -1.823,-4.072 -4.072,-4.072 -2.249,0 -4.072,1.823 -4.072,4.072 0,2.249 1.823,4.072 4.072,4.072 C -1.823,4.072 0,2.249 0,0"
             style="fill:#000000;fill-opacity:1;fill-rule:nonzero;stroke:none"
             id="path244"
             inkscape:connector-curvature="0" /></g><g
           id="g246"
           transform="translate(397.3171,264.3509)"><path
             d="m 0,0 c 0,-2.249 -1.823,-4.072 -4.072,-4.072 -2.249,0 -4.072,1.823 -4.072,4.072 0,2.249 1.823,4.072 4.072,4.072 C -1.823,4.072 0,2.249 0,0"
             style="fill:#000000;fill-opacity:1;fill-rule:nonzero;stroke:none"
             id="path248"
             inkscape:connector-curvature="0" /></g><g
           id="g250"
           transform="translate(435.241,264.3509)"><path
             d="m 0,0 c 0,-2.249 -1.823,-4.072 -4.072,-4.072 -2.249,0 -4.072,1.823 -4.072,4.072 0,2.249 1.823,4.072 4.072,4.072 C -1.823,4.072 0,2.249 0,0"
             style="fill:#000000;fill-opacity:1;fill-rule:nonzero;stroke:none"
             id="path252"
             inkscape:connector-curvature="0" /></g><g
           id="g254"
           transform="translate(397.3171,234.5405)"><path
             d="m 0,0 c 0,-2.249 -1.823,-4.072 -4.072,-4.072 -2.249,0 -4.072,1.823 -4.072,4.072 0,2.249 1.823,4.072 4.072,4.072 C -1.823,4.072 0,2.249 0,0"
             style="fill:#000000;fill-opacity:1;fill-rule:nonzero;stroke:none"
             id="path256"
             inkscape:connector-curvature="0" /></g><g
           id="g258"
           transform="translate(435.241,234.5405)"><path
             d="m 0,0 c 0,-2.249 -1.823,-4.072 -4.072,-4.072 -2.249,0 -4.072,1.823 -4.072,4.072 0,2.249 1.823,4.072 4.072,4.072 C -1.823,4.072 0,2.249 0,0"
             style="fill:#000000;fill-opacity:1;fill-rule:nonzero;stroke:none"
             id="path260"
             inkscape:connector-curvature="0" /></g><g
           id="g262"
           transform="translate(397.3171,204.73)"><path
             d="m 0,0 c 0,-2.249 -1.823,-4.072 -4.072,-4.072 -2.249,0 -4.072,1.823 -4.072,4.072 0,2.249 1.823,4.072 4.072,4.072 C -1.823,4.072 0,2.249 0,0"
             style="fill:#000000;fill-opacity:1;fill-rule:nonzero;stroke:none"
             id="path264"
             inkscape:connector-curvature="0" /></g><g
           id="g266"
           transform="translate(435.241,204.73)"><path
             d="m 0,0 c 0,-2.249 -1.823,-4.072 -4.072,-4.072 -2.249,0 -4.072,1.823 -4.072,4.072 0,2.249 1.823,4.072 4.072,4.072 C -1.823,4.072 0,2.249 0,0"
             style="fill:#000000;fill-opacity:1;fill-rule:nonzero;stroke:none"
             id="path268"
             inkscape:connector-curvature="0" /></g><g
           id="g270"
           transform="translate(467.5633,385.5395)"><path
             d="m 0,0 c -0.87,-11.66 -9.64,-22.1 -23.22,-29.48 -12.74,-6.91 -29.7,-11.13 -48.31,-11.13 -29.12,0 -54.18,10.33 -65.36,25.15 -3.6,4.77 -5.76,10.01 -6.16,15.52 l 1.41,3.38 1.05,2.51 -1.62,2.75 c -4.43,7.1 35.03,35.74 70.68,35.74 34.11,0 62.65,-14.17 69.85,-33.14 L -5.22,8.55 Z"
             style="fill:#da0a08;fill-opacity:1;fill-rule:nonzero;stroke:none"
             id="path272"
             inkscape:connector-curvature="0" /></g><g
           id="g274"
           transform="translate(382.9633,358.1795)"><path
             d="m 0,0 c 0,0 -33.85,2.16 -52.29,11.9 -3.6,4.77 -5.76,10.01 -6.16,15.52 l 1.41,3.38 c 0,0 18.09,-19.89 39.92,-25.56 C 4.71,-0.42 0,0 0,0"
             style="fill:#b50906;fill-opacity:1;fill-rule:nonzero;stroke:none"
             id="path276"
             inkscape:connector-curvature="0" /></g><g
           id="g278"
           transform="translate(467.5633,385.5395)"><path
             d="m 0,0 c -0.87,-11.66 -9.64,-22.1 -23.22,-29.48 l -24.1,-4.3 24.15,10 -32.86,-3.44 c 7.26,0.91 40.96,6.67 50.81,35.77 z"
             style="fill:#b50906;fill-opacity:1;fill-rule:nonzero;stroke:none"
             id="path280"
             inkscape:connector-curvature="0" /></g><g
           id="g282"
           transform="translate(452.8233,298.2295)"><path
             d="m 0,0 c 0,0 -1.2,0.22 -3.2,0.76 -6.38,1.73 -20.94,6.77 -30.83,18.6 -7.19,8.61 -10.4,19.01 -11.83,26.58 -1.16,6.09 -1.16,10.34 -1.16,10.34 0,0 21.04,-3.81 34.02,-19.35 C -0.01,21.39 0,0 0,0"
             style="fill:#da0a08;fill-opacity:1;fill-rule:nonzero;stroke:none"
             id="path284"
             inkscape:connector-curvature="0" /></g><g
           id="g286"
           transform="translate(449.6233,298.9895)"><path
             d="m 0,0 c -6.38,1.73 -20.94,6.77 -30.83,18.6 -7.19,8.61 -10.4,19.01 -11.83,26.58 6.38,-1.73 20.94,-6.77 30.83,-18.6 C -4.64,17.97 -1.43,7.57 0,0"
             style="fill:#b50906;fill-opacity:1;fill-rule:nonzero;stroke:none"
             id="path288"
             inkscape:connector-curvature="0" /></g><g
           id="g290"
           transform="translate(391.8733,351.3995)"><path
             d="m 0,0 c 0,0 -7.24,-20.12 -24.72,-30.35 -13.42,-7.85 -28.96,-7.6 -35.46,-7.06 -1.97,0.17 -3.11,0.36 -3.11,0.36 0,0 7.25,20.12 24.72,30.35 8.02,4.69 16.8,6.49 23.95,7.06 C -6.18,1.03 0,0 0,0"
             style="fill:#b50906;fill-opacity:1;fill-rule:nonzero;stroke:none"
             id="path292"
             inkscape:connector-curvature="0" /></g><g
           id="g294"
           transform="translate(380.3633,351.3995)"><path
             d="m 0,0 c 0,0 -7.24,-20.12 -24.72,-30.35 -8.02,-4.69 -16.8,-6.49 -23.95,-7.06 -1.97,0.17 -3.11,0.36 -3.11,0.36 0,0 7.25,20.12 24.72,30.35 8.02,4.69 16.8,6.49 23.95,7.06 C -1.14,0.19 0,0 0,0"
             style="fill:#da0a08;fill-opacity:1;fill-rule:nonzero;stroke:none"
             id="path296"
             inkscape:connector-curvature="0" /></g><g
           id="g298"
           transform="translate(413.84,351.9876)"><path
             d="m 0,0 c 0,-8.3 -8.19,-15.028 -18.293,-15.028 -10.103,0 -18.294,6.728 -18.294,15.028 0,8.3 8.191,15.028 18.294,15.028 C -8.19,15.028 0,8.3 0,0"
             style="fill:#b50906;fill-opacity:1;fill-rule:nonzero;stroke:none"
             id="path300"
             inkscape:connector-curvature="0" /></g><g
           id="g302"
           transform="translate(410.2733,358.1795)"><path
             d="M 0,0 0.6,0.06 C 0.32,0.03 0.12,0.01 0,0"
             style="fill:#ffffff;fill-opacity:1;fill-rule:nonzero;stroke:none"
             id="path304"
             inkscape:connector-curvature="0" /></g><g
           id="g306"
           transform="translate(473.9733,446.0096)"><path
             d="m 0,0 c 0,-42.04 -33.59,-76.22 -75.39,-77.19 -0.61,-0.02 -1.22,-0.03 -1.83,-0.03 -42.65,0 -77.22,34.57 -77.22,77.22 0,42.65 34.57,77.22 77.22,77.22 C -34.58,77.22 0,42.65 0,0"
             style="fill:#fea55d;fill-opacity:1;fill-rule:nonzero;stroke:none"
             id="path308"
             inkscape:connector-curvature="0" /></g><g
           id="g310"
           transform="translate(473.9733,446.0096)"><path
             d="m 0,0 c 0,-42.04 -33.59,-76.22 -75.39,-77.19 9.74,13.7 6.07,88.28 1.47,94.05 -4.88,6.13 -3.3,60.36 -3.3,60.36 C -34.58,77.22 0,42.65 0,0"
             style="fill:#fc8a4a;fill-opacity:1;fill-rule:nonzero;stroke:none"
             id="path312"
             inkscape:connector-curvature="0" /></g><g
           id="g314"
           transform="translate(421.4945,411.4083)"><path
             d="m 0,0 c 0,-7.497 -9.834,-13.574 -21.965,-13.574 -12.131,0 -21.965,6.077 -21.965,13.574 0,7.497 9.834,13.574 21.965,13.574 C -9.834,13.574 0,7.497 0,0"
             style="fill:#d46222;fill-opacity:1;fill-rule:nonzero;stroke:none"
             id="path316"
             inkscape:connector-curvature="0" /></g><g
           id="g318"
           transform="translate(421.4945,416.4083)"><path
             d="m 0,0 c 0,-7.497 -9.834,-13.574 -21.965,-13.574 -12.131,0 -21.965,6.077 -21.965,13.574 0,7.497 9.834,13.574 21.965,13.574 C -9.834,13.574 0,7.497 0,0"
             style="fill:#ffffff;fill-opacity:1;fill-rule:nonzero;stroke:none"
             id="path320"
             inkscape:connector-curvature="0" /></g><g
           id="g322"
           transform="translate(399.5348,423.585)"><path
             d="m 0,0 c -13.149,0 -23.816,-6.08 -23.816,-13.58 h 5.605 c 0,5.74 8.151,10.38 18.211,10.38 10.049,0 18.201,-4.64 18.201,-10.38 h 5.604 C 23.805,-6.08 13.149,0 0,0"
             style="fill:#d46222;fill-opacity:1;fill-rule:nonzero;stroke:none"
             id="path324"
             inkscape:connector-curvature="0" /></g><g
           id="g326"
           transform="translate(456.13,411.8718)"><path
             d="m 0,0 c -1.551,4.069 -3.627,7.974 -6.432,11.651 -17.761,23.276 -33.949,-2.725 -51.28,7.101 1.551,-4.07 3.627,-7.975 6.433,-11.653 C -33.519,-16.176 -17.331,9.827 0,0"
             style="fill:#6b2706;fill-opacity:1;fill-rule:nonzero;stroke:none"
             id="path328"
             inkscape:connector-curvature="0" /></g><g
           id="g330"
           transform="translate(340.7055,411.8718)"><path
             d="M 0,0 C 1.551,4.069 3.627,7.974 6.432,11.651 24.193,34.927 40.381,8.926 57.712,18.752 56.161,14.682 54.085,10.777 51.279,7.099 33.519,-16.176 17.331,9.827 0,0"
             style="fill:#6b2706;fill-opacity:1;fill-rule:nonzero;stroke:none"
             id="path332"
             inkscape:connector-curvature="0" /></g><g
           id="g334"
           transform="translate(456.1333,411.8695)"><path
             d="m 0,0 c -17.33,9.83 -33.52,-16.17 -51.28,7.1 -2.81,3.68 -4.88,7.58 -6.44,11.65 1.95,-1.1 3.89,-1.76 5.82,-2.07 0.2,-0.28 0.41,-0.56 0.62,-0.84 15.75,-20.65 30.27,-2.52 45.45,-5.03 C -3.32,7.39 -1.43,3.76 0,0"
             style="fill:#572005;fill-opacity:1;fill-rule:nonzero;stroke:none"
             id="path336"
             inkscape:connector-curvature="0" /></g><g
           id="g338"
           transform="translate(398.4133,430.6195)"><path
             d="m 0,0 c -1.55,-4.07 -3.62,-7.97 -6.43,-11.65 -17.76,-23.27 -33.95,2.73 -51.28,-7.1 1.43,3.76 3.32,7.39 5.81,10.81 15.18,2.52 29.71,-15.63 45.47,5.03 0.21,0.28 0.42,0.56 0.62,0.84 C -3.89,-1.75 -1.95,-1.1 0,0"
             style="fill:#572005;fill-opacity:1;fill-rule:nonzero;stroke:none"
             id="path340"
             inkscape:connector-curvature="0" /></g><g
           id="g342"
           transform="translate(379.3803,479.7905)"><path
             d="m 0,0 -23.397,-8.442 c -2.816,-1.016 -5.922,0.443 -6.939,3.259 -1.016,2.817 0.444,5.923 3.26,6.939 l 23.396,8.442 c 2.816,1.016 5.923,-0.443 6.939,-3.259 v 0 C 4.275,4.123 2.816,1.016 0,0"
             style="fill:#602d00;fill-opacity:1;fill-rule:nonzero;stroke:none"
             id="path344"
             inkscape:connector-curvature="0" /></g><g
           id="g346"
           transform="translate(413.7358,479.7905)"><path
             d="m 0,0 23.397,-8.442 c 2.816,-1.016 5.922,0.443 6.939,3.259 1.016,2.817 -0.444,5.923 -3.26,6.939 L 3.68,10.198 C 0.864,11.214 -2.243,9.755 -3.259,6.939 v 0 C -4.275,4.123 -2.816,1.016 0,0"
             style="fill:#602d00;fill-opacity:1;fill-rule:nonzero;stroke:none"
             id="path348"
             inkscape:connector-curvature="0" /></g><g
           id="g350"
           transform="translate(416.1691,445.0953)"><path
             d="m 0,0 c 0,-12.485 -7.948,-22.606 -17.751,-22.606 -9.804,0 -17.752,10.121 -17.752,22.606 0,12.485 17.445,22.606 17.752,22.606 C -17.445,22.606 0,12.485 0,0"
             style="fill:#feb36d;fill-opacity:1;fill-rule:nonzero;stroke:none"
             id="path352"
             inkscape:connector-curvature="0" /></g><g
           id="g354"
           transform="translate(492.7694,444.6782)"><path
             d="m 0,0 c 0,-10.049 -8.146,-18.195 -18.195,-18.195 -10.049,0 -18.195,8.146 -18.195,18.195 0,10.049 8.146,18.195 18.195,18.195 C -8.146,18.195 0,10.049 0,0"
             style="fill:#fc8a4a;fill-opacity:1;fill-rule:nonzero;stroke:none"
             id="path356"
             inkscape:connector-curvature="0" /></g><g
           id="g358"
           transform="translate(477.2577,453.8436)"><path
             d="m 0,0 c -0.467,0.173 -0.854,-0.42 -0.506,-0.776 4.391,-4.485 8.982,-6.14 3.418,-14.337 -0.676,-0.955 -1.74,-2.432 -2.561,-3.569 -0.3,-0.417 0.185,-0.951 0.625,-0.685 1.189,0.719 2.453,1.659 3.658,2.792 C 10.811,-10.59 9.839,-3.638 0,0"
             style="fill:#db7841;fill-opacity:1;fill-rule:nonzero;stroke:none"
             id="path360"
             inkscape:connector-curvature="0" /></g><g
           id="g362"
           transform="translate(482.4583,448.4)"><path
             d="m 0,0 c 0,-0.784 -1.466,-1.42 -3.274,-1.42 -1.808,0 -3.274,0.636 -3.274,1.42 0,0.784 1.466,1.42 3.274,1.42 C -1.466,1.42 0,0.784 0,0"
             style="fill:#db7841;fill-opacity:1;fill-rule:nonzero;stroke:none"
             id="path364"
             inkscape:connector-curvature="0" /></g><g
           id="g366"
           transform="translate(338.3029,444.6782)"><path
             d="m 0,0 c 0,-10.049 -8.146,-18.195 -18.195,-18.195 -10.049,0 -18.195,8.146 -18.195,18.195 0,10.049 8.146,18.195 18.195,18.195 C -8.146,18.195 0,10.049 0,0"
             style="fill:#fea55d;fill-opacity:1;fill-rule:nonzero;stroke:none"
             id="path368"
             inkscape:connector-curvature="0" /></g><g
           id="g370"
           transform="translate(318.3711,453.8436)"><path
             d="m 0,0 c 0.467,0.173 0.854,-0.42 0.506,-0.776 -4.391,-4.485 -8.982,-6.14 -3.418,-14.337 0.676,-0.955 1.74,-2.432 2.561,-3.569 0.3,-0.417 -0.185,-0.951 -0.625,-0.685 -1.189,0.719 -2.453,1.659 -3.658,2.792 C -10.811,-10.59 -9.839,-3.638 0,0"
             style="fill:#d48a4e;fill-opacity:1;fill-rule:nonzero;stroke:none"
             id="path372"
             inkscape:connector-curvature="0" /></g><g
           id="g374"
           transform="translate(319.011,448.4)"><path
             d="m 0,0 c 0,-0.784 -1.466,-1.42 -3.274,-1.42 -1.808,0 -3.274,0.636 -3.274,1.42 0,0.784 1.466,1.42 3.274,1.42 C -1.466,1.42 0,0.784 0,0"
             style="fill:#d48a4e;fill-opacity:1;fill-rule:nonzero;stroke:none"
             id="path376"
             inkscape:connector-curvature="0" /></g><g
           id="g378"
           transform="translate(357.6762,457.4948)"><path
             d="m 0,0 c -0.328,0 -0.658,0.107 -0.935,0.328 -0.647,0.516 -0.753,1.46 -0.236,2.108 0.205,0.256 5.087,6.287 11.195,6.355 3.051,0.031 5.83,-1.401 8.223,-4.267 0.53,-0.636 0.445,-1.582 -0.19,-2.113 C 17.42,1.88 16.475,1.965 15.944,2.601 14.131,4.771 12.235,5.811 10.057,5.791 5.357,5.739 1.215,0.616 1.173,0.564 0.877,0.193 0.44,0 0,0"
             style="fill:#000000;fill-opacity:1;fill-rule:nonzero;stroke:none"
             id="path380"
             inkscape:connector-curvature="0" /></g><g
           id="g382"
           transform="translate(437.6694,457.4948)"><path
             d="m 0,0 c -0.44,0 -0.876,0.192 -1.172,0.563 -0.05,0.061 -4.22,5.183 -8.894,5.228 h -0.063 c -2.12,0 -4.023,-1.044 -5.815,-3.19 -0.531,-0.636 -1.476,-0.721 -2.114,-0.19 -0.635,0.531 -0.72,1.477 -0.189,2.113 2.365,2.832 5.096,4.267 8.116,4.267 0.036,0 0.071,0 0.107,0 C -3.916,8.723 0.967,2.692 1.172,2.436 1.688,1.788 1.582,0.844 0.935,0.328 0.658,0.107 0.328,0 0,0"
             style="fill:#000000;fill-opacity:1;fill-rule:nonzero;stroke:none"
             id="path384"
             inkscape:connector-curvature="0" /></g><g
           id="g386"
           transform="translate(336.6033,494.5595)"><path
             d="m 0,0 -3.4,-28.14 -2.2,-14.66 -6.49,-1.94 -4.41,13.05 -0.11,0.58 c -0.65,3.31 -0.56,6.72 0.27,9.99 l 2.21,8.77 c 1.27,5.06 5,9.14 9.93,10.87 z"
             style="fill:#602d00;fill-opacity:1;fill-rule:nonzero;stroke:none"
             id="path388"
             inkscape:connector-curvature="0" /></g><g
           id="g390"
           transform="translate(336.6033,494.5595)"><path
             d="m 0,0 -4.2,-1.48 c -4.93,-1.73 -8.66,-5.81 -9.93,-10.87 l -2.21,-8.77 c -0.83,-3.27 -0.92,-6.68 -0.27,-9.99 l 0.11,-0.58 4.41,-13.05 c 0,0 -1.371,5.98 -1.138,13.961 l 6.423,-4.191 c -3.545,3.919 -5.207,7.524 -5.983,9.867 0.286,2.23 0.727,4.531 1.365,6.841 l 3.403,-1.05 c -1.253,1.294 -1.802,3.549 -2.044,5.153 C -8.058,-9.017 -4.901,-4.044 0,0"
             style="fill:#4a2300;fill-opacity:1;fill-rule:nonzero;stroke:none"
             id="path392"
             inkscape:connector-curvature="0" /></g><g
           id="g394"
           transform="translate(473.8633,463.4495)"><path
             d="m 0,0 -0.11,-0.58 -4.41,-13.05 -6.49,1.94 -2.2,14.66 -3.4,28.14 c 0,0 0.01,-0.01 0.04,-0.02 l 4.16,-1.46 c 4.93,-1.73 8.66,-5.81 9.93,-10.87 L -0.27,9.99 C 0.56,6.72 0.65,3.31 0,0"
             style="fill:#602d00;fill-opacity:1;fill-rule:nonzero;stroke:none"
             id="path396"
             inkscape:connector-curvature="0" /></g><g
           id="g398"
           transform="translate(465.7924,488.7562)"><path
             d="m 0,0 c 0,0 0.588,-9.162 -2.619,-12.907 h 8 z"
             style="fill:#4a2300;fill-opacity:1;fill-rule:nonzero;stroke:none"
             id="path400"
             inkscape:connector-curvature="0" /></g><g
           id="g402"
           transform="translate(471.1733,472.1895)"><path
             d="m 0,0 c 0,0 -4,-14.78 -6.75,-18.315 l 8.5,10.911 z"
             style="fill:#4a2300;fill-opacity:1;fill-rule:nonzero;stroke:none"
             id="path404"
             inkscape:connector-curvature="0" /></g><g
           id="g406"
           transform="translate(473.5933,473.4395)"><path
             d="m 0,0 -2.21,8.77 c -1.27,5.06 -5,9.14 -9.93,10.87 l -4.16,1.46 c 0.881,-0.436 16.574,-8.69 12.849,-39.376 -0.25,-1.107 -7.289,-3.404 -7.289,-3.404 l 6.49,-1.94 4.41,13.05 0.11,0.58 C 0.92,-6.68 0.83,-3.27 0,0"
             style="fill:#4a2300;fill-opacity:1;fill-rule:nonzero;stroke:none"
             id="path408"
             inkscape:connector-curvature="0" /></g><g
           id="g410"
           transform="translate(627.01,639.4728)"><path
             d="m 0,0 c 0,-4.234 -3.432,-7.667 -7.667,-7.667 -4.234,0 -7.666,3.433 -7.666,7.667 0,4.234 3.432,7.667 7.666,7.667 C -3.432,7.667 0,4.234 0,0"
             style="fill:#e8e8e8;fill-opacity:1;fill-rule:nonzero;stroke:none"
             id="path412"
             inkscape:connector-curvature="0" /></g><g
           id="g414"
           transform="translate(627.0133,639.4695)"><path
             d="m 0,0 c 0,-4.23 -3.44,-7.66 -7.67,-7.66 -0.69,0 -1.36,0.09 -2,0.26 3.26,0.89 5.67,3.86 5.67,7.4 0,3.55 -2.41,6.52 -5.67,7.4 0.64,0.18 1.31,0.27 2,0.27 C -3.44,7.67 0,4.24 0,0"
             style="fill:#e0e0e0;fill-opacity:1;fill-rule:nonzero;stroke:none"
             id="path416"
             inkscape:connector-curvature="0" /></g><g
           id="g418"
           transform="translate(469.9133,595.8695)"><path
             d="m 0,0 c 0.13,-3.18 -0.08,-6.43 -0.67,-9.72 l -0.93,-6.74 -2.87,-20.8 -8.84,-64.05 c -5.29,3.62 -10.59,6.76 -15.88,9.41 -33.43,16.81 -66.85,14.51 -100.28,-6.88 -1.28,-0.81 -2.56,-1.66 -3.84,-2.53 l -10.25,74.26 -0.52,3.78 -1.87,13.55 c -0.59,3.29 -0.8,6.54 -0.67,9.72 -0.08,0.97 -0.14,1.94 -0.14,2.92 0,5.61 1.45,10.99 4.12,16 0.41,0.79 0.86,1.56 1.34,2.32 3.48,5.59 8.5,10.66 14.72,14.97 2.86,1.99 5.98,3.81 9.31,5.46 12.25,6.03 27.47,9.6 43.96,9.6 0.22,0 0.43,0 0.65,-0.01 2.85,-0.01 5.65,-0.13 8.41,-0.36 h 0.01 c 14.87,-1.2 28.36,-5.33 39.1,-11.48 5.11,-2.92 9.59,-6.29 13.31,-10.03 4.49,-4.5 7.86,-9.53 9.86,-14.91 0.59,-1.55 1.05,-3.14 1.39,-4.75 C -0.1,7.51 0.15,5.23 0.15,2.92 0.15,1.94 0.09,0.97 0,0"
             style="fill:#fdffff;fill-opacity:1;fill-rule:nonzero;stroke:none"
             id="path420"
             inkscape:connector-curvature="0" /></g><g
           id="g422"
           transform="translate(355.9833,619.315)"><path
             d="m 0,0 c 0,-28.304 -22.945,-51.25 -51.25,-51.25 -28.304,0 -51.25,22.946 -51.25,51.25 0,28.305 22.946,51.25 51.25,51.25 C -22.945,51.25 0,28.305 0,0"
             style="fill:#ffffff;fill-opacity:1;fill-rule:nonzero;stroke:#e9f2f5;stroke-opacity:1"
             id="path424"
             inkscape:connector-curvature="0" /></g><g
           id="g426"
           transform="translate(419.2756,682.9908)"><path
             d="m 0,0 c 0,-30.392 -24.637,-55.029 -55.029,-55.029 -30.392,0 -55.03,24.637 -55.03,55.029 0,30.392 24.638,55.029 55.03,55.029 C -24.637,55.029 0,30.392 0,0"
             style="fill:#ffffff;fill-opacity:1;fill-rule:nonzero;stroke:none;stroke-opacity:0"
             id="path428"
             inkscape:connector-curvature="0" /></g><g
           id="g430"
           transform="translate(503.5133,682.7695)"><path
             d="m 0,0 c 0,-5.04 -0.63,-9.93 -1.82,-14.6 -6.5,-25.58 -29.69,-44.5 -57.29,-44.5 -32.64,0 -59.1,26.46 -59.1,59.1 0,32.65 26.46,59.11 59.1,59.11 6.01,0 11.81,-0.9 17.27,-2.57 4.27,-1.29 8.34,-3.07 12.14,-5.25 0,0 0.01,0 0.01,-0.01 C -13.56,42.01 -2.22,25.35 -0.3,5.91 -0.1,3.97 0,2 0,0"
             style="fill:#ffffff;fill-opacity:1;fill-rule:nonzero;stroke:#e9f2f5;stroke-opacity:1"
             id="path432"
             inkscape:connector-curvature="0" /></g><g
           id="g434"
           transform="translate(503.0233,690.3695)"><path
             d="m 0,0 c -5.7,26.68 -29.41,41.68 -57.79,41.68 -16.88,0 -32.1,-7.08 -42.87,-18.43 -9.8,9.05 -22.9,14.58 -37.29,14.58 -30.4,0 -55.03,-19.64 -55.03,-50.03 0,-2.34 0.15,-4.65 0.43,-6.91 -0.83,3.78 -1.26,7.7 -1.26,11.73 0,30.39 24.64,55.03 55.03,55.03 14.4,0 27.49,-5.53 37.3,-14.58 10.77,11.35 25.98,18.44 42.86,18.44 C -28.55,51.51 -3.72,29.06 0,0"
             style="fill:#e4f2f5;fill-opacity:1;fill-rule:nonzero;stroke:none;stroke-opacity:1"
             id="path436"
             inkscape:connector-curvature="0" /></g><g
           id="g438"
           transform="translate(534.7725,620.8609)"><path
             d="m 0,0 c 0,-25.49 -20.664,-46.154 -46.154,-46.154 -25.49,0 -46.153,20.664 -46.153,46.154 0,25.49 20.663,46.154 46.153,46.154 C -20.664,46.154 0,25.49 0,0"
             style="fill:#ffffff;fill-opacity:1;fill-rule:nonzero;stroke:none"
             id="path440"
             inkscape:connector-curvature="0" /></g><g
           id="g442"
           transform="translate(534.7733,620.8595)"><path
             d="m 0,0 c 0,-25.49 -20.66,-46.15 -46.15,-46.15 -1.04,0 -2.06,0.03 -3.08,0.1 24.05,1.59 43.07,21.6 43.07,46.05 0,24.45 -19.02,44.47 -43.07,46.06 1.02,0.07 2.04,0.1 3.08,0.1 C -20.66,46.16 0,25.49 0,0"
             style="fill:#e9f2f5;fill-opacity:1;fill-rule:nonzero;stroke:none"
             id="path444"
             inkscape:connector-curvature="0" /></g><g
           id="g446"
           transform="translate(473.3754,620.1805)"><path
             d="m 0,0 c 0,-24.556 -32.831,-44.451 -73.323,-44.451 -40.492,0 -73.322,19.895 -73.322,44.451 0,1.171 0.08,2.343 0.226,3.49 2.931,-22.917 34.55,-40.962 73.096,-40.962 38.547,0 70.165,18.045 73.096,40.962 C -0.08,2.343 0,1.171 0,0"
             style="fill:#e9f2f5;fill-opacity:1;fill-rule:nonzero;stroke:none"
             id="path448"
             inkscape:connector-curvature="0" /></g><g
           id="g450"
           transform="translate(311.9367,670.0666)"><path
             d="m 0,0 c -2.558,0.36 -5.176,0.531 -7.842,0.499 -27.177,-0.331 -49.64,-22.265 -50.58,-49.427 -0.162,-4.69 0.306,-9.247 1.329,-13.579 -0.34,2.36 -0.51,4.76 -0.51,7.21 0,28.3 22.95,51.25 51.25,51.25 7.98,0 15.53,-1.82 22.26,-5.07 v 0 C 11.902,-4.23 6.257,-0.881 0,0"
             style="fill:#e9f2f5;fill-opacity:1;fill-rule:nonzero;stroke:none"
             id="path452"
             inkscape:connector-curvature="0" /></g><g
           id="g454"
           transform="translate(340.4433,497.0895)"><path
             d="m 0,0 c -1.28,-0.81 -2.56,-1.66 -3.84,-2.53 l -10.25,74.26 0.38,2.03 C -14.11,71.91 -7.51,35.1 -3.48,22.88 -1.31,16.31 -0.39,7.11 0,0"
             style="fill:#e9f2f5;fill-opacity:1;fill-rule:nonzero;stroke:none"
             id="path456"
             inkscape:connector-curvature="0" /></g><g
           id="g458"
           transform="translate(468.3133,579.4095)"><path
             d="m 0,0 -11.71,-84.85 c -5.29,3.62 -10.59,6.76 -15.88,9.41 1.62,3.49 7.987,7.594 12.1,16 C -11.067,-50.4 -2.51,-14.89 0,0"
             style="fill:#d4f2f5;fill-opacity:1;fill-rule:nonzero;stroke:none"
             id="path460"
             inkscape:connector-curvature="0" /></g><g
           id="g462"
           transform="translate(753.7977,521.7074)"><path
             d="m 0,0 c 0,-25.327 -60.197,-45.858 -134.454,-45.858 -74.257,0 -134.455,20.531 -134.455,45.858 0,25.327 60.198,45.858 134.455,45.858 C -60.197,45.858 0,25.327 0,0"
             style="fill:#d1d1d1;fill-opacity:1;fill-rule:nonzero;stroke:none"
             id="path464"
             inkscape:connector-curvature="0" /></g><path
           d="M 753.798,521.707 H 484.889 v 9.118 h 268.909 z"
           style="fill:#d1d1d1;fill-opacity:1;fill-rule:nonzero;stroke:none"
           id="path466"
           inkscape:connector-curvature="0" /><g
           id="g468"
           transform="translate(753.7977,530.8253)"><path
             d="m 0,0 c 0,-25.327 -60.197,-45.858 -134.454,-45.858 -74.257,0 -134.455,20.531 -134.455,45.858 0,25.327 60.198,45.858 134.455,45.858 C -60.197,45.858 0,25.327 0,0"
             style="fill:#ffffff;fill-opacity:1;fill-rule:nonzero;stroke:none"
             id="path470"
             inkscape:connector-curvature="0" /></g><g
           id="g472"
           transform="translate(743.2031,520.4866)"><path
             d="m 0,0 c -44.989,-37.059 -202.743,-37.042 -247.719,0 -3.081,2.537 -4.739,6.424 -4.56,10.411 2.197,49.078 53.184,99.802 128.419,99.802 75.202,0 126.224,-50.695 128.42,-99.802 C 4.738,6.424 3.08,2.538 0,0"
             style="fill:#d1d1d1;fill-opacity:1;fill-rule:nonzero;stroke:none"
             id="path474"
             inkscape:connector-curvature="0" /></g><g
           id="g476"
           transform="translate(743.2031,522.4866)"><path
             d="m 0,0 c -44.989,-37.059 -202.743,-37.042 -247.719,0 -3.081,2.537 -4.739,6.424 -4.56,10.411 2.197,49.078 53.184,99.802 128.419,99.802 75.202,0 126.224,-50.695 128.42,-99.802 C 4.738,6.424 3.08,2.538 0,0"
             style="fill:#e8e8e8;fill-opacity:1;fill-rule:nonzero;stroke:none"
             id="path478"
             inkscape:connector-curvature="0" /></g><g
           id="g480"
           transform="translate(747.7633,532.8995)"><path
             d="m 0,0 c 0.18,-3.99 -1.48,-7.88 -4.56,-10.41 -24.46,-20.15 -82.23,-29.34 -137.1,-27.58 46.07,1.48 90.08,10.67 110.61,27.58 3.08,2.53 4.74,6.42 4.56,10.41 -2.06,46.17 -47.28,93.73 -115.18,99.26 4.33,0.36 8.74,0.54 13.25,0.54 C -53.22,99.8 -2.2,49.11 0,0"
             style="fill:#e0e0e0;fill-opacity:1;fill-rule:nonzero;stroke:none"
             id="path482"
             inkscape:connector-curvature="0" /></g><g
           id="g484"
           transform="translate(604.5533,628.3995)"><path
             d="m 0,0 c -48.222,-12.581 -80.541,-44.441 -93.265,-78.477 -0.615,-1.644 -2.254,-2.675 -4.006,-2.567 -2.799,0.172 -4.574,3.076 -3.452,5.646 14.462,33.119 47.6,63.296 95.913,74.368 1.6,0.37 3.21,0.72 4.81,1.03"
             style="fill:#ffffff;fill-opacity:1;fill-rule:nonzero;stroke:none"
             id="path486"
             inkscape:connector-curvature="0" /></g></g></g></g></svg>