<?xml version="1.0" encoding="UTF-8"?>
<svg viewBox="0 0 743.11731 589.70355" xmlns="http://www.w3.org/2000/svg" xmlns:xlink="http://www.w3.org/1999/xlink">
 <defs>
  <filter id="a">
   <feGaussianBlur stdDeviation="2.4299"/>
  </filter>
  <filter id="o">
   <feGaussianBlur stdDeviation="8.5088"/>
  </filter>
  <filter id="n" x="-.1614" y="-.18109" width="1.3228" height="1.3622">
   <feGaussianBlur stdDeviation="5.9647"/>
  </filter>
  <filter id="m" x="-.11521" y="-.18819" width="1.2304" height="1.3764">
   <feGaussianBlur stdDeviation="5.9647"/>
  </filter>
  <filter id="l" x="-.14008" y="-.28014" width="1.2802" height="1.5603">
   <feGaussianBlur stdDeviation="5.9647"/>
  </filter>
  <filter id="k" x="-.0653" y="-.12414" width="1.1306" height="1.2483">
   <feGaussianBlur stdDeviation="7.8201"/>
  </filter>
  <filter id="j" x="-.17822" y="-.09871" width="1.3564" height="1.1974">
   <feGaussianBlur stdDeviation="5.9647"/>
  </filter>
  <filter id="i" x="-.09861" y="-.21743" width="1.1972" height="1.4349">
   <feGaussianBlur stdDeviation="5.9647"/>
  </filter>
  <linearGradient id="c">
   <stop stop-color="#b6481f" offset="0"/>
   <stop stop-color="#8b2d0a" offset="1"/>
  </linearGradient>
  <linearGradient id="b">
   <stop stop-color="#8e3e05" offset="0"/>
   <stop stop-color="#c64b1d" offset=".5"/>
   <stop stop-color="#8e3e05" offset="1"/>
  </linearGradient>
  <linearGradient id="h" x1="458.72" x2="476.65" y1="599.92" y2="559.78" gradientUnits="userSpaceOnUse" xlink:href="#b"/>
  <linearGradient id="g" x1="34.556" x2="37.548" y1="31.493" y2="31.662" gradientUnits="userSpaceOnUse" xlink:href="#c"/>
  <linearGradient id="f" x1="275.82" x2="317.88" y1="538.96" y2="454.46" gradientUnits="userSpaceOnUse" xlink:href="#b"/>
  <linearGradient id="e" x1="34.318" x2="37.569" y1="31.05" y2="32.182" gradientUnits="userSpaceOnUse" xlink:href="#c"/>
  <linearGradient id="d" x1="106.71" x2="126.88" y1="425.15" y2="387.31" gradientUnits="userSpaceOnUse" xlink:href="#b"/>
  <linearGradient id="p" x1="135.69" x2="472.79" gradientUnits="userSpaceOnUse" xlink:href="#b"/>
 </defs>
 <g transform="translate(59.883 -158.71)">
  <g fill="none" stroke="#1b1818" stroke-linecap="round" stroke-width="4">
   <path d="m562.86 613.08s-82.857 172.86-179.29 90.714"/>
   <path d="m412.14 723.79c-20.714 43.571-184.29 25-173.57-62.857"/>
   <path d="m241.43 691.65c-91.429 7.8571-203.57-26.429-165.71-122.86"/>
   <path d="m67.143 613.08c-149.29-60.714-155-155-69.286-242.14"/>
   <path d="m-18.183 387.68c-9.0914-141.42 136.37-190.92 240.42-177.79"/>
   <path d="m200.01 206.86c56.569-67.68 280.82-53.538 324.26 80.812"/>
   <path d="m513.16 263.43c244.46 49.497 68.69 228.29 68.69 228.29"/>
   <path d="m607.1 467.48c63.64 66.67-60.609 164.65-75.761 166.68"/>
   <path d="m239.64 559.15c49.643 22.5 69.286 43.571 81.071 65.357"/>
   <path d="m433.04 653.43c25 13.571 23.036 27.5 23.036 27.5"/>
   <path d="m43.916 465.17c-17.143-6.7857-31.173-5.8412-43.208 3.827"/>
   <path d="m107.32 495.39c46.15 23.733 54.193 51.781 57.746 73.699"/>
   <path d="m30.357 445.22c-5.3571-8.5714-15.357-8.5714-15.357-8.5714"/>
  </g>
  <path d="m333.49 742.83c-44.342-6.0657-76.811-25.217-88.834-52.398-1.9824-4.4815-3.2282-10.993-3.7057-19.368-0.47543-8.3382-1.2568-12.436-2.304-12.084-1.8319 0.61641-2.197 20.953-0.48596 27.071l1.0986 3.9286h-21.383c-43.929 0-83.409-8.8276-109.68-24.525-13.123-7.8402-25.559-21.126-31.583-33.742-5.1596-10.805-5.2595-11.339-5.1272-27.448 0.10692-13.02 0.7738-18.179 3.2143-24.866 3.6245-9.9317 3.8149-12.276 0.99701-12.276-2.888 0-8.0869 17.956-9.1836 31.718l-0.87689 11.004-12.143-5.4138c-48.91-21.806-82.687-49.625-98.204-80.88-8.188-16.493-9.6289-22.791-9.6414-42.143-0.01344-20.794 2.0818-30.194 10.827-48.571 9.4117-19.779 20.655-36.078 36.772-53.309 6.0779-6.4976 7.3908-8.6774 6.0228-10-1.361-1.3158-3.3061 0.034-8.7627 6.0808l-7.0134 7.7721 0.01171-7.0578c0.0064-3.8818 0.64072-12.546 1.4095-19.255 4.0624-35.449 17.264-62.958 42.163-87.856 29.111-29.111 72.817-48.892 124.27-56.243 16.049-2.293 44.688-3.2436 58.251-1.9336 6.895 0.66601 13.245 0.77283 14.112 0.23737 3.1439-1.943-0.54113-4.1524-7.0894-4.2505-3.6858-0.0552-7.9468-0.588-9.4689-1.184-2.4234-0.94885-1.8102-1.8402 4.9338-7.171 21.798-17.23 54.498-26.713 97.511-28.276 45.251-1.6446 90.405 7.7609 128.47 26.76 36.174 18.055 60.599 41.561 75.674 72.828 3.9777 8.25 7.6833 15.926 8.2347 17.058 1.3729 2.8179 4.3699 3.6335 4.3699 1.1892 0-1.0951-1.603-6.0814-3.5622-11.081s-3.3526-9.2992-3.0964-9.5554c1.006-1.006 36.663 9.6121 48.801 14.532 55.498 22.496 79.592 59.055 69.887 106.04-5.7934 28.048-24.031 62.114-49.04 91.605-9.1433 10.782-11 14.496-7.2478 14.496 0.70833 0 5.974-5.7445 11.701-12.766l10.414-12.766 4.0082 3.8234c2.2045 2.1029 6.0282 7.9266 8.497 12.942 3.7215 7.5595 4.5874 11.225 5.0654 21.442 0.99916 21.355-6.8513 42.326-24.794 66.233-16.094 21.444-45.379 48.3-61.799 56.672-3.3907 1.7289-5.8954 3.9126-5.5661 4.8525 0.96288 2.748 5.4296 1.2459 14.415-4.8476 4.6188-3.1324 8.6636-5.4296 8.9883-5.1049 0.83098 0.831-7.8554 15.291-17.297 28.793-17.292 24.729-37.683 45.112-56.804 56.782-14.225 8.6817-23.022 11.455-38.678 12.192-17.788 0.838-29.183-2.5322-45.507-13.458-6.2842-4.2062-11.706-7.6477-12.049-7.6477s-0.62286 0.91027-0.62286 2.0228c0 2.5237 8.1582 9.0169 18.929 15.065 4.5179 2.5372 8.2143 5.128 8.2143 5.7573 0 2.0002-9.9061 9.9302-15.41 12.336-13.751 6.011-41.211 8.8528-60.304 6.241zm123.89-65.762c-0.42549-3.1723-2.4948-8.0244-4.5986-10.783-5.1511-6.7535-18.887-15.852-20.897-13.842-1.057 1.057 0.38497 2.8087 4.8286 5.866 8.0856 5.563 15.048 13.485 16.241 18.481 1.2088 5.0589 1.8071 6.0452 3.667 6.0452 0.96547 0 1.2462-2.1337 0.75873-5.7678zm-134.77-51.106c1.5628-2.5287-8.7226-17.311-19.686-28.294-12.651-12.673-28.62-23.725-49.048-33.948-14.07-7.0408-16.1-7.6428-16.1-4.774 0 1.0035 5.625 4.5983 12.5 7.9885 28.568 14.088 53.063 33.825 64.031 51.594 5.1525 8.3477 6.8168 9.8376 8.3031 7.4328zm-155.65-55.82c1.3542-2.1912-4.5102-22.329-9.2597-31.797-5.8639-11.689-25.321-31.046-39.678-39.474-9.5252-5.5912-13.104-6.4699-13.104-3.2172 0 0.67173 4.0179 3.4949 8.9286 6.2737 25.678 14.53 41.435 34.115 46.706 58.051 0.95167 4.3214 1.9815 8.6607 2.2886 9.6428 0.6466 2.0682 2.9797 2.363 4.1184 0.52052zm-161.5-101.48c8.7658-5.4106 16.855-6.4316 28.755-3.6293 10.541 2.4824 13.326 2.3292 11.496-0.632-1.4852-2.403-14.997-5.8464-22.942-5.8464-8.4724 0-22.558 6.2571-23.316 10.357-0.58968 3.1917 0.50635 3.1462 6.0076-0.24937zm26.597-23.43c0-3.9742-10.532-10.963-16.522-10.963-4.529 0-1.79 4.2456 3.6912 5.7215 3.1576 0.85024 6.5265 2.8036 7.4865 4.3408 1.9851 3.1787 5.3439 3.745 5.3439 0.90103z" fill="#cfb06b" fill-rule="evenodd"/>
  <g transform="matrix(1.4346 0 0 1.4346 -107.99 -227.04)" filter="url(#o)" opacity=".5197" stroke="#000" stroke-linecap="round" stroke-linejoin="bevel" stroke-width="3.4854">
   <path d="m137.86 439.46-50.479-24.403c-6.1806-3.1251-7.9136-13.72-3.8101-24.258 3.5963-9.2354 10.521-15.483 16.669-15.622 1.1386-0.0257 2.2577 0.16955 3.2716 0.53579l51.287 24.294"/>
   <path d="m457.66 523.88-272.58-131.91c-2.1965-0.9195-4.6006-1.339-7.0469-1.2838-13.21 0.29809-28.086 13.721-35.812 33.562-8.816 22.64-5.0929 45.401 8.1629 52.261l272.11 131.82" stroke-width="3.4854"/>
   <path transform="matrix(16.221 6.3164 -6.3164 16.221 56.957 -171.59)" d="m37.5 31.5c0 1.4498-0.72754 2.625-1.625 2.625s-1.625-1.1752-1.625-2.625 0.72754-2.625 1.625-2.625 1.625 1.1752 1.625 2.625z" stroke-width=".20023"/>
   <path d="m523.85 581.88-75.734-36.039c-1.4658-0.34938-2.5861-0.52072-3.7382-0.49472-6.2215 0.14039-13.236 6.4364-16.875 15.781-4.299 11.04-2.2726 22.16 4.7514 25.027l74.719 35.254" stroke-width="3.4854"/>
   <path transform="matrix(7.6395 2.9748 -2.9748 7.6395 334.26 253.83)" d="m37.5 31.5c0 1.4498-0.72754 2.625-1.625 2.625s-1.625-1.1752-1.625-2.625 0.72754-2.625 1.625-2.625 1.625 1.1752 1.625 2.625z" stroke-width=".42514"/>
  </g>
  <g transform="matrix(1.4346 0 0 1.4346 -171.66 -219.32)" stroke="#1b1818" stroke-width="3.4854">
   <path d="m137.86 439.46-50.479-24.403c-6.1806-3.1251-7.9136-13.72-3.8101-24.258 3.5963-9.2354 10.521-15.483 16.669-15.622 1.1386-0.0257 2.2577 0.16955 3.2716 0.53579l51.287 24.294" fill="url(#d)" stroke="#1b1818" stroke-linecap="round" stroke-linejoin="bevel" stroke-width="3.4854"/>
   <path d="m457.66 523.88-272.58-131.91c-2.1965-0.9195-4.6006-1.339-7.0469-1.2838-13.21 0.29809-28.086 13.721-35.812 33.562-8.816 22.64-5.0929 45.401 8.1629 52.261l272.11 131.82" fill="url(#f)" stroke="#1b1818" stroke-linecap="round" stroke-linejoin="bevel" stroke-width="3.4854"/>
   <path transform="matrix(16.221 6.3164 -6.3164 16.221 56.957 -171.59)" d="m37.5 31.5c0 1.4498-0.72754 2.625-1.625 2.625s-1.625-1.1752-1.625-2.625 0.72754-2.625 1.625-2.625 1.625 1.1752 1.625 2.625z" fill="url(#e)" stroke="#1b1818" stroke-linecap="round" stroke-linejoin="bevel" stroke-width=".20023"/>
   <path transform="matrix(.69708 0 0 .69708 120.16 152.88)" d="m65.155 366.97c-3.0305 4.0406 112.63 68.185 165.16 91.419s193.95 85.358 200.01 81.317-153.54-81.822-185.87-95.459-170.21-83.843-179.3-77.277z" fill="#fff" filter="url(#a)" opacity=".25" stroke="#000" stroke-width="1"/>
   <path transform="matrix(.69708 0 0 .69708 144.24 460.14)" d="m3.5329 14.621c-3.0305 4.0406 114.77 63.9 167.3 87.133s191.09 89.644 197.15 85.603-153.54-84.68-185.87-98.317-169.5-80.986-178.59-74.42z" fill="#0a0000" filter="url(#a)" opacity=".5241" stroke="#000" stroke-width="1"/>
   <path d="m523.85 581.88-75.734-36.039c-1.4658-0.34938-2.5861-0.52072-3.7382-0.49472-6.2215 0.14039-13.236 6.4364-16.875 15.781-4.299 11.04-2.2726 22.16 4.7514 25.027l74.719 35.254" fill="url(#h)" stroke="#1b1918" stroke-linecap="round" stroke-linejoin="bevel" stroke-width="3.4854"/>
   <path transform="matrix(7.6395 2.9748 -2.9748 7.6395 334.26 253.83)" d="m37.5 31.5c0 1.4498-0.72754 2.625-1.625 2.625s-1.625-1.1752-1.625-2.625 0.72754-2.625 1.625-2.625 1.625 1.1752 1.625 2.625z" fill="url(#g)" stroke="#1b1918" stroke-linecap="round" stroke-linejoin="bevel" stroke-width=".42514"/>
   <path transform="matrix(.17647 0 0 .17647 436.05 553.26)" d="m6.3901 6.7639c-3.0305 4.0406 112.63 68.185 165.16 91.419s193.95 85.358 200.01 81.317-153.54-81.822-185.87-95.459-170.21-83.843-179.3-77.277z" fill="#fff" filter="url(#a)" opacity=".25" stroke="#000" stroke-width="1"/>
   <path transform="matrix(.17647 0 0 .17647 430.24 581.51)" d="m6.3901 6.7639c-3.0305 4.0406 112.63 68.185 165.16 91.419s193.95 85.358 200.01 81.317-153.54-81.822-185.87-95.459-170.21-83.843-179.3-77.277z" filter="url(#a)" opacity=".523" stroke="#000" stroke-width="1"/>
   <path transform="matrix(.15639 0 0 .15639 90.096 382.97)" d="m6.3901 6.7639c-3.0305 4.0406 112.63 68.185 165.16 91.419s193.95 85.358 200.01 81.317-153.54-81.822-185.87-95.459-170.21-83.843-179.3-77.277z" fill="#fff" filter="url(#a)" opacity=".25" stroke="#000" stroke-width="1"/>
   <path transform="matrix(.14167 0 0 .14167 83.499 409.11)" d="m6.3901 6.7639c-3.0305 4.0406 112.63 68.185 165.16 91.419s193.95 85.358 200.01 81.317-153.54-81.822-185.87-95.459-170.21-83.843-179.3-77.277z" filter="url(#a)" opacity=".3882" stroke="#000" stroke-width="1"/>
  </g>
  <path d="m89.904 593.75c4.0406 24.244 0 45.457 31.315 61.619s92.934 14.142 92.934 14.142-61.619-80.812-124.25-75.761z" fill="#fff" filter="url(#m)" opacity=".3947"/>
  <path d="m-42.426 506.88c9.2734 38.477 74.751 82.833 86.873 78.792s-38.386-75.761-86.873-78.792z" fill="#fff" filter="url(#n)" opacity=".3947"/>
  <path d="m271.73 695.78c44.447 28.284 46.467 32.325 67.68 28.284s39.396 11.112 33.335-9.0914-31.315-45.457-51.518-39.396-49.497 20.203-49.497 20.203z" fill="#fff" filter="url(#l)" opacity=".3947"/>
  <path transform="matrix(.65942 0 0 .66909 156.04 16.637)" d="m232.34 231.11c162.63 12.122 248.5 71.721 262.64 108.09s-23.234 50.508-57.579 39.396-304.06-104.05-205.06-147.48z" fill="#fff" filter="url(#k)" opacity=".3947"/>
  <path d="m568.72 285.66c53.538 28.284 63.64 40.406 64.65 65.66s-30.305 85.863-45.457 78.792-57.579-119.2-19.193-144.45z" fill="#fff" filter="url(#j)" opacity=".3947"/>
  <path d="m195.97 223.03c-30.305 2.0203-87.883-6.0609-121.22 23.234s6.0609 44.447 33.335 42.426 133.34-47.477 87.883-65.66z" fill="#fff" filter="url(#i)" opacity=".3947"/>
 </g>
</svg>
