<?xml version="1.0" encoding="UTF-8" standalone="no"?>
<svg
   xmlns:dc="http://purl.org/dc/elements/1.1/"
   xmlns:cc="http://creativecommons.org/ns#"
   xmlns:rdf="http://www.w3.org/1999/02/22-rdf-syntax-ns#"
   xmlns:svg="http://www.w3.org/2000/svg"
   xmlns="http://www.w3.org/2000/svg"
   id="svg3741"
   version="1.1"
   viewBox="0 0 59.095917 34.694069"
   height="34.694069mm"
   width="59.095917mm">
  <defs
     id="defs3735">
    <clipPath
       id="clipPath846"
       clipPathUnits="userSpaceOnUse">
      <path
         id="path844"
         d="m 252.208,492.923 h 40.259 v -56.261 h -40.259 z" />
    </clipPath>
  </defs>
  <metadata
     id="metadata3738">
    <rdf:RDF>
      <cc:Work
         rdf:about="">
        <dc:format>image/svg+xml</dc:format>
        <dc:type
           rdf:resource="http://purl.org/dc/dcmitype/StillImage" />
        <dc:title></dc:title>
      </cc:Work>
    </rdf:RDF>
  </metadata>
  <g
     transform="translate(-89.136564,-207.83749)"
     id="layer1">
    <path
       id="path694"
       style="fill:#8cbeb2;fill-opacity:1;fill-rule:nonzero;stroke:none;stroke-width:0.35277775"
       d="m 146.19907,210.28612 c 0,15.1959 -12.31864,27.51455 -27.51455,27.51455 -15.19555,0 -27.514193,-12.31865 -27.514193,-27.51455 z" />
    <path
       id="path698"
       style="fill:#70a093;fill-opacity:1;fill-rule:nonzero;stroke:none;stroke-width:0.35277775"
       d="M 147.00834,210.28612 H 90.361055 c -0.673452,0 -1.224491,-0.55104 -1.224491,-1.22414 v 0 c 0,-0.67345 0.551039,-1.22449 1.224491,-1.22449 h 56.647285 c 0.67346,0 1.22414,0.55104 1.22414,1.22449 v 0 c 0,0.6731 -0.55068,1.22414 -1.22414,1.22414" />
    <g
       transform="matrix(0.35277777,0,0,-0.35277777,126.42115,233.25216)"
       id="g700">
      <path
         id="path702"
         style="fill:#5c4b51;fill-opacity:1;fill-rule:nonzero;stroke:none"
         d="m 0,0 c 0,-1.226 -0.994,-2.219 -2.22,-2.219 -1.225,0 -2.219,0.993 -2.219,2.219 0,1.226 0.994,2.22 2.219,2.22 C -0.994,2.22 0,1.226 0,0" />
    </g>
    <g
       transform="matrix(0.35277777,0,0,-0.35277777,112.65421,233.25216)"
       id="g704">
      <path
         id="path706"
         style="fill:#5c4b51;fill-opacity:1;fill-rule:nonzero;stroke:none"
         d="m 0,0 c 0,-1.226 -0.994,-2.219 -2.219,-2.219 -1.226,0 -2.22,0.993 -2.22,2.219 0,1.226 0.994,2.22 2.22,2.22 C -0.994,2.22 0,1.226 0,0" />
    </g>
    <g
       transform="matrix(0.35277777,0,0,-0.35277777,119.45742,233.25216)"
       id="g708">
      <path
         id="path710"
         style="fill:#5c4b51;fill-opacity:1;fill-rule:nonzero;stroke:none"
         d="m 0,0 c 0,-1.226 -0.994,-2.219 -2.219,-2.219 -1.226,0 -2.22,0.993 -2.22,2.219 0,1.226 0.994,2.22 2.22,2.22 C -0.994,2.22 0,1.226 0,0" />
    </g>
    <g
       transform="matrix(0.35277777,0,0,-0.35277777,129.90226,229.48118)"
       id="g712">
      <path
         id="path714"
         style="fill:#5c4b51;fill-opacity:1;fill-rule:nonzero;stroke:none"
         d="m 0,0 c 0,-1.226 -0.994,-2.219 -2.219,-2.219 -1.226,0 -2.22,0.993 -2.22,2.219 0,1.226 0.994,2.22 2.22,2.22 C -0.994,2.22 0,1.226 0,0" />
    </g>
    <g
       transform="matrix(0.35277777,0,0,-0.35277777,122.94587,229.48118)"
       id="g716">
      <path
         id="path718"
         style="fill:#5c4b51;fill-opacity:1;fill-rule:nonzero;stroke:none"
         d="m 0,0 c 0,-1.226 -0.994,-2.219 -2.22,-2.219 -1.225,0 -2.219,0.993 -2.219,2.219 0,1.226 0.994,2.22 2.219,2.22 C -0.994,2.22 0,1.226 0,0" />
    </g>
    <g
       transform="matrix(0.35277777,0,0,-0.35277777,115.98944,229.48118)"
       id="g720">
      <path
         id="path722"
         style="fill:#5c4b51;fill-opacity:1;fill-rule:nonzero;stroke:none"
         d="m 0,0 c 0,-1.226 -0.994,-2.219 -2.219,-2.219 -1.226,0 -2.22,0.993 -2.22,2.219 0,1.226 0.994,2.22 2.22,2.22 C -0.994,2.22 0,1.226 0,0" />
    </g>
    <g
       transform="matrix(0.35277777,0,0,-0.35277777,109.03302,229.48118)"
       id="g724">
      <path
         id="path726"
         style="fill:#5c4b51;fill-opacity:1;fill-rule:nonzero;stroke:none"
         d="m 0,0 c 0,-1.226 -0.994,-2.219 -2.219,-2.219 -1.226,0 -2.22,0.993 -2.22,2.219 0,1.226 0.994,2.22 2.22,2.22 C -0.994,2.22 0,1.226 0,0" />
    </g>
    <g
       transform="matrix(0.35277777,0,0,-0.35277777,95.120168,213.77315)"
       id="g728">
      <path
         id="path730"
         style="fill:#5c4b51;fill-opacity:1;fill-rule:nonzero;stroke:none"
         d="m 0,0 c 0,-1.226 -0.994,-2.219 -2.219,-2.219 -1.226,0 -2.22,0.993 -2.22,2.219 0,1.226 0.994,2.219 2.22,2.219 C -0.994,2.219 0,1.226 0,0" />
    </g>
    <g
       transform="matrix(0.35277777,0,0,-0.35277777,102.07659,213.77315)"
       id="g732">
      <path
         id="path734"
         style="fill:#5c4b51;fill-opacity:1;fill-rule:nonzero;stroke:none"
         d="m 0,0 c 0,-1.226 -0.994,-2.219 -2.219,-2.219 -1.226,0 -2.22,0.993 -2.22,2.219 0,1.226 0.994,2.219 2.22,2.219 C -0.994,2.219 0,1.226 0,0" />
    </g>
    <g
       transform="matrix(0.35277777,0,0,-0.35277777,109.03302,213.77315)"
       id="g736">
      <path
         id="path738"
         style="fill:#5c4b51;fill-opacity:1;fill-rule:nonzero;stroke:none"
         d="m 0,0 c 0,-1.226 -0.994,-2.219 -2.219,-2.219 -1.226,0 -2.22,0.993 -2.22,2.219 0,1.226 0.994,2.219 2.22,2.219 C -0.994,2.219 0,1.226 0,0" />
    </g>
    <g
       transform="matrix(0.35277777,0,0,-0.35277777,115.98944,213.77315)"
       id="g740">
      <path
         id="path742"
         style="fill:#5c4b51;fill-opacity:1;fill-rule:nonzero;stroke:none"
         d="m 0,0 c 0,-1.226 -0.994,-2.219 -2.219,-2.219 -1.226,0 -2.22,0.993 -2.22,2.219 0,1.226 0.994,2.219 2.22,2.219 C -0.994,2.219 0,1.226 0,0" />
    </g>
    <g
       transform="matrix(0.35277777,0,0,-0.35277777,122.94587,213.77315)"
       id="g744">
      <path
         id="path746"
         style="fill:#5c4b51;fill-opacity:1;fill-rule:nonzero;stroke:none"
         d="m 0,0 c 0,-1.226 -0.994,-2.219 -2.22,-2.219 -1.225,0 -2.219,0.993 -2.219,2.219 0,1.226 0.994,2.219 2.219,2.219 C -0.994,2.219 0,1.226 0,0" />
    </g>
    <g
       transform="matrix(0.35277777,0,0,-0.35277777,136.85868,213.77315)"
       id="g748">
      <path
         id="path750"
         style="fill:#5c4b51;fill-opacity:1;fill-rule:nonzero;stroke:none"
         d="m 0,0 c 0,-1.226 -0.994,-2.219 -2.219,-2.219 -1.226,0 -2.22,0.993 -2.22,2.219 0,1.226 0.994,2.219 2.22,2.219 C -0.994,2.219 0,1.226 0,0" />
    </g>
    <g
       transform="matrix(0.35277777,0,0,-0.35277777,129.90226,213.77315)"
       id="g752">
      <path
         id="path754"
         style="fill:#5c4b51;fill-opacity:1;fill-rule:nonzero;stroke:none"
         d="m 0,0 c 0,-1.226 -0.994,-2.219 -2.219,-2.219 -1.226,0 -2.22,0.993 -2.22,2.219 0,1.226 0.994,2.219 2.22,2.219 C -0.994,2.219 0,1.226 0,0" />
    </g>
    <g
       transform="matrix(0.35277777,0,0,-0.35277777,143.81511,213.77315)"
       id="g756">
      <path
         id="path758"
         style="fill:#5c4b51;fill-opacity:1;fill-rule:nonzero;stroke:none"
         d="m 0,0 c 0,-1.226 -0.994,-2.219 -2.219,-2.219 -1.226,0 -2.22,0.993 -2.22,2.219 0,1.226 0.994,2.219 2.22,2.219 C -0.994,2.219 0,1.226 0,0" />
    </g>
    <g
       transform="matrix(0.35277777,0,0,-0.35277777,133.23265,225.38243)"
       id="g760">
      <path
         id="path762"
         style="fill:#5c4b51;fill-opacity:1;fill-rule:nonzero;stroke:none"
         d="m 0,0 c 0,-1.226 -0.994,-2.219 -2.219,-2.219 -1.226,0 -2.22,0.993 -2.22,2.219 0,1.226 0.994,2.219 2.22,2.219 C -0.994,2.219 0,1.226 0,0" />
    </g>
    <g
       transform="matrix(0.35277777,0,0,-0.35277777,126.34502,225.38243)"
       id="g764">
      <path
         id="path766"
         style="fill:#5c4b51;fill-opacity:1;fill-rule:nonzero;stroke:none"
         d="m 0,0 c 0,-1.226 -0.994,-2.219 -2.219,-2.219 -1.226,0 -2.22,0.993 -2.22,2.219 0,1.226 0.994,2.219 2.22,2.219 C -0.994,2.219 0,1.226 0,0" />
    </g>
    <g
       transform="matrix(0.35277777,0,0,-0.35277777,119.45742,225.38243)"
       id="g768">
      <path
         id="path770"
         style="fill:#5c4b51;fill-opacity:1;fill-rule:nonzero;stroke:none"
         d="m 0,0 c 0,-1.226 -0.994,-2.219 -2.219,-2.219 -1.226,0 -2.22,0.993 -2.22,2.219 0,1.226 0.994,2.219 2.22,2.219 C -0.994,2.219 0,1.226 0,0" />
    </g>
    <g
       transform="matrix(0.35277777,0,0,-0.35277777,112.56983,225.38243)"
       id="g772">
      <path
         id="path774"
         style="fill:#5c4b51;fill-opacity:1;fill-rule:nonzero;stroke:none"
         d="m 0,0 c 0,-1.226 -0.994,-2.219 -2.219,-2.219 -1.226,0 -2.22,0.993 -2.22,2.219 0,1.226 0.994,2.219 2.22,2.219 C -0.994,2.219 0,1.226 0,0" />
    </g>
    <g
       transform="matrix(0.35277777,0,0,-0.35277777,105.68223,225.38243)"
       id="g776">
      <path
         id="path778"
         style="fill:#5c4b51;fill-opacity:1;fill-rule:nonzero;stroke:none"
         d="m 0,0 c 0,-1.226 -0.994,-2.219 -2.219,-2.219 -1.226,0 -2.22,0.993 -2.22,2.219 0,1.226 0.994,2.219 2.22,2.219 C -0.994,2.219 0,1.226 0,0" />
    </g>
    <g
       transform="matrix(0.35277777,0,0,-0.35277777,136.85868,221.54918)"
       id="g780">
      <path
         id="path782"
         style="fill:#5c4b51;fill-opacity:1;fill-rule:nonzero;stroke:none"
         d="m 0,0 c 0,-1.226 -0.994,-2.219 -2.219,-2.219 -1.226,0 -2.22,0.993 -2.22,2.219 0,1.226 0.994,2.219 2.22,2.219 C -0.994,2.219 0,1.226 0,0" />
    </g>
    <g
       transform="matrix(0.35277777,0,0,-0.35277777,129.90226,221.54918)"
       id="g784">
      <path
         id="path786"
         style="fill:#5c4b51;fill-opacity:1;fill-rule:nonzero;stroke:none"
         d="m 0,0 c 0,-1.226 -0.994,-2.219 -2.219,-2.219 -1.226,0 -2.22,0.993 -2.22,2.219 0,1.226 0.994,2.219 2.22,2.219 C -0.994,2.219 0,1.226 0,0" />
    </g>
    <g
       transform="matrix(0.35277777,0,0,-0.35277777,122.94587,221.54918)"
       id="g788">
      <path
         id="path790"
         style="fill:#5c4b51;fill-opacity:1;fill-rule:nonzero;stroke:none"
         d="m 0,0 c 0,-1.226 -0.994,-2.219 -2.22,-2.219 -1.225,0 -2.219,0.993 -2.219,2.219 0,1.226 0.994,2.219 2.219,2.219 C -0.994,2.219 0,1.226 0,0" />
    </g>
    <g
       transform="matrix(0.35277777,0,0,-0.35277777,115.98944,221.54918)"
       id="g792">
      <path
         id="path794"
         style="fill:#5c4b51;fill-opacity:1;fill-rule:nonzero;stroke:none"
         d="m 0,0 c 0,-1.226 -0.994,-2.219 -2.219,-2.219 -1.226,0 -2.22,0.993 -2.22,2.219 0,1.226 0.994,2.219 2.22,2.219 C -0.994,2.219 0,1.226 0,0" />
    </g>
    <g
       transform="matrix(0.35277777,0,0,-0.35277777,109.03302,221.54918)"
       id="g796">
      <path
         id="path798"
         style="fill:#5c4b51;fill-opacity:1;fill-rule:nonzero;stroke:none"
         d="m 0,0 c 0,-1.226 -0.994,-2.219 -2.219,-2.219 -1.226,0 -2.22,0.993 -2.22,2.219 0,1.226 0.994,2.219 2.22,2.219 C -0.994,2.219 0,1.226 0,0" />
    </g>
    <g
       transform="matrix(0.35277777,0,0,-0.35277777,102.07659,221.54918)"
       id="g800">
      <path
         id="path802"
         style="fill:#5c4b51;fill-opacity:1;fill-rule:nonzero;stroke:none"
         d="m 0,0 c 0,-1.226 -0.994,-2.219 -2.219,-2.219 -1.226,0 -2.22,0.993 -2.22,2.219 0,1.226 0.994,2.219 2.22,2.219 C -0.994,2.219 0,1.226 0,0" />
    </g>
    <g
       transform="matrix(0.35277777,0,0,-0.35277777,140.32913,217.56519)"
       id="g804">
      <path
         id="path806"
         style="fill:#5c4b51;fill-opacity:1;fill-rule:nonzero;stroke:none"
         d="m 0,0 c 0,-1.226 -0.994,-2.219 -2.219,-2.219 -1.226,0 -2.22,0.993 -2.22,2.219 0,1.226 0.994,2.22 2.22,2.22 C -0.994,2.22 0,1.226 0,0" />
    </g>
    <g
       transform="matrix(0.35277777,0,0,-0.35277777,133.37789,217.56519)"
       id="g808">
      <path
         id="path810"
         style="fill:#5c4b51;fill-opacity:1;fill-rule:nonzero;stroke:none"
         d="m 0,0 c 0,-1.226 -0.994,-2.219 -2.219,-2.219 -1.226,0 -2.22,0.993 -2.22,2.219 0,1.226 0.994,2.22 2.22,2.22 C -0.994,2.22 0,1.226 0,0" />
    </g>
    <g
       transform="matrix(0.35277777,0,0,-0.35277777,126.42666,217.56519)"
       id="g812">
      <path
         id="path814"
         style="fill:#5c4b51;fill-opacity:1;fill-rule:nonzero;stroke:none"
         d="m 0,0 c 0,-1.226 -0.994,-2.219 -2.22,-2.219 -1.225,0 -2.219,0.993 -2.219,2.219 0,1.226 0.994,2.22 2.219,2.22 C -0.994,2.22 0,1.226 0,0" />
    </g>
    <g
       transform="matrix(0.35277777,0,0,-0.35277777,119.47542,217.56519)"
       id="g816">
      <path
         id="path818"
         style="fill:#5c4b51;fill-opacity:1;fill-rule:nonzero;stroke:none"
         d="m 0,0 c 0,-1.226 -0.994,-2.219 -2.22,-2.219 -1.225,0 -2.219,0.993 -2.219,2.219 0,1.226 0.994,2.22 2.219,2.22 C -0.994,2.22 0,1.226 0,0" />
    </g>
    <g
       transform="matrix(0.35277777,0,0,-0.35277777,112.52418,217.56519)"
       id="g820">
      <path
         id="path822"
         style="fill:#5c4b51;fill-opacity:1;fill-rule:nonzero;stroke:none"
         d="m 0,0 c 0,-1.226 -0.994,-2.219 -2.22,-2.219 -1.225,0 -2.219,0.993 -2.219,2.219 0,1.226 0.994,2.22 2.219,2.22 C -0.994,2.22 0,1.226 0,0" />
    </g>
    <g
       transform="matrix(0.35277777,0,0,-0.35277777,105.57297,217.56519)"
       id="g824">
      <path
         id="path826"
         style="fill:#5c4b51;fill-opacity:1;fill-rule:nonzero;stroke:none"
         d="m 0,0 c 0,-1.226 -0.994,-2.219 -2.22,-2.219 -1.225,0 -2.219,0.993 -2.219,2.219 0,1.226 0.994,2.22 2.219,2.22 C -0.994,2.22 0,1.226 0,0" />
    </g>
    <g
       transform="matrix(0.35277777,0,0,-0.35277777,98.621735,217.56519)"
       id="g828">
      <path
         id="path830"
         style="fill:#5c4b51;fill-opacity:1;fill-rule:nonzero;stroke:none"
         d="m 0,0 c 0,-1.226 -0.994,-2.219 -2.22,-2.219 -1.225,0 -2.219,0.993 -2.219,2.219 0,1.226 0.994,2.22 2.219,2.22 C -0.994,2.22 0,1.226 0,0" />
    </g>
    <g
       transform="matrix(0.35277777,0,0,-0.35277777,128.13075,242.53156)"
       id="g832">
      <path
         id="path834"
         style="fill:#5c4b51;fill-opacity:1;fill-rule:nonzero;stroke:none"
         d="m 0,0 h -51.495 c -2.717,0 -4.941,2.223 -4.941,4.941 0,2.717 2.224,4.941 4.941,4.941 H 0 C 2.717,9.882 4.941,7.658 4.941,4.941 4.941,2.223 2.717,0 0,0" />
    </g>
    <g
       transform="matrix(0.35277777,0,0,-0.35277777,109.21166,239.41904)"
       id="g836">
      <path
         id="path838"
         style="fill:#5c4b51;fill-opacity:1;fill-rule:nonzero;stroke:none"
         d="m 0,0 c 6.737,1.637 7.133,7.692 7.133,7.692 0,0 18.426,-5.751 41.569,0 0,0 0.396,-6.055 7.133,-7.692 z" />
    </g>
    <g
       id="g840"
       transform="matrix(0.35277777,0,0,-0.35277777,4.5103968,386.849)">
      <g
         id="g842" />
      <g
         id="g854">
        <g
           style="opacity:0.44999701"
           id="g852"
           clip-path="url(#clipPath846)">
          <g
             id="g850"
             transform="translate(255.7076,489.4234)">
            <path
               id="path848"
               style="fill:none;stroke:#ffffff;stroke-width:7;stroke-linecap:round;stroke-linejoin:round;stroke-miterlimit:10;stroke-dasharray:none;stroke-opacity:1"
               d="M 0,0 C 0,0 4.496,-30.313 33.259,-49.261" />
          </g>
        </g>
      </g>
    </g>
  </g>
</svg>
