<?xml version="1.0" encoding="UTF-8" standalone="no"?>
<!-- Created with Inkscape (http://www.inkscape.org/) -->

<svg
   xmlns:dc="http://purl.org/dc/elements/1.1/"
   xmlns:cc="http://creativecommons.org/ns#"
   xmlns:rdf="http://www.w3.org/1999/02/22-rdf-syntax-ns#"
   xmlns:svg="http://www.w3.org/2000/svg"
   xmlns="http://www.w3.org/2000/svg"
   xmlns:sodipodi="http://sodipodi.sourceforge.net/DTD/sodipodi-0.dtd"
   xmlns:inkscape="http://www.inkscape.org/namespaces/inkscape"
   width="34.395836mm"
   height="23.733126mm"
   viewBox="0 0 34.395837 23.733126"
   version="1.1"
   id="svg2328"
   inkscape:version="0.92.4 (f8dce91, 2019-08-02)"
   sodipodi:docname="cutting_board.svg">
  <defs
     id="defs2322" />
  <sodipodi:namedview
     id="base"
     pagecolor="#ffffff"
     bordercolor="#666666"
     borderopacity="1.0"
     inkscape:pageopacity="0.0"
     inkscape:pageshadow="2"
     inkscape:zoom="2.8"
     inkscape:cx="28.50024"
     inkscape:cy="23.029637"
     inkscape:document-units="mm"
     inkscape:current-layer="layer1"
     showgrid="false"
     inkscape:window-width="1317"
     inkscape:window-height="713"
     inkscape:window-x="49"
     inkscape:window-y="27"
     inkscape:window-maximized="1" />
  <metadata
     id="metadata2325">
    <rdf:RDF>
      <cc:Work
         rdf:about="">
        <dc:format>image/svg+xml</dc:format>
        <dc:type
           rdf:resource="http://purl.org/dc/dcmitype/StillImage" />
        <dc:title></dc:title>
      </cc:Work>
    </rdf:RDF>
  </metadata>
  <g
     inkscape:label="Layer 1"
     inkscape:groupmode="layer"
     id="layer1"
     transform="translate(-67.980387,-100.2987)">
    <g
       id="g5268"
       transform="matrix(1.3,0,0,1.3,-20.39411,-37.209537)"
       style="stroke-width:0.76923078">
      <path
         inkscape:connector-curvature="0"
         id="path1398"
         style="fill:#f3b562;fill-opacity:1;fill-rule:nonzero;stroke:none;stroke-width:0.11423631"
         d="m 94.438716,106.51903 v 16.76932 c 0,0.40891 -0.334141,0.74347 -0.742537,0.74347 H 72.512668 c -0.408395,0 -0.742536,-0.33456 -0.742536,-0.74347 v -16.76932 c 0,-0.4089 0.334141,-0.74346 0.742536,-0.74346 h 21.183511 c 0.408396,0 0.742537,0.33456 0.742537,0.74346" />
      <path
         inkscape:connector-curvature="0"
         id="path1406"
         style="fill:#f3b562;fill-opacity:1;fill-rule:nonzero;stroke:none;stroke-width:0.11423631"
         d="m 70.19017,114.74437 c 0,0.37188 -0.301173,0.67343 -0.67259,0.67343 -0.371416,0 -0.672589,-0.30155 -0.672589,-0.67343 0,-0.37188 0.301173,-0.67343 0.672589,-0.67343 0.371417,0 0.67259,0.30155 0.67259,0.67343 m -2.209788,0 c 0,0.73559 0.601157,1.33749 1.335971,1.33749 h 2.754363 c 0.734665,0 1.335822,-0.6019 1.335822,-1.33749 0,-0.73558 -0.601157,-1.3375 -1.335822,-1.3375 h -2.754363 c -0.734814,0 -1.335971,0.60192 -1.335971,1.3375" />
    </g>
  </g>
</svg>
