<?xml version="1.0" encoding="UTF-8" standalone="no"?>
<svg
   xmlns:dc="http://purl.org/dc/elements/1.1/"
   xmlns:cc="http://creativecommons.org/ns#"
   xmlns:rdf="http://www.w3.org/1999/02/22-rdf-syntax-ns#"
   xmlns:svg="http://www.w3.org/2000/svg"
   xmlns="http://www.w3.org/2000/svg"
   xmlns:sodipodi="http://sodipodi.sourceforge.net/DTD/sodipodi-0.dtd"
   xmlns:inkscape="http://www.inkscape.org/namespaces/inkscape"
   viewBox="0 0 799.99995 226.57567"
   height="226.57567"
   width="800"
   xml:space="preserve"
   id="svg2"
   version="1.1"
   sodipodi:docname="kitchen3.svg"
   inkscape:version="0.92.3 (2405546, 2018-03-11)"><sodipodi:namedview
     pagecolor="#ffffff"
     bordercolor="#666666"
     borderopacity="1"
     objecttolerance="10"
     gridtolerance="10"
     guidetolerance="10"
     inkscape:pageopacity="0"
     inkscape:pageshadow="2"
     inkscape:window-width="1317"
     inkscape:window-height="713"
     id="namedview5470"
     showgrid="false"
     inkscape:zoom="1.3933333"
     inkscape:cx="278.24067"
     inkscape:cy="172.81735"
     inkscape:window-x="49"
     inkscape:window-y="27"
     inkscape:window-maximized="1"
     inkscape:current-layer="g6474" /><metadata
     id="metadata8"><rdf:RDF><cc:Work
         rdf:about=""><dc:format>image/svg+xml</dc:format><dc:type
           rdf:resource="http://purl.org/dc/dcmitype/StillImage" /><dc:title></dc:title></cc:Work></rdf:RDF></metadata><defs
     id="defs6"><clipPath
       id="clipPath28"
       clipPathUnits="userSpaceOnUse"><path
         id="path26"
         d="M 0,799.92 H 799.92 V 0 H 0 Z"
         inkscape:connector-curvature="0" /></clipPath><clipPath
       id="clipPath582"
       clipPathUnits="userSpaceOnUse"><path
         id="path580"
         d="M 0,799.92 H 799.92 V 0 H 0 Z"
         inkscape:connector-curvature="0" /></clipPath></defs><g
     id="g22"
     transform="matrix(1.5,0,0,-0.89303611,-69.369,250.52547)"><g
       id="g24"
       clip-path="url(#clipPath28)"><g
         id="g6474"><path
           id="path42"
           style="fill:#00837b;fill-opacity:1;fill-rule:evenodd;stroke:none;stroke-width:0.75390476"
           d="M 60.374929,79.682654 H 186.64342 V 221.01642 H 60.374929 Z"
           inkscape:connector-curvature="0" /><path
           id="path44"
           style="fill:#3b2f1f;fill-opacity:1;fill-rule:evenodd;stroke:none;stroke-width:0.75390476"
           d="m 46.246,218.8203 h 533.33333 v 10.59915 H 46.246 Z"
           inkscape:connector-curvature="0" /><path
           id="path46"
           style="fill:#f1a51c;fill-opacity:1;fill-rule:evenodd;stroke:none;stroke-width:0.75390476"
           d="M 66.184519,190.62049 H 180.83308 v 23.169 H 66.184519 Z"
           inkscape:connector-curvature="0" /><path
           id="path48"
           style="fill:#b8d8d5;fill-opacity:1;fill-rule:evenodd;stroke:none;stroke-width:0.75390476"
           d="M 66.184519,98.52198 H 180.83308 v 77.28428 H 66.184519 Z"
           inkscape:connector-curvature="0" /><g
           transform="matrix(0.75390476,0,0,0.75390476,66.184821,98.521754)"
           id="g50"><path
             id="path52"
             style="fill:#ddf0ee;fill-opacity:1;fill-rule:evenodd;stroke:none"
             d="M 0,0 152.073,102.512 H 0 Z"
             inkscape:connector-curvature="0" /></g><path
           id="path54"
           style="fill:#f1a51c;fill-opacity:1;fill-rule:evenodd;stroke:none;stroke-width:0.75390476"
           d="m 186.64417,79.683408 h 63.13425 V 218.8203 h -63.13425 z"
           inkscape:connector-curvature="0" /><path
           id="path56"
           style="fill:#00837b;fill-opacity:1;fill-rule:evenodd;stroke:none;stroke-width:0.75390476"
           d="M 439.18116,79.683408 H 502.3154 V 218.8203 h -63.13424 z"
           inkscape:connector-curvature="0" /><path
           id="path58"
           style="fill:#e83e5b;fill-opacity:1;fill-rule:evenodd;stroke:none;stroke-width:0.75390476"
           d="m 312.91267,172.44159 h 126.26849 v 46.37946 H 312.91267 Z"
           inkscape:connector-curvature="0" /><path
           id="path60"
           style="fill:#f1a51c;fill-opacity:1;fill-rule:evenodd;stroke:none;stroke-width:0.75390476"
           d="m 249.77767,79.683408 h 63.13424 V 218.8203 h -63.13424 z"
           inkscape:connector-curvature="0" /><path
           id="path62"
           style="fill:#00837b;fill-opacity:1;fill-rule:evenodd;stroke:none;stroke-width:0.75390476"
           d="m 502.3154,79.683408 h 63.135 V 218.8203 h -63.135 z"
           inkscape:connector-curvature="0" /><g
           transform="matrix(0.75390476,0,0,0.75390476,236.67216,199.48242)"
           id="g64"><path
             id="path66"
             style="fill:#ffffff;fill-opacity:1;fill-rule:evenodd;stroke:none"
             d="m 0,0 c 3.842,0 6.976,3.134 6.976,6.976 0,3.842 -3.134,6.975 -6.976,6.975 -3.842,0 -6.976,-3.133 -6.976,-6.975 C -6.976,3.134 -3.842,0 0,0"
             inkscape:connector-curvature="0" /></g><g
           transform="matrix(0.75390476,0,0,0.75390476,262.56186,199.48242)"
           id="g68"><path
             id="path70"
             style="fill:#ffffff;fill-opacity:1;fill-rule:evenodd;stroke:none"
             d="m 0,0 c 3.842,0 6.976,3.134 6.976,6.976 0,3.842 -3.134,6.975 -6.976,6.975 -3.842,0 -6.975,-3.133 -6.975,-6.975 C -6.975,3.134 -3.842,0 0,0"
             inkscape:connector-curvature="0" /></g><g
           transform="matrix(0.75390476,0,0,0.75390476,80.185737,159.51664)"
           id="g72"><path
             id="path74"
             style="fill:#3b2f1f;fill-opacity:1;fill-rule:evenodd;stroke:none"
             d="m 0,0 h 114.931 c 2.902,0 5.276,2.374 5.276,5.275 v 10e-4 c 0,2.902 -2.374,5.275 -5.276,5.275 L 0,10.551 c -2.901,0 -5.275,-2.373 -5.275,-5.275 V 5.275 C -5.275,2.374 -2.901,0 0,0"
             inkscape:connector-curvature="0" /></g><g
           transform="matrix(0.75390476,0,0,0.75390476,78.390086,196.11563)"
           id="g76"><path
             id="path78"
             style="fill:#00837b;fill-opacity:1;fill-rule:evenodd;stroke:none"
             d="m 0,0 c 4.499,0 8.167,3.669 8.167,8.167 0,4.498 -3.668,8.167 -8.167,8.167 -4.498,0 -8.167,-3.669 -8.167,-8.167 C -8.167,3.669 -4.498,0 0,0"
             inkscape:connector-curvature="0" /></g><g
           transform="matrix(0.75390476,0,0,0.75390476,97.242832,196.11563)"
           id="g80"><path
             id="path82"
             style="fill:#00837b;fill-opacity:1;fill-rule:evenodd;stroke:none"
             d="m 0,0 c 4.498,0 8.167,3.669 8.167,8.167 0,4.498 -3.669,8.167 -8.167,8.167 -4.499,0 -8.167,-3.669 -8.167,-8.167 C -8.167,3.669 -4.499,0 0,0"
             inkscape:connector-curvature="0" /></g><g
           transform="matrix(0.75390476,0,0,0.75390476,116.09528,196.11563)"
           id="g84"><path
             id="path86"
             style="fill:#00837b;fill-opacity:1;fill-rule:evenodd;stroke:none"
             d="m 0,0 c 4.498,0 8.167,3.669 8.167,8.167 0,4.498 -3.669,8.167 -8.167,8.167 -4.499,0 -8.167,-3.669 -8.167,-8.167 C -8.167,3.669 -4.499,0 0,0"
             inkscape:connector-curvature="0" /></g><g
           transform="matrix(0.75390476,0,0,0.75390476,134.94802,196.11563)"
           id="g88"><path
             id="path90"
             style="fill:#00837b;fill-opacity:1;fill-rule:evenodd;stroke:none"
             d="m 0,0 c 4.498,0 8.167,3.669 8.167,8.167 0,4.498 -3.669,8.167 -8.167,8.167 -4.499,0 -8.167,-3.669 -8.167,-8.167 C -8.167,3.669 -4.499,0 0,0"
             inkscape:connector-curvature="0" /></g><g
           transform="matrix(0.75390476,0,0,0.75390476,166.31204,196.11563)"
           id="g92"><path
             id="path94"
             style="fill:#00837b;fill-opacity:1;fill-rule:evenodd;stroke:none"
             d="m 0,0 c 4.499,0 8.167,3.669 8.167,8.167 0,4.498 -3.668,8.167 -8.167,8.167 -4.498,0 -8.167,-3.669 -8.167,-8.167 C -8.167,3.669 -4.498,0 0,0"
             inkscape:connector-curvature="0" /></g><g
           transform="matrix(0.75390476,0,0,0.75390476,376.04699,199.48242)"
           id="g96"><path
             id="path98"
             style="fill:#ffffff;fill-opacity:1;fill-rule:evenodd;stroke:none"
             d="m 0,0 c 3.842,0 6.976,3.134 6.976,6.976 0,3.842 -3.134,6.975 -6.976,6.975 -3.842,0 -6.976,-3.133 -6.976,-6.975 C -6.976,3.134 -3.842,0 0,0"
             inkscape:connector-curvature="0" /></g><path
           id="path100"
           style="fill:#e83e5b;fill-opacity:1;fill-rule:evenodd;stroke:none;stroke-width:0.75390476"
           d="m 312.91267,126.06212 h 126.26849 v 46.37947 H 312.91267 Z"
           inkscape:connector-curvature="0" /><g
           transform="matrix(0.75390476,0,0,0.75390476,376.04699,153.10401)"
           id="g102"><path
             id="path104"
             style="fill:#ffffff;fill-opacity:1;fill-rule:evenodd;stroke:none"
             d="m 0,0 c 3.842,0 6.976,3.133 6.976,6.976 0,3.841 -3.134,6.975 -6.976,6.975 -3.842,0 -6.976,-3.134 -6.976,-6.975 C -6.976,3.133 -3.842,0 0,0"
             inkscape:connector-curvature="0" /></g><path
           id="path106"
           style="fill:#e83e5b;fill-opacity:1;fill-rule:evenodd;stroke:none;stroke-width:0.75390476"
           d="M 312.91267,79.682654 H 439.18116 V 126.06212 H 312.91267 Z"
           inkscape:connector-curvature="0" /><g
           transform="matrix(0.75390476,0,0,0.75390476,376.04699,106.72492)"
           id="g108"><path
             id="path110"
             style="fill:#ffffff;fill-opacity:1;fill-rule:evenodd;stroke:none"
             d="m 0,0 c 3.842,0 6.976,3.134 6.976,6.976 0,3.841 -3.134,6.975 -6.976,6.975 -3.842,0 -6.976,-3.134 -6.976,-6.975 C -6.976,3.134 -3.842,0 0,0"
             inkscape:connector-curvature="0" /></g><g
           transform="matrix(0.75390476,0,0,0.75390476,489.48025,199.48242)"
           id="g112"><path
             id="path114"
             style="fill:#ffffff;fill-opacity:1;fill-rule:evenodd;stroke:none"
             d="m 0,0 c 3.842,0 6.976,3.134 6.976,6.976 0,3.842 -3.134,6.975 -6.976,6.975 -3.842,0 -6.976,-3.133 -6.976,-6.975 C -6.976,3.134 -3.842,0 0,0"
             inkscape:connector-curvature="0" /></g><g
           transform="matrix(0.75390476,0,0,0.75390476,515.36994,199.48242)"
           id="g116"><path
             id="path118"
             style="fill:#ffffff;fill-opacity:1;fill-rule:evenodd;stroke:none"
             d="m 0,0 c 3.842,0 6.976,3.134 6.976,6.976 0,3.842 -3.134,6.975 -6.976,6.975 -3.842,0 -6.976,-3.133 -6.976,-6.975 C -6.976,3.134 -3.842,0 0,0"
             inkscape:connector-curvature="0" /></g><g
           transform="matrix(0.75390476,0,0,0.75390476,61.340002,359.01907)"
           id="g122" /><g
           transform="matrix(0.75390476,0,0,0.75390476,225.03896,24.862168)"
           id="g128" /><g
           transform="matrix(0.75390476,0,0,0.75390476,233.58477,28.302612)"
           id="g132" /><g
           transform="matrix(0.75390476,0,0,0.75390476,244.54293,27.366112)"
           id="g136" /><g
           transform="matrix(0.75390476,0,0,0.75390476,247.50698,31.647311)"
           id="g140" /><g
           transform="matrix(0.75390476,0,0,0.75390476,252.28591,25.038883)"
           id="g144" /><g
           transform="matrix(0.75390476,0,0,0.75390476,259.17705,31.676035)"
           id="g148" /><g
           transform="matrix(0.75390476,0,0,0.75390476,269.0183,28.302612)"
           id="g152" /><g
           transform="matrix(0.75390476,0,0,0.75390476,277.06238,24.862168)"
           id="g156" /><g
           transform="matrix(0.75390476,0,0,0.75390476,287.02772,34.547356)"
           id="g160" /><g
           transform="matrix(0.75390476,0,0,0.75390476,295.35566,24.565506)"
           id="g164" /><g
           transform="matrix(0.75390476,0,0,0.75390476,323.6742,32.588259)"
           id="g168" /><g
           transform="matrix(0.75390476,0,0,0.75390476,330.07425,27.631939)"
           id="g172" /><g
           transform="matrix(0.75390476,0,0,0.75390476,337.00814,28.304799)"
           id="g176" /><g
           transform="matrix(0.75390476,0,0,0.75390476,345.14134,28.304799)"
           id="g180" /><g
           transform="matrix(0.75390476,0,0,0.75390476,351.47587,31.661333)"
           id="g184" /><g
           transform="matrix(0.75390476,0,0,0.75390476,360.20911,31.651759)"
           id="g188" /><g
           transform="matrix(0.75390476,0,0,0.75390476,366.51205,25.702998)"
           id="g192" /><g
           transform="matrix(0.75390476,0,0,0.75390476,370.76008,24.810676)"
           id="g196" /><g
           transform="matrix(0.75390476,0,0,0.75390476,380.48432,27.230635)"
           id="g200" /><g
           transform="matrix(0.75390476,0,0,0.75390476,385.02833,24.809168)"
           id="g204" /><g
           transform="matrix(0.75390476,0,0,0.75390476,396.37889,28.640588)"
           id="g208" /><g
           transform="matrix(0.75390476,0,0,0.75390476,305.37875,29.257508)"
           id="g212"><path
             id="path214"
             style="fill:#3b2f1f;fill-opacity:1;fill-rule:nonzero;stroke:none"
             d="M 0,0 C -0.002,0.005 -0.002,0.01 -0.002,0.018 -0.002,0.01 -0.002,0.005 0,0"
             inkscape:connector-curvature="0" /></g><g
           transform="matrix(0.75390476,0,0,0.75390476,305.47743,28.632446)"
           id="g216"><path
             id="path218"
             style="fill:#3b2f1f;fill-opacity:1;fill-rule:nonzero;stroke:none"
             d="M 0,0 H 0.003 C -0.047,0.236 -0.085,0.471 -0.116,0.702 -0.085,0.469 -0.047,0.233 0,0"
             inkscape:connector-curvature="0" /></g><g
           transform="matrix(0.75390476,0,0,0.75390476,306.12458,26.8184)"
           id="g220"><path
             id="path222"
             style="fill:#3b2f1f;fill-opacity:1;fill-rule:nonzero;stroke:none"
             d="M 0,0 C -0.006,0.01 -0.011,0.021 -0.017,0.033 -0.011,0.021 -0.006,0.01 0,0"
             inkscape:connector-curvature="0" /></g><g
           transform="matrix(0.75390476,0,0,0.75390476,306.06269,26.9391)"
           id="g224"><path
             id="path226"
             style="fill:#3b2f1f;fill-opacity:1;fill-rule:nonzero;stroke:none"
             d="M 0,0 C -0.022,0.044 -0.044,0.09 -0.065,0.134 -0.044,0.087 -0.022,0.044 0,0"
             inkscape:connector-curvature="0" /></g><g
           transform="matrix(0.75390476,0,0,0.75390476,305.65927,27.933802)"
           id="g228"><path
             id="path230"
             style="fill:#3b2f1f;fill-opacity:1;fill-rule:nonzero;stroke:none"
             d="M 0,0 C 0.127,-0.4 0.28,-0.788 0.457,-1.158 0.277,-0.78 0.127,-0.392 0.003,0 Z"
             inkscape:connector-curvature="0" /></g><g
           transform="matrix(0.75390476,0,0,0.75390476,312.94576,36.748683)"
           id="g232" /><g
           transform="matrix(0.75390476,0,0,0.75390476,306.10981,33.839817)"
           id="g236" /><g
           transform="matrix(0.75390476,0,0,0.75390476,319.88108,36.082382)"
           id="g240" /><g
           transform="matrix(0.75390476,0,0,0.75390476,317.87856,29.144875)"
           id="g244" /><g
           transform="matrix(0.75390476,0,0,0.75390476,306.4511,33.588088)"
           id="g248" /><path
           id="path252"
           style="fill:#3b2f1f;fill-opacity:1;fill-rule:evenodd;stroke:none;stroke-width:0.75390476"
           d="M 73.212419,62.004341 H 552.61367 V 79.683408 H 73.212419 Z"
           inkscape:connector-curvature="0" /><path
           id="path256"
           style="fill:#3b2f1f;fill-opacity:1;fill-rule:evenodd;stroke:none;stroke-width:0.75390476"
           d="m 185.67842,69.084261 h 1.93075 V 229.41945 h -1.93075 z"
           inkscape:connector-curvature="0" /><path
           id="path258"
           style="fill:#3b2f1f;fill-opacity:1;fill-rule:evenodd;stroke:none;stroke-width:0.75390476"
           d="m 59.409931,79.683408 h 1.929996 V 229.41869 h -1.929996 z"
           inkscape:connector-curvature="0" /><path
           id="path260"
           style="fill:#3b2f1f;fill-opacity:1;fill-rule:evenodd;stroke:none;stroke-width:0.75390476"
           d="m 248.81342,69.084261 h 1.93 V 229.41945 h -1.93 z"
           inkscape:connector-curvature="0" /><path
           id="path262"
           style="fill:#3b2f1f;fill-opacity:1;fill-rule:evenodd;stroke:none;stroke-width:0.75390476"
           d="m 311.94767,69.084261 h 1.93075 V 229.41945 h -1.93075 z"
           inkscape:connector-curvature="0" /><path
           id="path264"
           style="fill:#3b2f1f;fill-opacity:1;fill-rule:evenodd;stroke:none;stroke-width:0.75390476"
           d="m 438.21616,69.084261 h 1.93075 V 229.41945 h -1.93075 z"
           inkscape:connector-curvature="0" /><path
           id="path266"
           style="fill:#3b2f1f;fill-opacity:1;fill-rule:evenodd;stroke:none;stroke-width:0.75390476"
           d="m 311.94767,173.40659 h 128.19924 v -1.93075 H 311.94767 Z"
           inkscape:connector-curvature="0" /><path
           id="path268"
           style="fill:#3b2f1f;fill-opacity:1;fill-rule:evenodd;stroke:none;stroke-width:0.75390476"
           d="m 311.94767,127.02712 h 128.19924 v -1.93075 H 311.94767 Z"
           inkscape:connector-curvature="0" /><path
           id="path270"
           style="fill:#3b2f1f;fill-opacity:1;fill-rule:evenodd;stroke:none;stroke-width:0.75390476"
           d="m 564.48541,79.683408 h 1.92999 V 218.8203 h -1.92999 z"
           inkscape:connector-curvature="0" /><path
           id="path272"
           style="fill:#3b2f1f;fill-opacity:1;fill-rule:evenodd;stroke:none;stroke-width:0.75390476"
           d="m 501.35116,79.683408 h 1.93 V 229.41869 h -1.93 z"
           inkscape:connector-curvature="0" /><path
           id="path276"
           style="fill:#f1a51c;fill-opacity:1;fill-rule:evenodd;stroke:none;stroke-width:0.75390476"
           d="m 77.661965,202.27284 h 1.82445 v 7.21638 h -1.82445 z"
           inkscape:connector-curvature="0" /><path
           id="path278"
           style="fill:#f1a51c;fill-opacity:1;fill-rule:evenodd;stroke:none;stroke-width:0.75390476"
           d="m 96.330155,202.27284 h 1.824449 v 7.21638 h -1.824449 z"
           inkscape:connector-curvature="0" /><path
           id="path280"
           style="fill:#f1a51c;fill-opacity:1;fill-rule:evenodd;stroke:none;stroke-width:0.75390476"
           d="m 115.18305,202.27284 h 1.82445 v 7.21638 h -1.82445 z"
           inkscape:connector-curvature="0" /><path
           id="path282"
           style="fill:#f1a51c;fill-opacity:1;fill-rule:evenodd;stroke:none;stroke-width:0.75390476"
           d="m 134.03519,202.27284 h 1.82445 v 7.21638 h -1.82445 z"
           inkscape:connector-curvature="0" /><path
           id="path284"
           style="fill:#f1a51c;fill-opacity:1;fill-rule:evenodd;stroke:none;stroke-width:0.75390476"
           d="m 165.39989,202.27284 h 1.82445 v 7.21638 h -1.82445 z"
           inkscape:connector-curvature="0" /><g
           transform="matrix(0.75390476,0,0,0.75390476,325.65909,424.30398)"
           id="g288" /><g
           transform="matrix(0.75390476,0,0,0.75390476,84.587711,262.61387)"
           id="g292"><path
             id="path294"
             style="fill:#e83e5b;fill-opacity:1;fill-rule:evenodd;stroke:none"
             d="m 0,0 h 20.261 c 1.929,0 3.507,-1.578 3.507,-3.507 0,-1.93 -1.578,-3.507 -3.507,-3.507 H 0 c -1.929,0 -3.507,1.577 -3.507,3.507 C -3.507,-1.578 -1.929,0 0,0"
             inkscape:connector-curvature="0" /></g><g
           transform="matrix(0.75390476,0,0,0.75390476,147.15593,262.61387)"
           id="g296"><path
             id="path298"
             style="fill:#e83e5b;fill-opacity:1;fill-rule:evenodd;stroke:none"
             d="m 0,0 h 20.261 c 1.929,0 3.507,-1.578 3.507,-3.507 0,-1.93 -1.578,-3.507 -3.507,-3.507 H 0 c -1.929,0 -3.506,1.577 -3.506,3.507 C -3.506,-1.578 -1.929,0 0,0"
             inkscape:connector-curvature="0" /></g><g
           transform="matrix(0.75390476,0,0,0.75390476,154.79366,266.13823)"
           id="g300"><path
             id="path302"
             style="fill:#e83e5b;fill-opacity:1;fill-rule:evenodd;stroke:none"
             d="m 0,0 v -42.081 c 0,-3.644 -2.98,-6.624 -6.624,-6.624 h -69.745 c -3.644,0 -6.624,2.98 -6.624,6.624 V 0 Z"
             inkscape:connector-curvature="0" /></g><g
           transform="matrix(0.75390476,0,0,0.75390476,123.50917,270.54457)"
           id="g304"><path
             id="path306"
             style="fill:#e83e5b;fill-opacity:1;fill-rule:evenodd;stroke:none"
             d="m 0,0 c 3.648,0 6.624,2.976 6.624,6.624 0,3.648 -2.976,6.624 -6.624,6.624 -3.648,0 -6.624,-2.976 -6.624,-6.624 C -6.624,2.976 -3.648,0 0,0"
             inkscape:connector-curvature="0" /></g><g
           transform="matrix(0.75390476,0,0,0.75390476,123.50917,275.53844)"
           id="g308"><path
             id="path310"
             style="fill:#00837b;fill-opacity:1;fill-rule:evenodd;stroke:none"
             d="M 0,0 C 22.918,0 41.497,-5.583 41.497,-12.469 H -41.496 C -41.496,-5.583 -22.917,0 0,0"
             inkscape:connector-curvature="0" /></g><g
           transform="matrix(0.75390476,0,0,0.75390476,101.6249,233.03932)"
           id="g312"><path
             id="path314"
             style="fill:#fa7188;fill-opacity:1;fill-rule:evenodd;stroke:none"
             d="M 0,0 H -3.999 C -6.085,0 -7.793,1.707 -7.793,3.794 V 39.197 H 0 Z"
             inkscape:connector-curvature="0" /></g></g></g></g></svg>