<?xml version="1.0" encoding="UTF-8" standalone="no"?>
<svg
   xmlns:dc="http://purl.org/dc/elements/1.1/"
   xmlns:cc="http://creativecommons.org/ns#"
   xmlns:rdf="http://www.w3.org/1999/02/22-rdf-syntax-ns#"
   xmlns:svg="http://www.w3.org/2000/svg"
   xmlns="http://www.w3.org/2000/svg"
   viewBox="0 0 1200 650.00002"
   height="650"
   width="1200"
   xml:space="preserve"
   id="svg2"
   version="1.1"><metadata
     id="metadata8"><rdf:RDF><cc:Work
         rdf:about=""><dc:format>image/svg+xml</dc:format><dc:type
           rdf:resource="http://purl.org/dc/dcmitype/StillImage" /><dc:title></dc:title></cc:Work></rdf:RDF></metadata><defs
     id="defs6"><clipPath
       id="clipPath28"
       clipPathUnits="userSpaceOnUse"><path
         id="path26"
         d="M 0,799.92 H 799.92 V 0 H 0 Z" /></clipPath><clipPath
       id="clipPath582"
       clipPathUnits="userSpaceOnUse"><path
         id="path580"
         d="M 0,799.92 H 799.92 V 0 H 0 Z" /></clipPath></defs><g
     transform="matrix(1.3333333,0,0,-1.3333333,0,649.99994)"
     id="g10"><path
       id="path14"
       style="fill:#e83e5b;fill-opacity:1;fill-rule:evenodd;stroke:none;stroke-width:0.86804336"
       d="m 570.40876,338.10725 h 256.38975 v 9.41706 H 570.40876 Z" /><path
       id="path16"
       style="fill:#00837b;fill-opacity:1;fill-rule:evenodd;stroke:none;stroke-width:0.86804336"
       d="M 227.42663,338.10725 H 341.75475 V 461.71796 H 227.42663 Z" /><path
       id="path18"
       style="fill:#e83e5b;fill-opacity:1;fill-rule:evenodd;stroke:none;stroke-width:0.86804336"
       d="M 341.75363,338.10725 H 456.08175 V 461.71796 H 341.75363 Z" /><path
       id="path20"
       style="fill:#f1a51c;fill-opacity:1;fill-rule:evenodd;stroke:none;stroke-width:0.86804336"
       d="M 456.08175,338.10725 H 570.40988 V 461.71796 H 456.08175 Z" /><g
       transform="matrix(1.125,0,0,0.6697771,0,-11.480901)"
       id="g22"><g
         clip-path="url(#clipPath28)"
         id="g24"><g
           transform="translate(641.8525,619.8042)"
           id="g30"><path
             id="path32"
             style="fill:#00837b;fill-opacity:1;fill-rule:evenodd;stroke:none"
             d="M 0,0 C 19.462,0 35.335,15.874 35.335,35.335 35.335,54.797 19.462,70.67 0,70.67 -19.463,70.67 -35.336,54.797 -35.336,35.335 -35.336,15.874 -19.463,0 0,0" /></g><g
           transform="translate(641.8525,632.4668)"
           id="g34"><path
             id="path36"
             style="fill:#1ebab0;fill-opacity:1;fill-rule:evenodd;stroke:none"
             d="M 0,0 C 12.487,0 22.673,10.185 22.673,22.673 22.673,35.161 12.487,45.346 0,45.346 -12.488,45.346 -22.673,35.161 -22.673,22.673 -22.673,10.185 -12.488,0 0,0" /></g><g
           transform="translate(640.9492,635.2427)"
           id="g38"><path
             id="path40"
             style="fill:#5de3da;fill-opacity:1;fill-rule:evenodd;stroke:none"
             d="m 0,0 c -3.531,0 -6.865,0.843 -9.813,2.337 2.139,-0.572 4.386,-0.879 6.706,-0.879 11.651,0 21.503,7.698 24.75,18.285 C 20.637,8.673 11.332,0 0,0" /></g><path
           id="path42"
           style="fill:#00837b;fill-opacity:1;fill-rule:evenodd;stroke:none"
           d="M 64.987,96.939 H 232.473 V 284.408 H 64.987 Z" /><path
           id="path44"
           style="fill:#3b2f1f;fill-opacity:1;fill-rule:evenodd;stroke:none"
           d="m 46.246,281.495 h 707.428 v 14.059 H 46.246 Z" /><path
           id="path46"
           style="fill:#f1a51c;fill-opacity:1;fill-rule:evenodd;stroke:none"
           d="m 72.693,244.09 h 152.073 v 30.732 H 72.693 Z" /><path
           id="path48"
           style="fill:#b8d8d5;fill-opacity:1;fill-rule:evenodd;stroke:none"
           d="M 72.693,121.928 H 224.766 V 224.44 H 72.693 Z" /><g
           transform="translate(72.6934,121.9277)"
           id="g50"><path
             id="path52"
             style="fill:#ddf0ee;fill-opacity:1;fill-rule:evenodd;stroke:none"
             d="M 0,0 152.073,102.512 H 0 Z" /></g><path
           id="path54"
           style="fill:#f1a51c;fill-opacity:1;fill-rule:evenodd;stroke:none"
           d="m 232.474,96.94 h 83.743 v 184.555 h -83.743 z" /><path
           id="path56"
           style="fill:#00837b;fill-opacity:1;fill-rule:evenodd;stroke:none"
           d="m 567.446,96.94 h 83.743 v 184.555 h -83.743 z" /><path
           id="path58"
           style="fill:#e83e5b;fill-opacity:1;fill-rule:evenodd;stroke:none"
           d="m 399.96,219.977 h 167.486 v 61.519 H 399.96 Z" /><path
           id="path60"
           style="fill:#f1a51c;fill-opacity:1;fill-rule:evenodd;stroke:none"
           d="m 316.216,96.94 h 83.743 v 184.555 h -83.743 z" /><path
           id="path62"
           style="fill:#00837b;fill-opacity:1;fill-rule:evenodd;stroke:none"
           d="m 651.189,96.94 h 83.744 v 184.555 h -83.744 z" /><g
           transform="translate(298.8325,255.8447)"
           id="g64"><path
             id="path66"
             style="fill:#ffffff;fill-opacity:1;fill-rule:evenodd;stroke:none"
             d="m 0,0 c 3.842,0 6.976,3.134 6.976,6.976 0,3.842 -3.134,6.975 -6.976,6.975 -3.842,0 -6.976,-3.133 -6.976,-6.975 C -6.976,3.134 -3.842,0 0,0" /></g><g
           transform="translate(333.1733,255.8447)"
           id="g68"><path
             id="path70"
             style="fill:#ffffff;fill-opacity:1;fill-rule:evenodd;stroke:none"
             d="m 0,0 c 3.842,0 6.976,3.134 6.976,6.976 0,3.842 -3.134,6.975 -6.976,6.975 -3.842,0 -6.975,-3.133 -6.975,-6.975 C -6.975,3.134 -3.842,0 0,0" /></g><g
           transform="translate(91.2646,202.833)"
           id="g72"><path
             id="path74"
             style="fill:#3b2f1f;fill-opacity:1;fill-rule:evenodd;stroke:none"
             d="m 0,0 h 114.931 c 2.902,0 5.276,2.374 5.276,5.275 v 10e-4 c 0,2.902 -2.374,5.275 -5.276,5.275 L 0,10.551 c -2.901,0 -5.275,-2.373 -5.275,-5.275 V 5.275 C -5.275,2.374 -2.901,0 0,0" /></g><g
           transform="translate(88.8828,251.3789)"
           id="g76"><path
             id="path78"
             style="fill:#00837b;fill-opacity:1;fill-rule:evenodd;stroke:none"
             d="m 0,0 c 4.499,0 8.167,3.669 8.167,8.167 0,4.498 -3.668,8.167 -8.167,8.167 -4.498,0 -8.167,-3.669 -8.167,-8.167 C -8.167,3.669 -4.498,0 0,0" /></g><g
           transform="translate(113.8896,251.3789)"
           id="g80"><path
             id="path82"
             style="fill:#00837b;fill-opacity:1;fill-rule:evenodd;stroke:none"
             d="m 0,0 c 4.498,0 8.167,3.669 8.167,8.167 0,4.498 -3.669,8.167 -8.167,8.167 -4.499,0 -8.167,-3.669 -8.167,-8.167 C -8.167,3.669 -4.499,0 0,0" /></g><g
           transform="translate(138.896,251.3789)"
           id="g84"><path
             id="path86"
             style="fill:#00837b;fill-opacity:1;fill-rule:evenodd;stroke:none"
             d="m 0,0 c 4.498,0 8.167,3.669 8.167,8.167 0,4.498 -3.669,8.167 -8.167,8.167 -4.499,0 -8.167,-3.669 -8.167,-8.167 C -8.167,3.669 -4.499,0 0,0" /></g><g
           transform="translate(163.9028,251.3789)"
           id="g88"><path
             id="path90"
             style="fill:#00837b;fill-opacity:1;fill-rule:evenodd;stroke:none"
             d="m 0,0 c 4.498,0 8.167,3.669 8.167,8.167 0,4.498 -3.669,8.167 -8.167,8.167 -4.499,0 -8.167,-3.669 -8.167,-8.167 C -8.167,3.669 -4.499,0 0,0" /></g><g
           transform="translate(205.5049,251.3789)"
           id="g92"><path
             id="path94"
             style="fill:#00837b;fill-opacity:1;fill-rule:evenodd;stroke:none"
             d="m 0,0 c 4.499,0 8.167,3.669 8.167,8.167 0,4.498 -3.668,8.167 -8.167,8.167 -4.498,0 -8.167,-3.669 -8.167,-8.167 C -8.167,3.669 -4.498,0 0,0" /></g><g
           transform="translate(483.7031,255.8447)"
           id="g96"><path
             id="path98"
             style="fill:#ffffff;fill-opacity:1;fill-rule:evenodd;stroke:none"
             d="m 0,0 c 3.842,0 6.976,3.134 6.976,6.976 0,3.842 -3.134,6.975 -6.976,6.975 -3.842,0 -6.976,-3.133 -6.976,-6.975 C -6.976,3.134 -3.842,0 0,0" /></g><path
           id="path100"
           style="fill:#e83e5b;fill-opacity:1;fill-rule:evenodd;stroke:none"
           d="m 399.96,158.458 h 167.486 v 61.519 H 399.96 Z" /><g
           transform="translate(483.7031,194.3271)"
           id="g102"><path
             id="path104"
             style="fill:#ffffff;fill-opacity:1;fill-rule:evenodd;stroke:none"
             d="m 0,0 c 3.842,0 6.976,3.133 6.976,6.976 0,3.841 -3.134,6.975 -6.976,6.975 -3.842,0 -6.976,-3.134 -6.976,-6.975 C -6.976,3.133 -3.842,0 0,0" /></g><path
           id="path106"
           style="fill:#e83e5b;fill-opacity:1;fill-rule:evenodd;stroke:none"
           d="m 399.96,96.939 h 167.486 v 61.519 H 399.96 Z" /><g
           transform="translate(483.7031,132.8086)"
           id="g108"><path
             id="path110"
             style="fill:#ffffff;fill-opacity:1;fill-rule:evenodd;stroke:none"
             d="m 0,0 c 3.842,0 6.976,3.134 6.976,6.976 0,3.841 -3.134,6.975 -6.976,6.975 -3.842,0 -6.976,-3.134 -6.976,-6.975 C -6.976,3.134 -3.842,0 0,0" /></g><g
           transform="translate(634.1641,255.8447)"
           id="g112"><path
             id="path114"
             style="fill:#ffffff;fill-opacity:1;fill-rule:evenodd;stroke:none"
             d="m 0,0 c 3.842,0 6.976,3.134 6.976,6.976 0,3.842 -3.134,6.975 -6.976,6.975 -3.842,0 -6.976,-3.133 -6.976,-6.975 C -6.976,3.134 -3.842,0 0,0" /></g><g
           transform="translate(668.5049,255.8447)"
           id="g116"><path
             id="path118"
             style="fill:#ffffff;fill-opacity:1;fill-rule:evenodd;stroke:none"
             d="m 0,0 c 3.842,0 6.976,3.134 6.976,6.976 0,3.842 -3.134,6.975 -6.976,6.975 -3.842,0 -6.976,-3.133 -6.976,-6.975 C -6.976,3.134 -3.842,0 0,0" /></g><path
           id="path120"
           style="fill:#f1a51c;fill-opacity:1;fill-rule:evenodd;stroke:none"
           d="M 95.304,521.948 H 202.158 V 706.503 H 95.304 Z" /><g
           transform="translate(66.2671,467.4585)"
           id="g122"><path
             id="path124"
             style="fill:#e83e5b;fill-opacity:1;fill-rule:evenodd;stroke:none"
             d="M 0,0 H 164.927 L 135.89,54.489 H 29.037 Z" /></g><path
           id="path126"
           style="fill:#e83e5b;fill-opacity:1;fill-rule:evenodd;stroke:none"
           d="m 507.03,605.745 h 227.902 v 14.06 H 507.03 Z" /><g
           transform="translate(283.4019,24.2236)"
           id="g128" /><g
           transform="translate(294.7373,28.7871)"
           id="g132" /><g
           transform="translate(309.2725,27.5449)"
           id="g136" /><g
           transform="translate(313.2041,33.2236)"
           id="g140" /><g
           transform="translate(319.543,24.458)"
           id="g144" /><g
           transform="translate(328.6836,33.2617)"
           id="g148" /><g
           transform="translate(341.7373,28.7871)"
           id="g152" /><g
           transform="translate(352.4072,24.2236)"
           id="g156" /><g
           transform="translate(365.6255,37.0703)"
           id="g160" /><g
           transform="translate(376.6719,23.8301)"
           id="g164" /><g
           transform="translate(414.2344,34.4717)"
           id="g168" /><g
           transform="translate(422.7236,27.8975)"
           id="g172" /><g
           transform="translate(431.9209,28.79)"
           id="g176" /><g
           transform="translate(442.709,28.79)"
           id="g180" /><g
           transform="translate(451.1113,33.2422)"
           id="g184" /><g
           transform="translate(462.6953,33.2295)"
           id="g188" /><g
           transform="translate(471.0557,25.3389)"
           id="g192" /><g
           transform="translate(476.6904,24.1553)"
           id="g196" /><g
           transform="translate(489.5889,27.3652)"
           id="g200" /><g
           transform="translate(495.6162,24.1533)"
           id="g204" /><g
           transform="translate(510.6719,29.2354)"
           id="g208" /><g
           transform="translate(389.9668,30.0537)"
           id="g212"><path
             id="path214"
             style="fill:#3b2f1f;fill-opacity:1;fill-rule:nonzero;stroke:none"
             d="M 0,0 C -0.002,0.005 -0.002,0.01 -0.002,0.018 -0.002,0.01 -0.002,0.005 0,0" /></g><g
           transform="translate(390.0977,29.2246)"
           id="g216"><path
             id="path218"
             style="fill:#3b2f1f;fill-opacity:1;fill-rule:nonzero;stroke:none"
             d="M 0,0 H 0.003 C -0.047,0.236 -0.085,0.471 -0.116,0.702 -0.085,0.469 -0.047,0.233 0,0" /></g><g
           transform="translate(390.9561,26.8184)"
           id="g220"><path
             id="path222"
             style="fill:#3b2f1f;fill-opacity:1;fill-rule:nonzero;stroke:none"
             d="M 0,0 C -0.006,0.01 -0.011,0.021 -0.017,0.033 -0.011,0.021 -0.006,0.01 0,0" /></g><g
           transform="translate(390.874,26.9785)"
           id="g224"><path
             id="path226"
             style="fill:#3b2f1f;fill-opacity:1;fill-rule:nonzero;stroke:none"
             d="M 0,0 C -0.022,0.044 -0.044,0.09 -0.065,0.134 -0.044,0.087 -0.022,0.044 0,0" /></g><g
           transform="translate(390.3389,28.2979)"
           id="g228"><path
             id="path230"
             style="fill:#3b2f1f;fill-opacity:1;fill-rule:nonzero;stroke:none"
             d="M 0,0 C 0.127,-0.4 0.28,-0.788 0.457,-1.158 0.277,-0.78 0.127,-0.392 0.003,0 Z" /></g><g
           transform="translate(400.0039,39.9902)"
           id="g232" /><g
           transform="translate(390.9365,36.1318)"
           id="g236" /><g
           transform="translate(409.2031,39.1064)"
           id="g240" /><g
           transform="translate(406.5469,29.9043)"
           id="g244" /><g
           transform="translate(391.3892,35.7979)"
           id="g248" /><path
           id="path252"
           style="fill:#3b2f1f;fill-opacity:1;fill-rule:evenodd;stroke:none"
           d="M 82.015,73.49 H 717.906 V 96.94 H 82.015 Z" /><path
           id="path254"
           style="fill:#3b2f1f;fill-opacity:1;fill-rule:evenodd;stroke:none"
           d="m 46.246,706.502 h 707.428 v 14.059 H 46.246 Z" /><path
           id="path256"
           style="fill:#3b2f1f;fill-opacity:1;fill-rule:evenodd;stroke:none"
           d="m 231.193,82.881 h 2.561 v 212.673 h -2.561 z" /><path
           id="path258"
           style="fill:#3b2f1f;fill-opacity:1;fill-rule:evenodd;stroke:none"
           d="m 63.707,96.94 h 2.56 v 198.613 h -2.56 z" /><path
           id="path260"
           style="fill:#3b2f1f;fill-opacity:1;fill-rule:evenodd;stroke:none"
           d="m 314.937,82.881 h 2.56 v 212.673 h -2.56 z" /><path
           id="path262"
           style="fill:#3b2f1f;fill-opacity:1;fill-rule:evenodd;stroke:none"
           d="m 398.68,82.881 h 2.561 v 212.673 h -2.561 z" /><path
           id="path264"
           style="fill:#3b2f1f;fill-opacity:1;fill-rule:evenodd;stroke:none"
           d="m 566.166,82.881 h 2.561 v 212.673 h -2.561 z" /><path
           id="path266"
           style="fill:#3b2f1f;fill-opacity:1;fill-rule:evenodd;stroke:none"
           d="m 398.68,221.257 h 170.047 v -2.561 H 398.68 Z" /><path
           id="path268"
           style="fill:#3b2f1f;fill-opacity:1;fill-rule:evenodd;stroke:none"
           d="m 398.68,159.738 h 170.047 v -2.561 H 398.68 Z" /><path
           id="path270"
           style="fill:#3b2f1f;fill-opacity:1;fill-rule:evenodd;stroke:none"
           d="m 733.653,96.94 h 2.56 v 184.555 h -2.56 z" /><path
           id="path272"
           style="fill:#3b2f1f;fill-opacity:1;fill-rule:evenodd;stroke:none"
           d="m 649.91,96.94 h 2.56 v 198.613 h -2.56 z" /><path
           id="path274"
           style="fill:#3b2f1f;fill-opacity:1;fill-rule:evenodd;stroke:none"
           d="m 404.126,521.947 h 2.56 v 198.614 h -2.56 z" /><path
           id="path276"
           style="fill:#f1a51c;fill-opacity:1;fill-rule:evenodd;stroke:none"
           d="m 87.917,259.546 h 2.42 v 9.572 h -2.42 z" /><path
           id="path278"
           style="fill:#f1a51c;fill-opacity:1;fill-rule:evenodd;stroke:none"
           d="m 112.679,259.546 h 2.42 v 9.572 h -2.42 z" /><path
           id="path280"
           style="fill:#f1a51c;fill-opacity:1;fill-rule:evenodd;stroke:none"
           d="m 137.686,259.546 h 2.42 v 9.572 h -2.42 z" /><path
           id="path282"
           style="fill:#f1a51c;fill-opacity:1;fill-rule:evenodd;stroke:none"
           d="m 162.692,259.546 h 2.42 v 9.572 h -2.42 z" /><path
           id="path284"
           style="fill:#f1a51c;fill-opacity:1;fill-rule:evenodd;stroke:none"
           d="m 204.295,259.546 h 2.42 v 9.572 h -2.42 z" /><path
           id="path286"
           style="fill:#b8d8d5;fill-opacity:1;fill-rule:evenodd;stroke:none"
           d="m 416.867,554.054 h 78.701 v 142.871 h -78.701 z" /><g
           transform="translate(416.8672,554.0542)"
           id="g288"><path
             id="path290"
             style="fill:#ddf0ee;fill-opacity:1;fill-rule:evenodd;stroke:none"
             d="M 0,0 V 142.871 H 78.702 Z" /></g><g
           transform="translate(97.1035,339.584)"
           id="g292"><path
             id="path294"
             style="fill:#e83e5b;fill-opacity:1;fill-rule:evenodd;stroke:none"
             d="m 0,0 h 20.261 c 1.929,0 3.507,-1.578 3.507,-3.507 0,-1.93 -1.578,-3.507 -3.507,-3.507 H 0 c -1.929,0 -3.507,1.577 -3.507,3.507 C -3.507,-1.578 -1.929,0 0,0" /></g><g
           transform="translate(180.0957,339.584)"
           id="g296"><path
             id="path298"
             style="fill:#e83e5b;fill-opacity:1;fill-rule:evenodd;stroke:none"
             d="m 0,0 h 20.261 c 1.929,0 3.507,-1.578 3.507,-3.507 0,-1.93 -1.578,-3.507 -3.507,-3.507 H 0 c -1.929,0 -3.506,1.577 -3.506,3.507 C -3.506,-1.578 -1.929,0 0,0" /></g><g
           transform="translate(190.2266,344.2588)"
           id="g300"><path
             id="path302"
             style="fill:#e83e5b;fill-opacity:1;fill-rule:evenodd;stroke:none"
             d="m 0,0 v -42.081 c 0,-3.644 -2.98,-6.624 -6.624,-6.624 h -69.745 c -3.644,0 -6.624,2.98 -6.624,6.624 V 0 Z" /></g><g
           transform="translate(148.73,350.1035)"
           id="g304"><path
             id="path306"
             style="fill:#e83e5b;fill-opacity:1;fill-rule:evenodd;stroke:none"
             d="m 0,0 c 3.648,0 6.624,2.976 6.624,6.624 0,3.648 -2.976,6.624 -6.624,6.624 -3.648,0 -6.624,-2.976 -6.624,-6.624 C -6.624,2.976 -3.648,0 0,0" /></g><g
           transform="translate(148.73,356.7275)"
           id="g308"><path
             id="path310"
             style="fill:#00837b;fill-opacity:1;fill-rule:evenodd;stroke:none"
             d="M 0,0 C 22.918,0 41.497,-5.583 41.497,-12.469 H -41.496 C -41.496,-5.583 -22.917,0 0,0" /></g><g
           transform="translate(119.7021,300.3555)"
           id="g312"><path
             id="path314"
             style="fill:#fa7188;fill-opacity:1;fill-rule:evenodd;stroke:none"
             d="M 0,0 H -3.999 C -6.085,0 -7.793,1.707 -7.793,3.794 V 39.197 H 0 Z" /></g><g
           transform="translate(580.3555,686.8828)"
           id="g316"><path
             id="path318"
             style="fill:#f1a51c;fill-opacity:1;fill-rule:evenodd;stroke:none"
             d="M 0,0 C -2.618,-5.958 -6.445,-10.672 -10.976,-13.403 H -29.133 C -33.663,-10.672 -37.49,-5.958 -40.108,0 Z" /></g><g
           transform="translate(567.6943,683.853)"
           id="g320"><path
             id="path322"
             style="fill:#f7c363;fill-opacity:1;fill-rule:evenodd;stroke:none"
             d="m 0,0 c -1.951,-2.983 -4.803,-5.345 -8.178,-6.712 h -6.105 C -17.658,-5.345 -20.51,-2.983 -22.46,0 Z" /></g><g
           transform="translate(580.3555,679.5874)"
           id="g324"><path
             id="path326"
             style="fill:#e83e5b;fill-opacity:1;fill-rule:evenodd;stroke:none"
             d="M 0,0 C -2.618,-5.957 -6.445,-10.672 -10.976,-13.403 H -29.133 C -33.663,-10.672 -37.49,-5.957 -40.108,0 Z" /></g><g
           transform="translate(567.6943,676.5576)"
           id="g328"><path
             id="path330"
             style="fill:#fa7188;fill-opacity:1;fill-rule:evenodd;stroke:none"
             d="m 0,0 c -1.951,-2.983 -4.803,-5.344 -8.178,-6.713 h -6.105 c -3.375,1.369 -6.227,3.73 -8.177,6.713 z" /></g><g
           transform="translate(580.3555,671.9536)"
           id="g332"><path
             id="path334"
             style="fill:#00837b;fill-opacity:1;fill-rule:evenodd;stroke:none"
             d="M 0,0 C -2.618,-5.957 -6.445,-10.671 -10.976,-13.403 H -29.133 C -33.663,-10.671 -37.49,-5.957 -40.108,0 Z" /></g><g
           transform="translate(567.6943,668.9248)"
           id="g336"><path
             id="path338"
             style="fill:#1ebab0;fill-opacity:1;fill-rule:evenodd;stroke:none"
             d="m 0,0 c -1.951,-2.984 -4.803,-5.345 -8.178,-6.713 h -6.105 C -17.658,-5.345 -20.51,-2.984 -22.46,0 Z" /></g><g
           transform="translate(593.6318,664.6768)"
           id="g340"><path
             id="path342"
             style="fill:#f1a51c;fill-opacity:1;fill-rule:evenodd;stroke:none"
             d="M 0,0 C -4.351,-8.547 -10.712,-15.313 -18.241,-19.232 H -48.419 C -55.949,-15.313 -62.31,-8.547 -66.661,0 Z" /></g><g
           transform="translate(572.5889,660.3301)"
           id="g344"><path
             id="path346"
             style="fill:#f7c363;fill-opacity:1;fill-rule:evenodd;stroke:none"
             d="M 0,0 C -3.242,-4.281 -7.981,-7.669 -13.592,-9.632 H -23.739 C -29.35,-7.669 -34.089,-4.281 -37.331,0 Z" /></g><g
           transform="translate(593.6318,651.9033)"
           id="g348"><path
             id="path350"
             style="fill:#e83e5b;fill-opacity:1;fill-rule:evenodd;stroke:none"
             d="M 0,0 C -4.351,-8.547 -10.712,-15.313 -18.241,-19.232 H -48.419 C -55.949,-15.313 -62.31,-8.547 -66.661,0 Z" /></g><g
           transform="translate(572.5889,647.5566)"
           id="g352"><path
             id="path354"
             style="fill:#fa7188;fill-opacity:1;fill-rule:evenodd;stroke:none"
             d="M 0,0 C -3.242,-4.281 -7.981,-7.669 -13.592,-9.632 H -23.739 C -29.35,-7.669 -34.089,-4.281 -37.331,0 Z" /></g><g
           transform="translate(605.3877,636.708)"
           id="g356"><path
             id="path358"
             style="fill:#00837b;fill-opacity:1;fill-rule:evenodd;stroke:none"
             d="M 0,0 C -5.887,-4.593 -14.49,-8.228 -24.676,-10.333 H -65.497 C -75.682,-8.228 -84.286,-4.593 -90.172,0 Z" /></g><g
           transform="translate(576.9219,634.3726)"
           id="g360"><path
             id="path362"
             style="fill:#1ebab0;fill-opacity:1;fill-rule:evenodd;stroke:none"
             d="M 0,0 C -4.386,-2.3 -10.796,-4.121 -18.385,-5.175 H -32.111 C -39.7,-4.121 -46.11,-2.3 -50.496,0 Z" /></g><g
           transform="translate(605.3877,630.1382)"
           id="g364"><path
             id="path366"
             style="fill:#f1a51c;fill-opacity:1;fill-rule:evenodd;stroke:none"
             d="M 0,0 C -5.887,-4.593 -14.49,-8.228 -24.676,-10.333 H -65.497 C -75.682,-8.228 -84.286,-4.593 -90.172,0 Z" /></g><g
           transform="translate(576.9219,627.8027)"
           id="g368"><path
             id="path370"
             style="fill:#f7c363;fill-opacity:1;fill-rule:evenodd;stroke:none"
             d="M 0,0 C -4.386,-2.3 -10.796,-4.121 -18.385,-5.176 H -32.111 C -39.7,-4.121 -46.11,-2.3 -50.496,0 Z" /></g><g
           transform="translate(640.8896,658.4224)"
           id="g372"><path
             id="path374"
             style="fill:#f1a51c;fill-opacity:1;fill-rule:evenodd;stroke:none"
             d="m 0,0 6.705,-11.124 c 0.581,-0.963 0.269,-2.225 -0.695,-2.806 l -18.437,-11.114 c -0.963,-0.581 -2.225,-0.268 -2.805,0.695 l -6.706,11.124 z" /></g><g
           transform="translate(629.2432,635.5791)"
           id="g376"><path
             id="path378"
             style="fill:#f7c363;fill-opacity:1;fill-rule:evenodd;stroke:none"
             d="m 0,0 -1.058,-0.638 c -0.551,-0.332 -1.274,-0.153 -1.607,0.399 l -5.642,9.358 2.061,1.242 z" /></g><g
           transform="translate(643.9141,657.6733)"
           id="g380"><path
             id="path382"
             style="fill:#f1a51c;fill-opacity:1;fill-rule:evenodd;stroke:none"
             d="M 0,0 C 0.673,0.406 1.431,0.564 2.18,0.503 V -1.102 C 1.702,-1.014 1.22,-1.083 0.805,-1.334 -0.238,-1.962 -0.468,-3.493 0.293,-4.754 0.749,-5.512 1.46,-5.999 2.18,-6.131 V -7.735 C 0.891,-7.63 -0.373,-6.877 -1.134,-5.614 -2.338,-3.617 -1.83,-1.103 0,0 M 2.18,0.503 C 3.469,0.399 4.732,-0.355 5.494,-1.618 6.698,-3.616 6.19,-6.128 4.36,-7.232 3.688,-7.638 2.929,-7.796 2.18,-7.735 v 1.604 c 0.478,-0.087 0.96,-0.018 1.376,0.233 1.043,0.628 1.271,2.16 0.511,3.42 C 3.611,-1.72 2.9,-1.233 2.18,-1.102 Z" /></g><g
           transform="translate(644.9971,643.437)"
           id="g384"><path
             id="path386"
             style="fill:#e83e5b;fill-opacity:1;fill-rule:evenodd;stroke:none"
             d="m 0,0 v -12.989 c 0,-1.124 -0.92,-2.044 -2.044,-2.044 h -21.527 c -1.125,0 -2.045,0.92 -2.045,2.044 V 0 Z" /></g><g
           transform="translate(623.2295,629.8862)"
           id="g388"><path
             id="path390"
             style="fill:#fa7188;fill-opacity:1;fill-rule:evenodd;stroke:none"
             d="M 0,0 H -1.234 C -1.878,0 -2.405,0.527 -2.405,1.171 V 12.098 H 0 Z" /></g><g
           transform="translate(647.2012,632.7891)"
           id="g392"><path
             id="path394"
             style="fill:#e83e5b;fill-opacity:1;fill-rule:evenodd;stroke:none"
             d="m 0,0 c -2.137,0 -3.869,1.89 -3.869,4.223 0,2.332 1.732,4.222 3.869,4.222 V 6.887 c -1.218,0 -2.204,-1.193 -2.204,-2.664 0,-1.473 0.986,-2.665 2.204,-2.665 z m 0,8.445 c 2.138,0 3.87,-1.89 3.87,-4.222 C 3.87,1.89 2.138,0 0,0 v 1.558 c 1.218,0 2.204,1.192 2.204,2.665 0,1.471 -0.986,2.664 -2.204,2.664 z" /></g><g
           transform="translate(654.4697,629.7124)"
           id="g396"><path
             id="path398"
             style="fill:#f1a51c;fill-opacity:1;fill-rule:evenodd;stroke:none"
             d="M 0,0 C -2.908,-2.27 -7.16,-4.066 -12.194,-5.106 H -32.367 C -37.4,-4.066 -41.652,-2.27 -44.562,0 Z" /></g><g
           transform="translate(640.4033,628.5586)"
           id="g400"><path
             id="path402"
             style="fill:#f7c363;fill-opacity:1;fill-rule:evenodd;stroke:none"
             d="m 0,0 c -2.168,-1.137 -5.336,-2.037 -9.086,-2.558 h -6.783 c -3.751,0.521 -6.919,1.421 -9.086,2.558 z" /></g><g
           transform="translate(654.4697,624.9111)"
           id="g404"><path
             id="path406"
             style="fill:#e83e5b;fill-opacity:1;fill-rule:evenodd;stroke:none"
             d="M 0,0 C -2.908,-2.27 -7.16,-4.066 -12.194,-5.106 H -32.367 C -37.4,-4.066 -41.652,-2.27 -44.562,0 Z" /></g><g
           transform="translate(640.4033,623.7573)"
           id="g408"><path
             id="path410"
             style="fill:#fa7188;fill-opacity:1;fill-rule:evenodd;stroke:none"
             d="m 0,0 c -2.168,-1.137 -5.336,-2.037 -9.086,-2.558 h -6.783 c -3.751,0.521 -6.919,1.421 -9.086,2.558 z" /></g><g
           transform="translate(724.1348,592.2119)"
           id="g412"><path
             id="path414"
             style="fill:#e83e5b;fill-opacity:1;fill-rule:evenodd;stroke:none"
             d="m 0,0 c 3.273,-11.926 -0.653,-24.127 -9.146,-31.982 l -28.368,-7.787 c -11.313,2.417 -20.92,10.903 -24.193,22.829 z" /></g><g
           transform="translate(703.5938,581.3589)"
           id="g416"><path
             id="path418"
             style="fill:#fa7188;fill-opacity:1;fill-rule:evenodd;stroke:none"
             d="m 0,0 c 2.115,-7.706 -0.423,-15.59 -5.91,-20.665 l -9.865,-2.708 c -7.31,1.561 -13.517,7.045 -15.633,14.751 z" /></g><g
           transform="translate(663.2217,572.7832)"
           id="g420"><path
             id="path422"
             style="fill:#f1a51c;fill-opacity:1;fill-rule:evenodd;stroke:none"
             d="m 0,0 61.501,16.883 c 0.309,-1.627 0.487,-3.252 0.542,-4.864 L 2.018,-4.46 C 1.241,-3.044 0.564,-1.556 0,0" /></g><g
           transform="translate(704.0977,578.9912)"
           id="g424"><path
             id="path426"
             style="fill:#ffc863;fill-opacity:1;fill-rule:evenodd;stroke:none"
             d="m 0,0 -31.136,-8.548 c -0.299,0.741 -0.559,1.505 -0.776,2.294 L -0.504,2.368 C -0.288,1.579 -0.121,0.789 0,0" /></g><g
           transform="translate(727.1025,564.4258)"
           id="g428"><path
             id="path430"
             style="fill:#00837b;fill-opacity:1;fill-rule:evenodd;stroke:none"
             d="M 0,0 C 0,-12.367 -7.018,-23.094 -17.287,-28.419 H -46.703 C -56.973,-23.094 -63.989,-12.367 -63.989,0 Z" /></g><g
           transform="translate(704.4219,559.3979)"
           id="g432"><path
             id="path434"
             style="fill:#1ebab0;fill-opacity:1;fill-rule:evenodd;stroke:none"
             d="M 0,0 C 0,-7.991 -4.535,-14.922 -11.171,-18.363 H -21.4 C -28.036,-14.922 -32.57,-7.991 -32.57,0 Z" /></g><g
           transform="translate(663.2188,561.8154)"
           id="g436"><path
             id="path438"
             style="fill:#f1a51c;fill-opacity:1;fill-rule:evenodd;stroke:none"
             d="M 0,0 H 63.777 C 63.645,-1.65 63.386,-3.265 63.012,-4.834 H 0.766 C 0.392,-3.265 0.134,-1.65 0,0" /></g><g
           transform="translate(704.2813,556.981)"
           id="g440"><path
             id="path442"
             style="fill:#ffc863;fill-opacity:1;fill-rule:evenodd;stroke:none"
             d="m 0,0 h -32.289 c -0.092,0.793 -0.141,1.599 -0.141,2.417 H 0.141 C 0.141,1.599 0.092,0.793 0,0" /></g><g
           transform="translate(641.8525,686.9927)"
           id="g444"><path
             id="path446"
             style="fill:#1ebab0;fill-opacity:1;fill-rule:evenodd;stroke:none"
             d="m 0,0 c 5.175,0 10.061,-1.235 14.381,-3.425 -3.135,0.839 -6.429,1.288 -9.828,1.288 -17.075,0 -31.514,-11.281 -36.272,-26.798 C -30.245,-12.71 -16.608,0 0,0" /></g><g
           transform="translate(684.0127,619.8047)"
           id="g448"><path
             id="path450"
             style="fill:#e83e5b;fill-opacity:1;fill-rule:evenodd;stroke:none"
             d="M 0,0 C 15.159,0 27.523,12.364 27.523,27.524 27.523,42.683 15.159,55.048 0,55.048 -15.159,55.048 -27.523,42.683 -27.523,27.524 -27.523,12.364 -15.159,0 0,0" /></g><g
           transform="translate(684.0127,629.668)"
           id="g452"><path
             id="path454"
             style="fill:#fa7188;fill-opacity:1;fill-rule:evenodd;stroke:none"
             d="m 0,0 c 9.727,0 17.66,7.934 17.66,17.661 0,9.727 -7.933,17.66 -17.66,17.66 -9.728,0 -17.66,-7.933 -17.66,-17.66 C -17.66,7.934 -9.728,0 0,0" /></g><g
           transform="translate(683.3096,631.8301)"
           id="g456"><path
             id="path458"
             style="fill:#ff94a6;fill-opacity:1;fill-rule:evenodd;stroke:none"
             d="m 0,0 c -2.751,0 -5.349,0.656 -7.645,1.82 1.666,-0.445 3.417,-0.684 5.224,-0.684 9.076,0 16.75,5.996 19.278,14.242 C 16.074,6.755 8.826,0 0,0" /></g><g
           transform="translate(684.0127,672.1396)"
           id="g460"><path
             id="path462"
             style="fill:#fa7188;fill-opacity:1;fill-rule:evenodd;stroke:none"
             d="m 0,0 c 4.031,0 7.837,-0.962 11.202,-2.668 -2.442,0.653 -5.008,1.003 -7.655,1.003 -13.301,0 -24.548,-8.787 -28.254,-20.873 C -23.559,-9.9 -12.937,0 0,0" /></g><g
           transform="translate(587.8555,578.208)"
           id="g464"><path
             id="path466"
             style="fill:#e83e5b;fill-opacity:1;fill-rule:evenodd;stroke:none"
             d="m 0,0 v -36.462 c 0,-3.157 -2.582,-5.739 -5.739,-5.739 h -43.427 c -3.156,0 -5.739,2.582 -5.739,5.739 V 0 Z" /></g><g
           transform="translate(587.8555,562.8501)"
           id="g468"><path
             id="path470"
             style="fill:#fa7188;fill-opacity:1;fill-rule:evenodd;stroke:none"
             d="m 0,0 c -2.289,0 -4.146,1.856 -4.146,4.146 0,2.29 1.857,4.146 4.146,4.146 z" /></g><g
           transform="translate(587.8555,568.8965)"
           id="g472"><path
             id="path474"
             style="fill:#e83e5b;fill-opacity:1;fill-rule:evenodd;stroke:none"
             d="m 0,0 52.143,9.233 c 5.298,0.939 6.046,-5.409 0.862,-6.079 L 0,-3.699 C -2.036,-3.963 -3.122,-0.553 0,0" /></g><g
           transform="translate(543.7539,540.1675)"
           id="g476"><path
             id="path478"
             style="fill:#fa7188;fill-opacity:1;fill-rule:evenodd;stroke:none"
             d="M 0,0 H -3.465 C -5.273,0 -6.752,1.479 -6.752,3.287 V 33.962 H 0 Z" /></g><g
           transform="translate(521.834,469.3081)"
           id="g480"><path
             id="path482"
             style="fill:#00837b;fill-opacity:1;fill-rule:evenodd;stroke:none"
             d="m 0,0 h 198.296 c 1.835,0 3.336,-1.501 3.336,-3.336 v 0 c 0,-1.835 -1.501,-3.336 -3.336,-3.336 H 0 c -1.835,0 -3.336,1.501 -3.336,3.336 v 0 C -3.336,-1.501 -1.835,0 0,0" /></g><g
           transform="translate(518.498,472.9478)"
           id="g484"><path
             id="path486"
             style="fill:#00837b;fill-opacity:1;fill-rule:evenodd;stroke:none"
             d="m 0,0 c 3.853,0 6.976,-3.123 6.976,-6.976 0,-3.852 -3.123,-6.975 -6.976,-6.975 -3.853,0 -6.976,3.123 -6.976,6.975 C -6.976,-3.123 -3.853,0 0,0" /></g><g
           transform="translate(723.4658,472.9478)"
           id="g488"><path
             id="path490"
             style="fill:#00837b;fill-opacity:1;fill-rule:evenodd;stroke:none"
             d="m 0,0 c 3.853,0 6.975,-3.124 6.975,-6.976 0,-3.852 -3.122,-6.975 -6.975,-6.975 -3.853,0 -6.976,3.123 -6.976,6.975 C -6.976,-3.124 -3.853,0 0,0" /></g><g
           transform="translate(559.1582,411.9624)"
           id="g492"><path
             id="path494"
             style="fill:#3b2f1f;fill-opacity:1;fill-rule:evenodd;stroke:none"
             d="M 0,0 H -2.715 L -4.711,45.962 C -4.854,49.23 -1.493,50.673 0,50.673 V 48.3 c -1.5,-10e-4 -2.715,-1.216 -2.715,-2.715 0,-1.5 1.215,-2.714 2.715,-2.715 z m 0,50.673 v 0 c 1.493,0 4.854,-1.443 4.711,-4.711 L 2.715,0 H 0 v 42.87 c 1.499,0 2.715,1.215 2.715,2.715 C 2.715,47.084 1.499,48.3 0,48.3 Z" /></g><path
           id="path496"
           style="fill:#1ebab0;fill-opacity:1;fill-rule:evenodd;stroke:none"
           d="m 557.455,364.93 h 3.406 v 47.033 h -3.406 z" /><g
           transform="translate(560.8613,364.9297)"
           id="g498"><path
             id="path500"
             style="fill:#1ebab0;fill-opacity:1;fill-rule:evenodd;stroke:none"
             d="m 0,0 c 0,-8.401 -6.811,-15.212 -15.211,-15.212 -8.4,0 -15.211,6.811 -15.211,15.212 z" /></g><g
           transform="translate(546.3643,352.2783)"
           id="g502"><path
             id="path504"
             style="fill:#58d6ce;fill-opacity:1;fill-rule:evenodd;stroke:none"
             d="m 0,0 c -0.624,-0.108 -1.265,-0.166 -1.92,-0.166 -6.144,0 -11.126,4.981 -11.126,11.127 h 3.839 C -9.207,5.471 -5.23,0.909 0,0" /></g><g
           transform="translate(559.1582,470.7886)"
           id="g506"><path
             id="path508"
             style="fill:#f1a51c;fill-opacity:1;fill-rule:evenodd;stroke:none"
             d="m 0,0 v 0 c 0.547,0 0.993,-0.447 0.993,-0.993 v -11.439 c 0,-0.546 -0.446,-0.993 -0.993,-0.993 -0.546,0 -0.993,0.447 -0.993,0.993 V -0.993 C -0.993,-0.447 -0.546,0 0,0" /></g><path
           id="path510"
           style="fill:#e83e5b;fill-opacity:1;fill-rule:evenodd;stroke:none"
           d="m 582.555,379.133 h 3.406 v 40.196 h -3.406 z" /><g
           transform="translate(571.6406,373.4277)"
           id="g512"><path
             id="path514"
             style="fill:#e83e5b;fill-opacity:1;fill-rule:evenodd;stroke:none"
             d="m 0,0 v -6.744 c -0.035,0.031 -0.074,0.059 -0.115,0.083 -0.06,-0.415 -0.1,-0.836 -0.118,-1.263 0.087,0.03 0.166,0.077 0.233,0.137 v -9.21 c -1.638,2.427 -2.594,5.351 -2.594,8.499 0,3.147 0.956,6.071 2.594,8.498 m 1.173,1.52 v -5.516 c -0.385,0 -0.697,-0.313 -0.697,-0.696 0,-0.386 0.312,-0.698 0.697,-0.698 v -3.645 c -0.385,0 -0.697,-0.312 -0.697,-0.696 0,-0.385 0.312,-0.698 0.697,-0.698 v -3.644 c -0.05,0 -0.099,-0.005 -0.146,-0.016 0.048,-0.097 0.096,-0.193 0.146,-0.29 v -4.138 c -0.422,0.481 -0.814,0.988 -1.173,1.52 v 9.21 c 0.144,0.128 0.234,0.314 0.234,0.521 0,0.207 -0.09,0.394 -0.234,0.522 V 0 C 0.359,0.532 0.751,1.039 1.173,1.52 M 2.808,3.125 V -1.53 c -0.385,0 -0.697,-0.312 -0.697,-0.698 0,-0.384 0.312,-0.696 0.697,-0.696 v -3.645 c -0.385,0 -0.697,-0.312 -0.697,-0.697 0,-0.384 0.312,-0.697 0.697,-0.697 v -3.644 c -0.385,0 -0.697,-0.313 -0.697,-0.698 0,-0.384 0.312,-0.696 0.697,-0.696 v -3.645 c -0.046,0 -0.091,-0.005 -0.135,-0.013 l 0.135,-0.162 v -3.302 c -0.584,0.494 -1.131,1.031 -1.635,1.606 v 4.138 c 0.154,-0.3 0.321,-0.593 0.498,-0.879 0.122,0.126 0.198,0.298 0.198,0.487 0,0.386 -0.311,0.698 -0.696,0.698 v 3.644 c 0.385,0 0.696,0.313 0.696,0.698 0,0.384 -0.311,0.696 -0.696,0.696 v 3.645 c 0.385,0 0.696,0.312 0.696,0.698 0,0.383 -0.311,0.696 -0.696,0.696 V 1.52 C 1.677,2.095 2.224,2.632 2.808,3.125 M 4.442,4.331 V 1.043 c -0.384,0 -0.696,-0.313 -0.696,-0.697 0,-0.385 0.312,-0.697 0.696,-0.697 v -3.645 c -0.384,0 -0.696,-0.313 -0.696,-0.696 0,-0.386 0.312,-0.698 0.696,-0.698 v -3.645 c -0.384,0 -0.696,-0.312 -0.696,-0.696 0,-0.385 0.312,-0.698 0.696,-0.698 v -3.644 c -0.384,0 -0.696,-0.312 -0.696,-0.698 0,-0.384 0.312,-0.696 0.696,-0.696 v -5.861 c -0.572,0.365 -1.118,0.768 -1.634,1.205 v 3.302 c 0.213,-0.25 0.435,-0.492 0.666,-0.726 0.02,0.065 0.031,0.133 0.031,0.204 0,0.385 -0.313,0.697 -0.697,0.697 v 3.645 c 0.384,0 0.697,0.312 0.697,0.696 0,0.385 -0.313,0.698 -0.697,0.698 v 3.644 c 0.384,0 0.697,0.313 0.697,0.697 0,0.385 -0.313,0.697 -0.697,0.697 v 3.645 c 0.384,0 0.697,0.312 0.697,0.696 0,0.386 -0.313,0.698 -0.697,0.698 V 3.125 C 3.324,3.563 3.87,3.966 4.442,4.331 M 6.193,2.125 C 6.156,2.118 6.117,2.115 6.077,2.115 c -0.179,0 -0.341,0.067 -0.464,0.177 0.19,0.124 0.384,0.243 0.58,0.357 V 5.292 C 5.587,5.009 5.002,4.688 4.442,4.331 V 1.043 c 0.386,0 0.698,-0.313 0.698,-0.697 0,-0.385 -0.312,-0.697 -0.698,-0.697 v -3.645 c 0.386,0 0.698,-0.313 0.698,-0.696 0,-0.386 -0.312,-0.698 -0.698,-0.698 v -3.645 c 0.386,0 0.698,-0.312 0.698,-0.696 0,-0.385 -0.312,-0.698 -0.698,-0.698 v -3.644 c 0.386,0 0.698,-0.312 0.698,-0.698 0,-0.384 -0.312,-0.696 -0.698,-0.696 v -5.861 c 0.56,-0.357 1.145,-0.678 1.751,-0.961 v 4.259 c -0.037,-0.007 -0.076,-0.01 -0.116,-0.01 -0.385,0 -0.696,0.311 -0.696,0.697 0,0.385 0.311,0.697 0.696,0.697 0.04,0 0.079,-0.003 0.116,-0.01 v 3.664 c -0.037,-0.006 -0.076,-0.009 -0.116,-0.009 -0.385,0 -0.696,0.312 -0.696,0.696 0,0.385 0.311,0.698 0.696,0.698 0.04,0 0.079,-0.004 0.116,-0.01 v 3.664 c -0.037,-0.006 -0.076,-0.01 -0.116,-0.01 -0.385,0 -0.696,0.313 -0.696,0.697 0,0.385 0.311,0.697 0.696,0.697 0.04,0 0.079,-0.003 0.116,-0.01 v 3.665 c -0.037,-0.007 -0.076,-0.01 -0.116,-0.01 -0.385,0 -0.696,0.312 -0.696,0.696 0,0.386 0.311,0.698 0.696,0.698 0.04,0 0.079,-0.004 0.116,-0.01 z M 6.759,2.958 C 6.77,2.91 6.774,2.861 6.774,2.812 6.774,2.467 6.523,2.18 6.193,2.125 V -1.54 c 0.33,-0.056 0.581,-0.342 0.581,-0.688 0,-0.344 -0.251,-0.631 -0.581,-0.686 v -3.665 c 0.33,-0.055 0.581,-0.342 0.581,-0.687 0,-0.345 -0.251,-0.631 -0.581,-0.687 v -3.664 c 0.33,-0.056 0.581,-0.342 0.581,-0.688 0,-0.344 -0.251,-0.632 -0.581,-0.687 v -3.664 c 0.33,-0.056 0.581,-0.342 0.581,-0.687 0,-0.345 -0.251,-0.632 -0.581,-0.687 v -4.259 c 0.494,-0.231 1,-0.436 1.52,-0.612 v 2.506 c -0.212,0.087 -0.42,0.181 -0.626,0.279 -0.046,0.093 -0.071,0.197 -0.071,0.306 0,0.386 0.312,0.698 0.697,0.698 v 3.645 c -0.385,0 -0.697,0.312 -0.697,0.696 0,0.386 0.312,0.698 0.697,0.698 v 3.644 c -0.385,0 -0.697,0.313 -0.697,0.698 0,0.384 0.312,0.696 0.697,0.696 v 3.645 c -0.385,0 -0.697,0.312 -0.697,0.698 0,0.383 0.312,0.696 0.697,0.696 v 3.645 c -0.385,0 -0.697,0.312 -0.697,0.697 0,0.384 0.312,0.697 0.697,0.697 V 5.904 C 7.193,5.728 6.687,5.521 6.193,5.292 V 2.649 c 0.186,0.108 0.375,0.21 0.566,0.309 M 9.348,6.359 V 3.509 C 8.963,3.509 8.65,3.196 8.65,2.812 8.65,2.427 8.963,2.115 9.348,2.115 V -1.53 c -0.385,0 -0.698,-0.312 -0.698,-0.698 0,-0.384 0.313,-0.696 0.698,-0.696 v -3.645 c -0.385,0 -0.698,-0.312 -0.698,-0.697 0,-0.384 0.313,-0.697 0.698,-0.697 v -3.644 c -0.385,0 -0.698,-0.313 -0.698,-0.698 0,-0.384 0.313,-0.696 0.698,-0.696 v -3.645 c -0.385,0 -0.698,-0.312 -0.698,-0.697 0,-0.386 0.313,-0.697 0.698,-0.697 v -5.316 c -0.557,0.122 -1.103,0.273 -1.635,0.455 v 2.506 l 0.202,-0.081 c 0.286,0.086 0.494,0.352 0.494,0.666 0,0.386 -0.311,0.698 -0.696,0.698 v 3.645 c 0.385,0 0.696,0.312 0.696,0.696 0,0.386 -0.311,0.698 -0.696,0.698 v 3.644 c 0.385,0 0.696,0.313 0.696,0.698 0,0.384 -0.311,0.696 -0.696,0.696 v 3.645 c 0.385,0 0.696,0.312 0.696,0.698 0,0.383 -0.311,0.696 -0.696,0.696 v 3.645 c 0.385,0 0.696,0.312 0.696,0.697 0,0.384 -0.311,0.697 -0.696,0.697 v 4.861 c 0.532,0.181 1.078,0.333 1.635,0.455 m 1.634,0.266 V 1.043 C 10.598,1.042 10.286,0.73 10.286,0.346 c 0,-0.385 0.312,-0.697 0.696,-0.697 v -3.645 c -0.384,0 -0.696,-0.313 -0.696,-0.696 0,-0.386 0.312,-0.698 0.696,-0.698 v -3.645 c -0.384,0 -0.696,-0.312 -0.696,-0.696 0,-0.385 0.312,-0.697 0.696,-0.698 v -3.644 c -0.384,-10e-4 -0.696,-0.312 -0.696,-0.698 0,-0.384 0.312,-0.696 0.696,-0.696 v -3.645 c -0.384,0 -0.696,-0.312 -0.696,-0.698 0,-0.384 0.312,-0.696 0.696,-0.696 v -3.116 c -0.554,0.059 -1.099,0.148 -1.634,0.266 v 5.316 c 0.384,0 0.696,0.311 0.696,0.697 0,0.385 -0.312,0.697 -0.696,0.697 v 3.645 c 0.384,0 0.696,0.312 0.696,0.696 0,0.385 -0.312,0.698 -0.696,0.698 v 3.644 c 0.384,0 0.696,0.313 0.696,0.697 0,0.385 -0.312,0.697 -0.696,0.697 v 3.645 c 0.384,0 0.696,0.312 0.696,0.696 0,0.386 -0.312,0.698 -0.696,0.698 v 3.645 c 0.384,0 0.696,0.312 0.696,0.697 0,0.384 -0.312,0.697 -0.696,0.697 v 2.85 c 0.535,0.118 1.08,0.206 1.634,0.266 m 1.635,0.088 V 3.509 c -0.385,0 -0.696,-0.313 -0.696,-0.697 0,-0.385 0.311,-0.697 0.696,-0.697 V -1.53 c -0.385,0 -0.696,-0.312 -0.696,-0.698 0,-0.384 0.311,-0.696 0.696,-0.696 v -3.645 c -0.385,0 -0.696,-0.312 -0.696,-0.697 0,-0.384 0.311,-0.697 0.696,-0.697 v -3.644 c -0.385,0 -0.696,-0.313 -0.696,-0.698 0,-0.384 0.311,-0.696 0.696,-0.696 v -3.645 c -0.385,0 -0.696,-0.312 -0.696,-0.697 0,-0.386 0.311,-0.697 0.696,-0.697 v -5.67 c -0.552,0 -1.097,0.03 -1.635,0.088 v 3.116 c 0.385,0 0.698,0.312 0.698,0.696 0,0.386 -0.313,0.698 -0.698,0.698 v 3.645 c 0.385,0 0.698,0.312 0.698,0.696 0,0.386 -0.313,0.698 -0.698,0.698 v 3.644 c 0.385,0 0.698,0.313 0.698,0.698 0,0.384 -0.313,0.696 -0.698,0.696 v 3.645 c 0.385,0 0.698,0.312 0.698,0.698 0,0.383 -0.313,0.696 -0.698,0.696 v 3.645 c 0.385,0 0.698,0.312 0.698,0.697 0,0.384 -0.313,0.697 -0.698,0.697 v 5.582 c 0.538,0.057 1.083,0.088 1.635,0.088 M 14.253,6.625 V 1.043 c -0.386,0 -0.697,-0.313 -0.697,-0.697 0,-0.385 0.311,-0.697 0.697,-0.697 v -3.645 c -0.386,0 -0.697,-0.313 -0.697,-0.696 0,-0.386 0.311,-0.698 0.697,-0.698 v -3.645 c -0.386,0 -0.697,-0.312 -0.697,-0.696 0,-0.385 0.311,-0.698 0.697,-0.698 v -3.644 c -0.386,0 -0.697,-0.312 -0.697,-0.698 0,-0.384 0.311,-0.696 0.697,-0.696 v -3.645 c -0.386,0 -0.697,-0.312 -0.697,-0.698 0,-0.384 0.311,-0.696 0.697,-0.696 v -3.116 C 13.715,-23.68 13.17,-23.71 12.617,-23.71 v 5.67 c 0.385,0 0.697,0.311 0.697,0.697 0,0.385 -0.312,0.697 -0.697,0.697 v 3.645 c 0.385,0 0.697,0.312 0.697,0.696 0,0.385 -0.312,0.698 -0.697,0.698 v 3.644 c 0.385,0 0.697,0.313 0.697,0.697 0,0.385 -0.312,0.697 -0.697,0.697 v 3.645 c 0.385,0 0.697,0.312 0.697,0.696 0,0.386 -0.312,0.698 -0.697,0.698 v 3.645 c 0.385,0 0.697,0.312 0.697,0.697 0,0.384 -0.312,0.697 -0.697,0.697 v 3.204 c 0.553,0 1.098,-0.031 1.636,-0.088 m 1.635,-0.266 v -2.85 c -0.385,0 -0.698,-0.313 -0.698,-0.697 0,-0.385 0.313,-0.697 0.698,-0.697 V -1.53 c -0.385,0 -0.698,-0.312 -0.698,-0.698 0,-0.384 0.313,-0.696 0.698,-0.696 v -3.645 c -0.385,0 -0.698,-0.312 -0.698,-0.697 0,-0.384 0.313,-0.697 0.698,-0.697 v -3.644 c -0.385,0 -0.698,-0.313 -0.698,-0.698 0,-0.384 0.313,-0.696 0.698,-0.696 v -3.645 c -0.385,0 -0.698,-0.312 -0.698,-0.697 0,-0.386 0.313,-0.697 0.698,-0.697 v -5.316 c -0.535,-0.117 -1.081,-0.207 -1.635,-0.266 v 3.116 c 0.385,0 0.696,0.312 0.696,0.696 0,0.386 -0.311,0.698 -0.696,0.698 v 3.645 c 0.385,0 0.696,0.312 0.696,0.696 0,0.386 -0.311,0.698 -0.696,0.698 v 3.644 c 0.385,0 0.696,0.313 0.696,0.698 0,0.384 -0.311,0.696 -0.696,0.696 v 3.645 c 0.385,0 0.696,0.312 0.696,0.698 0,0.383 -0.311,0.696 -0.696,0.696 v 3.645 c 0.385,0 0.696,0.312 0.696,0.697 0,0.384 -0.311,0.697 -0.696,0.697 v 5.582 c 0.554,-0.06 1.1,-0.149 1.635,-0.266 M 17.522,5.904 V 1.043 c -0.384,0 -0.696,-0.313 -0.696,-0.697 0,-0.385 0.312,-0.697 0.696,-0.697 v -3.645 c -0.384,0 -0.696,-0.313 -0.696,-0.696 0,-0.386 0.312,-0.698 0.696,-0.698 v -3.645 c -0.384,0 -0.696,-0.312 -0.696,-0.696 0,-0.385 0.312,-0.698 0.696,-0.698 v -3.644 c -0.384,0 -0.696,-0.312 -0.696,-0.698 0,-0.384 0.312,-0.696 0.696,-0.696 v -3.645 c -0.384,0 -0.696,-0.312 -0.696,-0.698 0,-0.314 0.208,-0.58 0.494,-0.666 l 0.202,0.081 v -2.506 c -0.532,-0.181 -1.078,-0.333 -1.634,-0.455 v 5.316 c 0.384,0 0.696,0.311 0.696,0.697 0,0.385 -0.312,0.697 -0.696,0.697 v 3.645 c 0.384,0 0.696,0.312 0.696,0.696 0,0.385 -0.312,0.698 -0.696,0.698 v 3.644 c 0.384,0 0.696,0.313 0.696,0.697 0,0.385 -0.312,0.697 -0.696,0.697 v 3.645 c 0.384,0 0.696,0.312 0.696,0.696 0,0.386 -0.312,0.698 -0.696,0.698 v 3.645 c 0.384,0 0.696,0.312 0.696,0.697 0,0.384 -0.312,0.697 -0.696,0.697 v 2.85 C 16.444,6.236 16.99,6.085 17.522,5.904 M 19.041,5.292 V 2.649 c -0.186,0.108 -0.374,0.21 -0.565,0.309 -0.01,-0.048 -0.015,-0.097 -0.015,-0.146 0,-0.345 0.251,-0.632 0.58,-0.687 V -1.54 c -0.329,-0.056 -0.58,-0.342 -0.58,-0.688 0,-0.344 0.251,-0.631 0.58,-0.686 v -3.665 c -0.329,-0.055 -0.58,-0.342 -0.58,-0.687 0,-0.345 0.251,-0.631 0.58,-0.687 v -3.664 c -0.329,-0.056 -0.58,-0.342 -0.58,-0.688 0,-0.344 0.251,-0.632 0.58,-0.687 v -3.664 c -0.329,-0.056 -0.58,-0.342 -0.58,-0.687 0,-0.345 0.251,-0.632 0.58,-0.687 v -4.259 c -0.492,-0.231 -0.999,-0.435 -1.519,-0.612 v 2.506 c 0.212,0.088 0.42,0.18 0.626,0.279 0.045,0.093 0.072,0.197 0.072,0.306 0,0.386 -0.313,0.698 -0.698,0.698 v 3.645 c 0.385,0 0.698,0.312 0.698,0.696 0,0.386 -0.313,0.698 -0.698,0.698 v 3.644 c 0.385,0 0.698,0.313 0.698,0.698 0,0.384 -0.313,0.696 -0.698,0.696 v 3.645 c 0.385,0 0.698,0.312 0.698,0.698 0,0.383 -0.313,0.696 -0.698,0.696 v 3.645 c 0.385,0 0.698,0.312 0.698,0.697 0,0.384 -0.313,0.697 -0.698,0.697 v 4.861 c 0.52,-0.177 1.027,-0.383 1.519,-0.612 M 20.793,4.331 V 1.043 c -0.386,0 -0.697,-0.313 -0.697,-0.697 0,-0.385 0.311,-0.697 0.697,-0.697 v -3.645 c -0.386,0 -0.697,-0.313 -0.697,-0.696 0,-0.386 0.311,-0.698 0.697,-0.698 v -3.645 c -0.386,0 -0.697,-0.312 -0.697,-0.696 0,-0.385 0.311,-0.698 0.697,-0.698 v -3.644 c -0.386,0 -0.697,-0.312 -0.697,-0.698 0,-0.384 0.311,-0.696 0.697,-0.696 v -5.861 c -0.56,-0.358 -1.146,-0.678 -1.752,-0.961 v 4.259 c 0.038,-0.007 0.077,-0.01 0.116,-0.01 0.385,0 0.697,0.311 0.697,0.697 0,0.385 -0.312,0.697 -0.697,0.697 -0.039,0 -0.078,-0.003 -0.116,-0.01 v 3.664 c 0.038,-0.006 0.077,-0.009 0.116,-0.009 0.385,0 0.697,0.312 0.697,0.696 0,0.385 -0.312,0.698 -0.697,0.698 -0.039,0 -0.078,-0.004 -0.116,-0.01 v 3.664 c 0.038,-0.006 0.077,-0.01 0.116,-0.01 0.385,0 0.697,0.313 0.697,0.697 0,0.385 -0.312,0.697 -0.697,0.697 -0.039,0 -0.078,-0.003 -0.116,-0.01 v 3.665 c 0.038,-0.007 0.077,-0.01 0.116,-0.01 0.385,0 0.697,0.312 0.697,0.696 0,0.386 -0.312,0.698 -0.697,0.698 -0.039,0 -0.078,-0.004 -0.116,-0.01 v 3.665 c 0.038,-0.007 0.077,-0.01 0.116,-0.01 0.179,0 0.342,0.067 0.465,0.177 -0.19,0.124 -0.384,0.243 -0.581,0.357 V 5.292 C 19.647,5.009 20.233,4.688 20.793,4.331 M 22.428,3.125 V -1.53 c -0.385,0 -0.698,-0.312 -0.698,-0.698 0,-0.384 0.313,-0.696 0.698,-0.696 v -3.645 c -0.385,0 -0.698,-0.312 -0.698,-0.697 0,-0.384 0.313,-0.697 0.698,-0.697 v -3.644 c -0.385,0 -0.698,-0.313 -0.698,-0.698 0,-0.384 0.313,-0.696 0.698,-0.696 v -3.645 c -0.385,0 -0.698,-0.312 -0.698,-0.697 0,-0.071 0.011,-0.139 0.031,-0.204 0.231,0.234 0.454,0.476 0.667,0.726 v -3.302 c -0.518,-0.437 -1.063,-0.84 -1.635,-1.205 v 5.861 c 0.385,0 0.696,0.312 0.696,0.696 0,0.386 -0.311,0.698 -0.696,0.698 v 3.644 c 0.385,0 0.696,0.313 0.696,0.698 0,0.384 -0.311,0.696 -0.696,0.696 v 3.645 c 0.385,0 0.696,0.312 0.696,0.698 0,0.383 -0.311,0.696 -0.696,0.696 v 3.645 c 0.385,0 0.696,0.312 0.696,0.697 0,0.384 -0.311,0.697 -0.696,0.697 V 4.331 C 21.365,3.966 21.91,3.562 22.428,3.125 M 24.063,1.52 v -5.516 c -0.385,0 -0.697,-0.313 -0.697,-0.696 0,-0.386 0.312,-0.698 0.697,-0.698 v -3.645 c -0.385,0 -0.697,-0.312 -0.697,-0.696 0,-0.385 0.312,-0.698 0.697,-0.698 v -3.644 c -0.385,0 -0.697,-0.312 -0.697,-0.698 0,-0.189 0.076,-0.361 0.198,-0.486 0.178,0.285 0.344,0.578 0.499,0.879 v -4.139 c -0.504,-0.575 -1.051,-1.112 -1.635,-1.606 v 3.302 l 0.135,0.162 c -0.044,0.008 -0.089,0.013 -0.135,0.013 v 3.645 c 0.385,0 0.696,0.312 0.696,0.696 0,0.385 -0.311,0.698 -0.696,0.698 v 3.644 c 0.385,0 0.696,0.313 0.696,0.697 0,0.385 -0.311,0.697 -0.696,0.697 v 3.645 c 0.385,0 0.696,0.312 0.696,0.696 0,0.386 -0.311,0.698 -0.696,0.698 V 3.125 C 23.012,2.632 23.559,2.095 24.063,1.52 M 25.234,0 v -6.745 c -0.143,-0.127 -0.233,-0.314 -0.233,-0.521 0,-0.207 0.09,-0.393 0.233,-0.52 v -9.211 c -0.358,-0.532 -0.75,-1.039 -1.171,-1.52 v 4.139 c 0.049,0.096 0.097,0.192 0.144,0.289 -0.046,0.011 -0.095,0.016 -0.144,0.016 v 3.644 c 0.384,0 0.697,0.313 0.697,0.698 0,0.384 -0.313,0.696 -0.697,0.696 v 3.645 c 0.384,0 0.697,0.312 0.697,0.698 0,0.383 -0.313,0.696 -0.697,0.696 V 1.52 C 24.484,1.038 24.876,0.532 25.234,0 m 0,-16.997 v 9.211 c 0.069,-0.061 0.147,-0.108 0.235,-0.138 -0.019,0.427 -0.059,0.848 -0.118,1.263 -0.042,-0.024 -0.08,-0.052 -0.117,-0.084 V 0 c 1.638,-2.427 2.594,-5.351 2.594,-8.498 0,-3.148 -0.956,-6.072 -2.594,-8.499" /></g><g
           transform="translate(584.2578,411.9624)"
           id="g516"><path
             id="path518"
             style="fill:#3b2f1f;fill-opacity:1;fill-rule:evenodd;stroke:none"
             d="M 0,0 H -2.715 L -4.711,45.962 C -4.853,49.23 -1.493,50.673 0,50.673 V 48.3 c -1.499,-10e-4 -2.715,-1.216 -2.715,-2.715 0,-1.5 1.216,-2.714 2.715,-2.715 z m 0.001,50.673 v 0 c 1.493,0 4.853,-1.443 4.711,-4.711 L 2.716,0 H 0 v 42.87 h 0.001 c 1.499,0 2.715,1.215 2.715,2.715 0,1.499 -1.216,2.715 -2.715,2.715 H 0 v 2.373 z" /></g><g
           transform="translate(584.2578,470.7886)"
           id="g520"><path
             id="path522"
             style="fill:#f1a51c;fill-opacity:1;fill-rule:evenodd;stroke:none"
             d="m 0,0 h 0.001 c 0.546,0 0.992,-0.447 0.992,-0.993 v -11.439 c 0,-0.546 -0.446,-0.993 -0.992,-0.993 H 0 c -0.546,0 -0.992,0.447 -0.992,0.993 V -0.993 C -0.992,-0.447 -0.546,0 0,0" /></g><path
           id="path524"
           style="fill:#f1a51c;fill-opacity:1;fill-rule:evenodd;stroke:none"
           d="m 616.54,379.133 h 3.406 v 40.196 h -3.406 z" /><g
           transform="translate(618.2432,411.9624)"
           id="g526"><path
             id="path528"
             style="fill:#3b2f1f;fill-opacity:1;fill-rule:evenodd;stroke:none"
             d="M 0,0 H -2.715 L -4.711,45.962 C -4.854,49.23 -1.493,50.673 0,50.673 V 48.3 c -1.499,-10e-4 -2.715,-1.216 -2.715,-2.715 0,-1.5 1.216,-2.714 2.715,-2.715 z m 0,50.673 v 0 c 1.493,0 4.854,-1.443 4.712,-4.711 L 2.715,0 H 0 v 42.87 c 1.5,0 2.715,1.215 2.715,2.715 C 2.715,47.084 1.5,48.3 0,48.3 Z" /></g><g
           transform="translate(611.5957,349.7178)"
           id="g530"><path
             id="path532"
             style="fill:#f1a51c;fill-opacity:1;fill-rule:evenodd;stroke:none"
             d="m 0,0 h -0.479 c -2.195,0 -3.99,1.795 -3.99,3.989 v 15.909 c 0,3.539 1.771,6.684 4.469,8.594 v -7.191 c -0.408,0 -0.742,-0.333 -0.742,-0.741 V 4.135 C -0.742,3.728 -0.408,3.394 0,3.394 Z M 3.323,0 H 0 v 3.394 c 0.407,0 0.741,0.334 0.741,0.741 V 20.56 c 0,0.408 -0.334,0.741 -0.741,0.741 v 7.191 c 0.995,0.705 2.117,1.241 3.323,1.568 v -8.759 c -0.407,0 -0.741,-0.333 -0.741,-0.741 V 4.135 c 0,-0.407 0.334,-0.741 0.741,-0.741 z M 6.055,30.423 H 6.647 V 21.301 C 6.24,21.301 5.906,20.968 5.906,20.56 V 4.135 C 5.906,3.728 6.24,3.394 6.647,3.394 V 0 H 3.323 v 3.394 h 10e-4 c 0.407,0 0.741,0.334 0.741,0.741 V 20.56 c 0,0.408 -0.334,0.741 -0.741,0.741 H 3.323 v 8.759 c 0.872,0.236 1.788,0.363 2.732,0.363 m 0.592,0 h 0.594 c 0.944,0 1.859,-0.127 2.731,-0.363 V 21.301 C 9.564,21.301 9.23,20.968 9.23,20.56 V 4.135 C 9.23,3.728 9.564,3.394 9.972,3.394 V 0 H 6.647 v 3.394 h 10e-4 c 0.408,0 0.742,0.334 0.742,0.741 V 20.56 c 0,0.408 -0.334,0.741 -0.742,0.741 H 6.647 Z M 9.972,30.06 c 1.206,-0.327 2.329,-0.863 3.324,-1.568 v -7.191 c -0.407,0 -0.741,-0.333 -0.741,-0.741 V 4.135 c 0,-0.407 0.334,-0.741 0.741,-0.741 V 0 H 9.972 v 3.394 h 0.001 c 0.407,0 0.741,0.334 0.741,0.741 V 20.56 c 0,0.408 -0.334,0.741 -0.741,0.741 H 9.972 Z m 3.324,-1.568 c 2.698,-1.91 4.469,-5.054 4.469,-8.594 V 3.989 C 17.765,1.795 15.97,0 13.775,0 h -0.479 v 3.394 h 0.001 c 0.407,0 0.741,0.334 0.741,0.741 V 20.56 c 0,0.408 -0.334,0.741 -0.741,0.741 h -0.001 z" /></g><g
           transform="translate(618.2432,470.7886)"
           id="g534"><path
             id="path536"
             style="fill:#f1a51c;fill-opacity:1;fill-rule:evenodd;stroke:none"
             d="m 0,0 h 0.001 c 0.546,0 0.993,-0.447 0.993,-0.993 v -11.439 c 0,-0.546 -0.447,-0.993 -0.993,-0.993 H 0 c -0.546,0 -0.992,0.447 -0.992,0.993 V -0.993 C -0.992,-0.447 -0.546,0 0,0" /></g><g
           transform="translate(657.2119,452.5381)"
           id="g538"><path
             id="path540"
             style="fill:none;stroke:#1ebab0;stroke-width:1.20000005;stroke-linecap:butt;stroke-linejoin:miter;stroke-miterlimit:22.9260006;stroke-dasharray:none;stroke-opacity:1"
             d="M 0,0 C -0.925,2.875 -2.979,7.634 0,7.634 2.979,7.634 0.924,2.875 0,0 Z" /></g><g
           transform="translate(642.7344,432.7397)"
           id="g542"><path
             id="path544"
             style="fill:#1ebab0;fill-opacity:1;fill-rule:evenodd;stroke:none"
             d="m 0,0 -8.64,1.764 -3.961,-19.401 c -0.484,-2.376 1.063,-4.716 3.439,-5.201 2.376,-0.485 4.717,1.062 5.201,3.438 z" /></g><g
           transform="translate(657.2119,452.5381)"
           id="g546"><path
             id="path548"
             style="fill:#00837b;fill-opacity:1;fill-rule:evenodd;stroke:none"
             d="m 0,0 -26.813,-14.601 16.167,-29.69 c 4.016,-7.373 13.334,-10.121 20.708,-6.106 7.373,4.015 10.121,13.333 6.105,20.707 z" /></g><g
           transform="translate(660.4121,446.6611)"
           id="g550"><path
             id="path552"
             style="fill:#1ebab0;fill-opacity:1;fill-rule:evenodd;stroke:none"
             d="m 0,0 -26.813,-14.601 -1.716,3.153 26.812,14.6 z" /></g><g
           transform="translate(657.2646,470.7886)"
           id="g554"><path
             id="path556"
             style="fill:#f1a51c;fill-opacity:1;fill-rule:evenodd;stroke:none"
             d="m 0,0 v 0 c 0.546,0 0.993,-0.447 0.993,-0.993 v -11.439 c 0,-0.546 -0.447,-0.993 -0.993,-0.993 -0.547,0 -0.993,0.447 -0.993,0.993 V -0.993 C -0.993,-0.447 -0.547,0 0,0" /></g><path
           id="path558"
           style="fill:#e83e5b;fill-opacity:1;fill-rule:evenodd;stroke:none"
           d="m 689.446,379.133 h 3.406 v 40.196 h -3.406 z" /><g
           transform="translate(690.7861,380.1406)"
           id="g560"><path
             id="path562"
             style="fill:#e83e5b;fill-opacity:1;fill-rule:evenodd;stroke:none"
             d="M 0,0 H 0.725 C 2.81,0 8.956,0.801 7.155,-10.524 6.814,-12.665 4.731,-30.423 3.096,-30.423 H 1.768 c 0.118,2.943 5.423,25.115 -1.39,25.115 -6.814,0 -1.535,-22.237 -1.42,-25.115 H -2.37 c -1.637,0 -3.719,17.757 -4.06,19.899 C -8.23,0.801 -2.084,0 0,0" /></g><g
           transform="translate(691.1494,411.9624)"
           id="g564"><path
             id="path566"
             style="fill:#3b2f1f;fill-opacity:1;fill-rule:evenodd;stroke:none"
             d="M 0,0 H -2.715 L -4.712,45.962 C -4.854,49.23 -1.494,50.673 0,50.673 V 48.3 c -1.5,-10e-4 -2.715,-1.216 -2.715,-2.715 0,-1.5 1.215,-2.714 2.715,-2.715 z m 0,50.673 v 0 c 1.493,0 4.854,-1.443 4.711,-4.711 L 2.715,0 H 0 v 42.87 c 1.499,0 2.715,1.215 2.715,2.715 C 2.715,47.084 1.499,48.3 0,48.3 Z" /></g><g
           transform="translate(691.1494,470.7886)"
           id="g568"><path
             id="path570"
             style="fill:#f1a51c;fill-opacity:1;fill-rule:evenodd;stroke:none"
             d="m 0,0 v 0 c 0.546,0 0.993,-0.447 0.993,-0.993 v -11.439 c 0,-0.546 -0.447,-0.993 -0.993,-0.993 -0.547,0 -0.993,0.447 -0.993,0.993 V -0.993 C -0.993,-0.447 -0.547,0 0,0" /></g></g></g><g
       transform="matrix(1.125,0,0,0.6697771,0,-11.480901)"
       id="g576"><g
         clip-path="url(#clipPath582)"
         id="g578"><path
           id="path584"
           style="fill:#3b2f1f;fill-opacity:1;fill-rule:evenodd;stroke:none"
           d="m 302.502,521.947 h 2.56 v 198.614 h -2.56 z" /><path
           id="path586"
           style="fill:#3b2f1f;fill-opacity:1;fill-rule:evenodd;stroke:none"
           d="m 200.877,521.947 h 2.561 v 198.614 h -2.561 z" /><path
           id="path588"
           style="fill:#b8d8d5;fill-opacity:1;fill-rule:evenodd;stroke:none"
           d="m 315.243,554.054 h 78.701 v 142.871 h -78.701 z" /><g
           transform="translate(315.2432,554.0542)"
           id="g590"><path
             id="path592"
             style="fill:#ddf0ee;fill-opacity:1;fill-rule:evenodd;stroke:none"
             d="M 0,0 V 142.871 H 78.701 Z" /></g><g
           transform="translate(387.9004,529.2607)"
           id="g594"><path
             id="path596"
             style="fill:#ffffff;fill-opacity:1;fill-rule:evenodd;stroke:none"
             d="m 0,0 c 3.842,0 6.976,3.134 6.976,6.976 0,3.842 -3.134,6.975 -6.976,6.975 -3.842,0 -6.975,-3.133 -6.975,-6.975 C -6.975,3.134 -3.842,0 0,0" /></g><g
           transform="translate(422.2412,529.2607)"
           id="g598"><path
             id="path600"
             style="fill:#ffffff;fill-opacity:1;fill-rule:evenodd;stroke:none"
             d="m 0,0 c 3.842,0 6.976,3.134 6.976,6.976 0,3.842 -3.134,6.975 -6.976,6.975 -3.842,0 -6.976,-3.133 -6.976,-6.975 C -6.976,3.134 -3.842,0 0,0" /></g><g
           transform="translate(187.8438,529.2607)"
           id="g602"><path
             id="path604"
             style="fill:#ffffff;fill-opacity:1;fill-rule:evenodd;stroke:none"
             d="m 0,0 c 3.842,0 6.976,3.134 6.976,6.976 0,3.842 -3.134,6.975 -6.976,6.975 -3.842,0 -6.975,-3.133 -6.975,-6.975 C -6.975,3.134 -3.842,0 0,0" /></g><g
           transform="translate(222.1846,529.2607)"
           id="g606"><path
             id="path608"
             style="fill:#ffffff;fill-opacity:1;fill-rule:evenodd;stroke:none"
             d="m 0,0 c 3.842,0 6.975,3.134 6.975,6.976 0,3.842 -3.133,6.975 -6.975,6.975 -3.842,0 -6.976,-3.133 -6.976,-6.975 C -6.976,3.134 -3.842,0 0,0" /></g></g></g></g></svg>